M48
;Layer_Color=9474304
;FILE_FORMAT=4:4
METRIC,LZ
;TYPE=PLATED
T1F00S00C0.9000
T2F00S00C1.3000
;TYPE=NON_PLATED
T3F00S00C0.6000
T4F00S00C0.9000
T5F00S00C2.7500
%
T01
X00309Y008848
X003344
Y009102
X00309
X003598
Y008848
X003852
Y009102
X004106
Y008848
X00436
Y009102
X0043Y009725
X004046
X003577Y012346
Y0126
X003323
Y012854
X003577
X003323Y012346
T02
X004046Y011946
X004554
Y012454
X004046
X0043Y0122
T03
X002848Y0095
X003217Y00935
X003598Y0095
X003852
X004107Y00935
X004452Y0095
X003275Y011975
Y012125
X002825
Y011975
T04
X0029Y01002
X0031
X0033
X0035
X0037
X0039
Y01168
X0037
X0035
X0033
X0031
X0029
X0041
X0043
Y01002
X0041
T05
X00285Y01265
M30
