G04 Layer_Physical_Order=2*
G04 Layer_Color=16711680*
%FSLAX44Y44*%
%MOMM*%
G71*
G01*
G75*
%ADD12C,1.5000*%
%ADD19C,0.3048*%
%ADD20C,0.6350*%
%ADD21C,0.5080*%
%ADD23R,1.5000X1.5000*%
%ADD24C,2.7500*%
%ADD25R,1.5000X1.5000*%
%ADD26O,4.5000X2.0000*%
%ADD27O,2.0000X4.5000*%
%ADD28O,5.0000X2.0000*%
%ADD29C,1.2700*%
G36*
X1164302Y895000D02*
X1164555Y893730D01*
X1161092Y892296D01*
X1156993Y889784D01*
X1153338Y886662D01*
X1150216Y883007D01*
X1147704Y878908D01*
X1145865Y874467D01*
X1144743Y869792D01*
X1144366Y865000D01*
X1144523Y862995D01*
X1143263Y862821D01*
X1142883Y864730D01*
X1141620Y866620D01*
X1136620Y871620D01*
X1134730Y872883D01*
X1132500Y873327D01*
X1128184D01*
X1127161Y874661D01*
X1125063Y876270D01*
X1122621Y877282D01*
X1120000Y877627D01*
X1117379Y877282D01*
X1114937Y876270D01*
X1112839Y874661D01*
X1111230Y872563D01*
X1110218Y870121D01*
X1109873Y867500D01*
X1110218Y864879D01*
X1111230Y862437D01*
X1112839Y860339D01*
X1114937Y858730D01*
X1117379Y857718D01*
X1120000Y857373D01*
X1122621Y857718D01*
X1125063Y858730D01*
X1127161Y860339D01*
X1128184Y861673D01*
X1130086D01*
X1131673Y860086D01*
Y847500D01*
X1132117Y845270D01*
X1133380Y843380D01*
X1149758Y827002D01*
X1151648Y825739D01*
X1152260Y825617D01*
Y806260D01*
X1172340D01*
Y825295D01*
X1178964D01*
X1180555Y823704D01*
X1180539Y823461D01*
X1178930Y821363D01*
X1177919Y818921D01*
X1177573Y816300D01*
X1177919Y813679D01*
X1178930Y811237D01*
X1180539Y809139D01*
X1181873Y808116D01*
Y799084D01*
X1180539Y798061D01*
X1178930Y795963D01*
X1177919Y793521D01*
X1177573Y790900D01*
X1177919Y788279D01*
X1178930Y785837D01*
X1180539Y783739D01*
X1182637Y782130D01*
X1185079Y781118D01*
X1187700Y780773D01*
X1190321Y781118D01*
X1192764Y782130D01*
X1194861Y783739D01*
X1196470Y785837D01*
X1197482Y788279D01*
X1197827Y790900D01*
X1197482Y793521D01*
X1196470Y795963D01*
X1194861Y798061D01*
X1193527Y799084D01*
Y808116D01*
X1194861Y809139D01*
X1196470Y811237D01*
X1197482Y813679D01*
X1197827Y816300D01*
X1197482Y818921D01*
X1196470Y821363D01*
X1194861Y823461D01*
X1193527Y824484D01*
Y824800D01*
X1193084Y827030D01*
X1191821Y828920D01*
X1185728Y835013D01*
X1185764Y836402D01*
X1188908Y837704D01*
X1193007Y840216D01*
X1196662Y843338D01*
X1199784Y846993D01*
X1202296Y851092D01*
X1203730Y854555D01*
X1205000Y854303D01*
X1205000Y295697D01*
X1203730Y295445D01*
X1202296Y298908D01*
X1199784Y303006D01*
X1196662Y306662D01*
X1193007Y309784D01*
X1188908Y312295D01*
X1184467Y314135D01*
X1179792Y315257D01*
X1175000Y315634D01*
X1170208Y315257D01*
X1165534Y314135D01*
X1161092Y312295D01*
X1156993Y309784D01*
X1153338Y306662D01*
X1150216Y303006D01*
X1147704Y298908D01*
X1145865Y294466D01*
X1144743Y289792D01*
X1144366Y285000D01*
X1144743Y280208D01*
X1145865Y275533D01*
X1147704Y271092D01*
X1150216Y266994D01*
X1153338Y263338D01*
X1156993Y260216D01*
X1161092Y257705D01*
X1164555Y256270D01*
X1164303Y255000D01*
X695701Y255001D01*
X695448Y256271D01*
X698908Y257705D01*
X703007Y260216D01*
X706662Y263338D01*
X709784Y266994D01*
X712296Y271092D01*
X714135Y275533D01*
X715257Y280208D01*
X715634Y285000D01*
X715257Y289792D01*
X714135Y294466D01*
X712296Y298908D01*
X709784Y303006D01*
X707106Y306142D01*
X707755Y307337D01*
X709000Y307173D01*
X710667Y307393D01*
X753295Y264765D01*
X755185Y263502D01*
X757415Y263058D01*
X1016385D01*
X1018615Y263502D01*
X1020505Y264765D01*
X1094120Y338380D01*
X1095383Y340270D01*
X1095827Y342500D01*
Y436786D01*
X1109833Y450793D01*
X1111500Y450573D01*
X1114121Y450918D01*
X1116563Y451930D01*
X1118661Y453539D01*
X1120270Y455637D01*
X1121282Y458079D01*
X1121627Y460700D01*
X1121282Y463321D01*
X1120270Y465763D01*
X1118661Y467861D01*
X1116563Y469470D01*
X1114121Y470482D01*
X1111500Y470827D01*
X1108879Y470482D01*
X1106437Y469470D01*
X1104339Y467861D01*
X1102730Y465763D01*
X1101718Y463321D01*
X1101373Y460700D01*
X1101593Y459033D01*
X1085880Y443320D01*
X1084617Y441430D01*
X1084173Y439200D01*
Y344914D01*
X1013971Y274712D01*
X889302D01*
X888816Y275885D01*
X1043403Y430473D01*
X1044576Y429987D01*
Y409126D01*
X1044237Y408985D01*
X1042380Y407560D01*
X1040955Y405703D01*
X1040059Y403541D01*
X1039753Y401220D01*
X1040059Y398899D01*
X1040955Y396737D01*
X1042380Y394879D01*
X1044237Y393455D01*
X1046399Y392559D01*
X1048720Y392253D01*
X1051041Y392559D01*
X1053203Y393455D01*
X1055060Y394879D01*
X1056485Y396737D01*
X1057381Y398899D01*
X1057687Y401220D01*
X1057381Y403541D01*
X1056485Y405703D01*
X1055060Y407560D01*
X1053203Y408985D01*
X1052864Y409126D01*
Y432059D01*
X1095430Y474625D01*
X1096328Y475970D01*
X1096644Y477555D01*
Y583107D01*
X1097594Y583889D01*
X1098734Y583479D01*
X1098839Y582679D01*
X1099735Y580517D01*
X1101160Y578660D01*
X1102320Y577769D01*
Y560000D01*
X1102715Y558018D01*
X1103838Y556338D01*
X1139518Y520658D01*
X1141198Y519535D01*
X1143180Y519141D01*
X1153907D01*
X1154533Y517870D01*
X1153530Y516563D01*
X1152519Y514121D01*
X1152508Y514040D01*
X1162300D01*
X1172092D01*
X1172082Y514121D01*
X1171070Y516563D01*
X1170067Y517870D01*
X1170693Y519141D01*
X1172735D01*
X1177899Y513976D01*
X1177573Y511500D01*
X1177919Y508879D01*
X1178930Y506437D01*
X1180539Y504339D01*
X1182637Y502730D01*
X1185079Y501718D01*
X1187700Y501373D01*
X1190321Y501718D01*
X1192764Y502730D01*
X1194861Y504339D01*
X1196470Y506437D01*
X1197482Y508879D01*
X1197827Y511500D01*
X1197482Y514121D01*
X1196470Y516563D01*
X1194861Y518661D01*
X1192764Y520270D01*
X1190321Y521282D01*
X1187700Y521627D01*
X1185224Y521301D01*
X1178543Y527982D01*
X1176862Y529105D01*
X1174880Y529500D01*
X1170878D01*
X1170251Y530770D01*
X1171070Y531837D01*
X1172082Y534279D01*
X1172427Y536900D01*
X1172082Y539521D01*
X1171070Y541963D01*
X1169461Y544061D01*
X1167364Y545670D01*
X1164921Y546682D01*
X1162300Y547027D01*
X1159824Y546701D01*
X1147680Y558846D01*
Y562500D01*
X1147285Y564482D01*
X1146162Y566162D01*
X1135129Y577196D01*
X1133449Y578319D01*
X1131467Y578713D01*
X1129731D01*
X1128840Y579874D01*
X1126983Y581299D01*
X1124821Y582195D01*
X1122500Y582500D01*
X1120179Y582195D01*
X1118017Y581299D01*
X1116473Y580115D01*
X1115430Y580915D01*
X1116161Y582679D01*
X1116467Y585000D01*
X1116161Y587321D01*
X1115265Y589483D01*
X1113840Y591340D01*
X1111983Y592765D01*
X1109821Y593661D01*
X1108934Y593778D01*
X1108479Y595119D01*
X1111716Y598356D01*
X1151700D01*
X1153286Y598672D01*
X1154630Y599570D01*
X1158760Y603699D01*
X1159679Y603318D01*
X1162300Y602973D01*
X1164921Y603318D01*
X1167364Y604330D01*
X1169461Y605939D01*
X1171070Y608037D01*
X1172082Y610479D01*
X1172427Y613100D01*
X1172082Y615721D01*
X1171070Y618163D01*
X1169978Y619586D01*
X1170604Y620856D01*
X1174084D01*
X1178299Y616641D01*
X1177919Y615721D01*
X1177573Y613100D01*
X1177919Y610479D01*
X1178930Y608037D01*
X1180539Y605939D01*
X1182637Y604330D01*
X1185079Y603318D01*
X1187700Y602973D01*
X1190321Y603318D01*
X1192764Y604330D01*
X1194861Y605939D01*
X1196470Y608037D01*
X1197482Y610479D01*
X1197827Y613100D01*
X1197482Y615721D01*
X1196470Y618163D01*
X1194861Y620261D01*
X1192764Y621870D01*
X1190321Y622882D01*
X1187700Y623227D01*
X1185079Y622882D01*
X1184159Y622501D01*
X1178730Y627930D01*
X1177386Y628828D01*
X1175800Y629144D01*
X1168685D01*
X1168254Y630414D01*
X1169461Y631339D01*
X1171070Y633437D01*
X1172082Y635879D01*
X1172427Y638500D01*
X1172082Y641121D01*
X1171070Y643563D01*
X1169461Y645661D01*
X1167364Y647270D01*
X1164921Y648282D01*
X1162300Y648627D01*
X1159679Y648282D01*
X1157237Y647270D01*
X1155139Y645661D01*
X1153530Y643563D01*
X1152914Y642075D01*
X1151644Y642327D01*
Y660073D01*
X1152914Y660325D01*
X1153530Y658837D01*
X1155139Y656739D01*
X1157237Y655130D01*
X1159679Y654118D01*
X1162300Y653773D01*
X1164921Y654118D01*
X1167364Y655130D01*
X1169461Y656739D01*
X1171070Y658837D01*
X1172082Y661279D01*
X1172427Y663900D01*
X1172082Y666521D01*
X1171070Y668963D01*
X1169461Y671061D01*
X1167364Y672670D01*
X1164921Y673682D01*
X1162300Y674027D01*
X1159679Y673682D01*
X1157237Y672670D01*
X1155139Y671061D01*
X1153530Y668963D01*
X1152914Y667475D01*
X1151644Y667727D01*
Y670000D01*
X1151328Y671586D01*
X1150430Y672930D01*
X1125830Y697530D01*
X1124486Y698428D01*
X1122900Y698744D01*
X929151D01*
X928770Y699663D01*
X927161Y701761D01*
X925063Y703370D01*
X922621Y704382D01*
X920000Y704727D01*
X917379Y704382D01*
X914937Y703370D01*
X912839Y701761D01*
X911230Y699663D01*
X910218Y697221D01*
X909873Y694600D01*
X910218Y691979D01*
X911230Y689537D01*
X912839Y687439D01*
X914937Y685830D01*
X917379Y684818D01*
X920000Y684473D01*
X922621Y684818D01*
X925063Y685830D01*
X927161Y687439D01*
X928770Y689537D01*
X929151Y690456D01*
X1120397D01*
X1120576Y690170D01*
X1120205Y689397D01*
X1119843Y688945D01*
X1117677Y688660D01*
X1115514Y687764D01*
X1113657Y686339D01*
X1112232Y684482D01*
X1111337Y682319D01*
X1111031Y679999D01*
X1111337Y677678D01*
X1112232Y675515D01*
X1113657Y673658D01*
X1114794Y672786D01*
X1114795Y671211D01*
X1113660Y670340D01*
X1112235Y668483D01*
X1111339Y666321D01*
X1111033Y664000D01*
X1111339Y661679D01*
X1112235Y659517D01*
X1113660Y657660D01*
X1115174Y656498D01*
X1115280Y656113D01*
X1115279Y655383D01*
X1115173Y655002D01*
X1113657Y653839D01*
X1112767Y652678D01*
X1104999D01*
X1104999Y652678D01*
X1103017Y652284D01*
X1101336Y651161D01*
X1058838Y608662D01*
X1057715Y606982D01*
X1057320Y605000D01*
Y566990D01*
X1056050Y566563D01*
X1054483Y567765D01*
X1052321Y568661D01*
X1050000Y568967D01*
X1047679Y568661D01*
X1045517Y567765D01*
X1043660Y566340D01*
X1042235Y564483D01*
X1041339Y562321D01*
X1041033Y560000D01*
X1041339Y557679D01*
X1042235Y555517D01*
X1043660Y553660D01*
X1044820Y552769D01*
Y497145D01*
X925355Y377679D01*
X815000D01*
X813018Y377285D01*
X811338Y376162D01*
X787676Y352501D01*
X785200Y352827D01*
X782579Y352482D01*
X780137Y351470D01*
X778039Y349861D01*
X776430Y347763D01*
X775418Y345321D01*
X775073Y342700D01*
X775418Y340079D01*
X776430Y337637D01*
X778039Y335539D01*
X780137Y333930D01*
X782579Y332918D01*
X785200Y332573D01*
X787821Y332918D01*
X790263Y333930D01*
X792361Y335539D01*
X793970Y337637D01*
X794982Y340079D01*
X795327Y342700D01*
X795001Y345176D01*
X817145Y367321D01*
X925836D01*
X926322Y366147D01*
X865355Y305180D01*
X844645D01*
X841875Y307950D01*
X841958Y309217D01*
X843161Y310139D01*
X844770Y312237D01*
X845782Y314679D01*
X846127Y317300D01*
X845782Y319921D01*
X844770Y322363D01*
X843161Y324461D01*
X841063Y326070D01*
X838621Y327082D01*
X836000Y327427D01*
X833379Y327082D01*
X830937Y326070D01*
X828839Y324461D01*
X827230Y322363D01*
X826218Y319921D01*
X825873Y317300D01*
X826218Y314679D01*
X827230Y312237D01*
X828839Y310139D01*
X830820Y308619D01*
Y306500D01*
X831215Y304518D01*
X832337Y302838D01*
X836442Y298733D01*
X835956Y297560D01*
X819765D01*
X815779Y301545D01*
Y308619D01*
X817761Y310139D01*
X819370Y312237D01*
X820382Y314679D01*
X820727Y317300D01*
X820382Y319921D01*
X819370Y322363D01*
X817761Y324461D01*
X815663Y326070D01*
X813221Y327082D01*
X810600Y327427D01*
X807979Y327082D01*
X805537Y326070D01*
X803439Y324461D01*
X801830Y322363D01*
X800818Y319921D01*
X800473Y317300D01*
X800818Y314679D01*
X801830Y312237D01*
X803439Y310139D01*
X805421Y308619D01*
Y299400D01*
X805815Y297418D01*
X806937Y295737D01*
X811562Y291113D01*
X811076Y289939D01*
X800005D01*
X790379Y299565D01*
Y308619D01*
X792361Y310139D01*
X793970Y312237D01*
X794982Y314679D01*
X795327Y317300D01*
X794982Y319921D01*
X793970Y322363D01*
X792361Y324461D01*
X790263Y326070D01*
X787821Y327082D01*
X785200Y327427D01*
X782579Y327082D01*
X780137Y326070D01*
X778039Y324461D01*
X776430Y322363D01*
X775418Y319921D01*
X775073Y317300D01*
X775418Y314679D01*
X776430Y312237D01*
X778039Y310139D01*
X780021Y308619D01*
Y297420D01*
X780415Y295438D01*
X781537Y293757D01*
X791802Y283493D01*
X791316Y282320D01*
X780005D01*
X764979Y297345D01*
Y308619D01*
X766961Y310139D01*
X768570Y312237D01*
X769582Y314679D01*
X769927Y317300D01*
X769582Y319921D01*
X768570Y322363D01*
X766961Y324461D01*
X764863Y326070D01*
X762421Y327082D01*
X759800Y327427D01*
X757179Y327082D01*
X754737Y326070D01*
X752639Y324461D01*
X751030Y322363D01*
X750018Y319921D01*
X749673Y317300D01*
X750018Y314679D01*
X751030Y312237D01*
X752639Y310139D01*
X754621Y308619D01*
Y295200D01*
X755015Y293218D01*
X756137Y291537D01*
X771790Y275885D01*
X771304Y274712D01*
X759829D01*
X718907Y315633D01*
X719127Y317300D01*
X718782Y319921D01*
X717770Y322363D01*
X716161Y324461D01*
X714827Y325484D01*
Y332660D01*
X719040D01*
Y352740D01*
X714827D01*
Y366586D01*
X742414Y394173D01*
X905000D01*
X907230Y394617D01*
X909120Y395880D01*
X949120Y435880D01*
X950383Y437770D01*
X950827Y440000D01*
Y550086D01*
X996858Y596118D01*
X997500Y596033D01*
X999821Y596339D01*
X1001983Y597235D01*
X1003840Y598660D01*
X1005265Y600517D01*
X1006161Y602679D01*
X1006467Y605000D01*
X1006161Y607321D01*
X1005265Y609483D01*
X1003840Y611340D01*
X1001983Y612765D01*
X999821Y613661D01*
X997500Y613967D01*
X995179Y613661D01*
X993017Y612765D01*
X991160Y611340D01*
X989735Y609483D01*
X988839Y607321D01*
X988533Y605000D01*
X988618Y604358D01*
X940880Y556620D01*
X939617Y554730D01*
X939173Y552500D01*
Y517327D01*
X930278D01*
Y521540D01*
X910198D01*
Y501460D01*
X930278D01*
Y505673D01*
X939173D01*
Y442414D01*
X902586Y405827D01*
X740000D01*
X737770Y405383D01*
X735880Y404120D01*
X704880Y373120D01*
X703617Y371230D01*
X703173Y369000D01*
Y352740D01*
X698960D01*
Y332660D01*
X703173D01*
Y325484D01*
X701839Y324461D01*
X700230Y322363D01*
X699218Y319921D01*
X698873Y317300D01*
X699218Y314679D01*
X699820Y313226D01*
X699075Y312467D01*
X698815Y312334D01*
X694467Y314135D01*
X689792Y315257D01*
X685000Y315634D01*
X680208Y315257D01*
X675533Y314135D01*
X671092Y312295D01*
X666993Y309784D01*
X663338Y306662D01*
X660216Y303006D01*
X657704Y298908D01*
X656270Y295444D01*
X655000Y295697D01*
X655000Y435000D01*
X885000D01*
X885000Y895000D01*
X1164302Y895000D01*
D02*
G37*
G36*
X1154570Y622070D02*
X1155020Y621769D01*
X1155137Y620288D01*
X1155089Y620195D01*
X1153530Y618163D01*
X1152519Y615721D01*
X1152173Y613100D01*
X1152519Y610479D01*
X1152899Y609559D01*
X1149984Y606644D01*
X1133265D01*
X1132739Y607914D01*
X1143662Y618838D01*
X1144785Y620518D01*
X1145180Y622500D01*
Y629801D01*
X1146353Y630287D01*
X1154570Y622070D01*
D02*
G37*
G36*
X1114735Y569050D02*
X1116160Y567193D01*
X1118017Y565768D01*
X1120179Y564872D01*
X1122500Y564567D01*
X1124821Y564872D01*
X1126983Y565768D01*
X1128840Y567193D01*
X1128967Y567358D01*
X1130234Y567441D01*
X1137320Y560355D01*
Y556700D01*
X1137715Y554718D01*
X1138838Y553038D01*
X1152499Y539376D01*
X1152173Y536900D01*
X1152519Y534279D01*
X1153530Y531837D01*
X1154349Y530770D01*
X1153723Y529500D01*
X1145325D01*
X1112680Y562145D01*
Y570693D01*
X1113950Y570945D01*
X1114735Y569050D01*
D02*
G37*
%LPC*%
G36*
X1095040Y877540D02*
X1087540D01*
Y870040D01*
X1095040D01*
Y877540D01*
D02*
G37*
G36*
X1082460D02*
X1074960D01*
Y870040D01*
X1082460D01*
Y877540D01*
D02*
G37*
G36*
X1060040D02*
X1052540D01*
Y870040D01*
X1060040D01*
Y877540D01*
D02*
G37*
G36*
X1047460D02*
X1039960D01*
Y870040D01*
X1047460D01*
Y877540D01*
D02*
G37*
G36*
X1025040D02*
X1017540D01*
Y870040D01*
X1025040D01*
Y877540D01*
D02*
G37*
G36*
X1012460D02*
X1004960D01*
Y870040D01*
X1012460D01*
Y877540D01*
D02*
G37*
G36*
X1095040Y864960D02*
X1087540D01*
Y857460D01*
X1095040D01*
Y864960D01*
D02*
G37*
G36*
X1082460D02*
X1074960D01*
Y857460D01*
X1082460D01*
Y864960D01*
D02*
G37*
G36*
X1060040D02*
X1052540D01*
Y857460D01*
X1060040D01*
Y864960D01*
D02*
G37*
G36*
X1047460D02*
X1039960D01*
Y857460D01*
X1047460D01*
Y864960D01*
D02*
G37*
G36*
X1025040D02*
X1017540D01*
Y857460D01*
X1025040D01*
Y864960D01*
D02*
G37*
G36*
X1012460D02*
X1004960D01*
Y857460D01*
X1012460D01*
Y864960D01*
D02*
G37*
G36*
X1085000Y852227D02*
X1082379Y851882D01*
X1079937Y850870D01*
X1077839Y849261D01*
X1076230Y847163D01*
X1075219Y844721D01*
X1075027Y843268D01*
X1063380Y831620D01*
X1062117Y829730D01*
X1061673Y827500D01*
Y782414D01*
X1050642Y771382D01*
X1050000Y771467D01*
X1047679Y771161D01*
X1045517Y770265D01*
X1043660Y768840D01*
X1042235Y766983D01*
X1041339Y764821D01*
X1041033Y762500D01*
X1041118Y761858D01*
X1005086Y725827D01*
X956734D01*
X956340Y726340D01*
X954483Y727765D01*
X952321Y728661D01*
X950000Y728967D01*
X947679Y728661D01*
X945517Y727765D01*
X943660Y726340D01*
X942235Y724483D01*
X941339Y722321D01*
X941033Y720000D01*
X941339Y717679D01*
X942235Y715517D01*
X943660Y713660D01*
X945517Y712235D01*
X947679Y711339D01*
X950000Y711033D01*
X952321Y711339D01*
X954483Y712235D01*
X956340Y713660D01*
X956734Y714173D01*
X1007500D01*
X1009730Y714617D01*
X1011620Y715880D01*
X1049358Y753618D01*
X1050000Y753533D01*
X1052321Y753839D01*
X1054483Y754735D01*
X1056340Y756160D01*
X1057765Y758017D01*
X1058661Y760179D01*
X1058967Y762500D01*
X1058882Y763142D01*
X1071620Y775880D01*
X1072883Y777770D01*
X1073327Y780000D01*
Y825086D01*
X1081092Y832851D01*
X1082379Y832318D01*
X1085000Y831973D01*
X1087621Y832318D01*
X1090063Y833330D01*
X1092161Y834939D01*
X1093184Y836273D01*
X1109960D01*
Y832060D01*
X1130040D01*
Y852140D01*
X1109960D01*
Y847927D01*
X1093184D01*
X1092161Y849261D01*
X1090063Y850870D01*
X1087621Y851882D01*
X1085000Y852227D01*
D02*
G37*
G36*
X1050000D02*
X1047379Y851882D01*
X1044937Y850870D01*
X1042839Y849261D01*
X1041230Y847163D01*
X1040219Y844721D01*
X1039873Y842100D01*
X1040093Y840433D01*
X1025880Y826220D01*
X1024617Y824330D01*
X1024173Y822100D01*
Y769914D01*
X997586Y743327D01*
X979234D01*
X978840Y743840D01*
X976983Y745265D01*
X974821Y746161D01*
X972500Y746467D01*
X970179Y746161D01*
X968017Y745265D01*
X966160Y743840D01*
X964735Y741983D01*
X963839Y739821D01*
X963533Y737500D01*
X963839Y735179D01*
X964735Y733017D01*
X966160Y731160D01*
X968017Y729735D01*
X970179Y728839D01*
X972500Y728533D01*
X974821Y728839D01*
X976983Y729735D01*
X978840Y731160D01*
X979234Y731673D01*
X1000000D01*
X1002230Y732117D01*
X1004120Y733380D01*
X1034120Y763380D01*
X1035383Y765270D01*
X1035827Y767500D01*
Y819686D01*
X1048333Y832193D01*
X1050000Y831973D01*
X1052621Y832318D01*
X1055063Y833330D01*
X1057161Y834939D01*
X1058770Y837037D01*
X1059782Y839479D01*
X1060127Y842100D01*
X1059782Y844721D01*
X1058770Y847163D01*
X1057161Y849261D01*
X1055063Y850870D01*
X1052621Y851882D01*
X1050000Y852227D01*
D02*
G37*
G36*
X1015000D02*
X1012379Y851882D01*
X1009937Y850870D01*
X1007840Y849261D01*
X1006230Y847163D01*
X1005219Y844721D01*
X1004874Y842100D01*
X1005093Y840433D01*
X990880Y826220D01*
X989617Y824330D01*
X989173Y822100D01*
Y814914D01*
X972586Y798327D01*
X960000D01*
X957770Y797883D01*
X955880Y796620D01*
X945880Y786620D01*
X944617Y784730D01*
X944173Y782500D01*
Y775148D01*
X935000D01*
X931726Y774717D01*
X928676Y773454D01*
X926056Y771444D01*
X924046Y768824D01*
X922783Y765774D01*
X922352Y762500D01*
X922783Y759226D01*
X924046Y756176D01*
X926056Y753556D01*
X928676Y751546D01*
X931726Y750283D01*
X935000Y749852D01*
X965000D01*
X968274Y750283D01*
X971324Y751546D01*
X973944Y753556D01*
X975954Y756176D01*
X977217Y759226D01*
X977648Y762500D01*
X977217Y765774D01*
X975954Y768824D01*
X973944Y771444D01*
X971324Y773454D01*
X968274Y774717D01*
X965000Y775148D01*
X955827D01*
Y780086D01*
X962414Y786673D01*
X975000D01*
X977230Y787117D01*
X979120Y788380D01*
X999120Y808380D01*
X1000383Y810270D01*
X1000827Y812500D01*
Y819686D01*
X1013333Y832193D01*
X1015000Y831973D01*
X1017621Y832318D01*
X1020063Y833330D01*
X1022161Y834939D01*
X1023770Y837037D01*
X1024782Y839479D01*
X1025127Y842100D01*
X1024782Y844721D01*
X1023770Y847163D01*
X1022161Y849261D01*
X1020063Y850870D01*
X1017621Y851882D01*
X1015000Y852227D01*
D02*
G37*
G36*
X962500Y835148D02*
X952540D01*
Y825040D01*
X974814D01*
X974717Y825774D01*
X973454Y828824D01*
X971444Y831444D01*
X968824Y833454D01*
X965774Y834717D01*
X962500Y835148D01*
D02*
G37*
G36*
X947460D02*
X937500D01*
X934226Y834717D01*
X931176Y833454D01*
X928556Y831444D01*
X926546Y828824D01*
X925283Y825774D01*
X925186Y825040D01*
X947460D01*
Y835148D01*
D02*
G37*
G36*
X974814Y819960D02*
X952540D01*
Y809852D01*
X962500D01*
X965774Y810283D01*
X968824Y811546D01*
X971444Y813556D01*
X973454Y816176D01*
X974717Y819226D01*
X974814Y819960D01*
D02*
G37*
G36*
X947460D02*
X925186D01*
X925283Y819226D01*
X926546Y816176D01*
X928556Y813556D01*
X931176Y811546D01*
X934226Y810283D01*
X937500Y809852D01*
X947460D01*
Y819960D01*
D02*
G37*
G36*
X1050000Y826827D02*
X1047379Y826482D01*
X1044937Y825470D01*
X1042839Y823861D01*
X1041230Y821763D01*
X1040219Y819321D01*
X1039873Y816700D01*
X1040219Y814079D01*
X1041230Y811637D01*
X1042839Y809539D01*
X1044937Y807930D01*
X1047379Y806918D01*
X1050000Y806573D01*
X1052621Y806918D01*
X1055063Y807930D01*
X1057161Y809539D01*
X1058770Y811637D01*
X1059782Y814079D01*
X1060127Y816700D01*
X1059782Y819321D01*
X1058770Y821763D01*
X1057161Y823861D01*
X1055063Y825470D01*
X1052621Y826482D01*
X1050000Y826827D01*
D02*
G37*
G36*
Y801427D02*
X1047379Y801082D01*
X1044937Y800070D01*
X1042839Y798461D01*
X1041230Y796363D01*
X1040219Y793921D01*
X1039873Y791300D01*
X1040219Y788679D01*
X1041230Y786237D01*
X1042839Y784139D01*
X1044937Y782530D01*
X1047379Y781518D01*
X1050000Y781173D01*
X1052621Y781518D01*
X1055063Y782530D01*
X1057161Y784139D01*
X1058770Y786237D01*
X1059782Y788679D01*
X1060127Y791300D01*
X1059782Y793921D01*
X1058770Y796363D01*
X1057161Y798461D01*
X1055063Y800070D01*
X1052621Y801082D01*
X1050000Y801427D01*
D02*
G37*
G36*
X1085000Y826827D02*
X1082379Y826482D01*
X1079937Y825470D01*
X1077839Y823861D01*
X1076230Y821763D01*
X1075219Y819321D01*
X1074873Y816700D01*
X1075219Y814079D01*
X1076230Y811637D01*
X1077839Y809539D01*
X1079937Y807930D01*
X1082379Y806918D01*
X1085000Y806573D01*
X1087621Y806918D01*
X1090063Y807930D01*
X1092161Y809539D01*
X1093770Y811637D01*
X1094151Y812556D01*
X1116584D01*
X1141170Y787970D01*
X1142514Y787072D01*
X1144100Y786756D01*
X1153149D01*
X1153530Y785837D01*
X1155139Y783739D01*
X1157237Y782130D01*
X1159679Y781118D01*
X1162300Y780773D01*
X1164921Y781118D01*
X1167364Y782130D01*
X1169461Y783739D01*
X1171070Y785837D01*
X1172082Y788279D01*
X1172427Y790900D01*
X1172082Y793521D01*
X1171070Y795963D01*
X1169461Y798061D01*
X1167364Y799670D01*
X1164921Y800682D01*
X1162300Y801027D01*
X1159679Y800682D01*
X1157237Y799670D01*
X1155139Y798061D01*
X1153530Y795963D01*
X1153149Y795044D01*
X1145816D01*
X1121230Y819630D01*
X1119886Y820528D01*
X1118300Y820844D01*
X1094151D01*
X1093770Y821763D01*
X1092161Y823861D01*
X1090063Y825470D01*
X1087621Y826482D01*
X1085000Y826827D01*
D02*
G37*
G36*
X1190240Y775292D02*
Y768040D01*
X1197492D01*
X1197482Y768121D01*
X1196470Y770563D01*
X1194861Y772661D01*
X1192764Y774270D01*
X1190321Y775282D01*
X1190240Y775292D01*
D02*
G37*
G36*
X1185160Y775292D02*
X1185079Y775282D01*
X1182637Y774270D01*
X1180539Y772661D01*
X1178930Y770563D01*
X1177919Y768121D01*
X1177908Y768040D01*
X1185160D01*
Y775292D01*
D02*
G37*
G36*
X903000Y817648D02*
X899726Y817217D01*
X896676Y815954D01*
X894056Y813944D01*
X892046Y811324D01*
X890783Y808274D01*
X890352Y805000D01*
Y780000D01*
X890783Y776726D01*
X892046Y773676D01*
X894056Y771056D01*
X896676Y769046D01*
X899726Y767783D01*
X903000Y767352D01*
X906274Y767783D01*
X909324Y769046D01*
X911944Y771056D01*
X913954Y773676D01*
X915217Y776726D01*
X915648Y780000D01*
Y805000D01*
X915217Y808274D01*
X913954Y811324D01*
X911944Y813944D01*
X909324Y815954D01*
X906274Y817217D01*
X903000Y817648D01*
D02*
G37*
G36*
X1185160Y762960D02*
X1177908D01*
X1177919Y762879D01*
X1178930Y760437D01*
X1180539Y758339D01*
X1182637Y756730D01*
X1185079Y755718D01*
X1185160Y755708D01*
Y762960D01*
D02*
G37*
G36*
X1197492D02*
X1190240D01*
Y755708D01*
X1190321Y755718D01*
X1192764Y756730D01*
X1194861Y758339D01*
X1196470Y760437D01*
X1197482Y762879D01*
X1197492Y762960D01*
D02*
G37*
G36*
X1085000Y801427D02*
X1082379Y801082D01*
X1079937Y800070D01*
X1077839Y798461D01*
X1076230Y796363D01*
X1075219Y793921D01*
X1074873Y791300D01*
X1075219Y788679D01*
X1076230Y786237D01*
X1077839Y784139D01*
X1079937Y782530D01*
X1082379Y781518D01*
X1085000Y781173D01*
X1087621Y781518D01*
X1090063Y782530D01*
X1092161Y784139D01*
X1093770Y786237D01*
X1094151Y787156D01*
X1116984D01*
X1141570Y762570D01*
X1142914Y761672D01*
X1144500Y761356D01*
X1153149D01*
X1153530Y760437D01*
X1155139Y758339D01*
X1157237Y756730D01*
X1159679Y755718D01*
X1162300Y755373D01*
X1164921Y755718D01*
X1167364Y756730D01*
X1169461Y758339D01*
X1171070Y760437D01*
X1172082Y762879D01*
X1172427Y765500D01*
X1172082Y768121D01*
X1171070Y770563D01*
X1169461Y772661D01*
X1167364Y774270D01*
X1164921Y775282D01*
X1162300Y775627D01*
X1159679Y775282D01*
X1157237Y774270D01*
X1155139Y772661D01*
X1153530Y770563D01*
X1153149Y769644D01*
X1146216D01*
X1121630Y794230D01*
X1120286Y795128D01*
X1118700Y795444D01*
X1094151D01*
X1093770Y796363D01*
X1092161Y798461D01*
X1090063Y800070D01*
X1087621Y801082D01*
X1085000Y801427D01*
D02*
G37*
G36*
X1187700Y750227D02*
X1185079Y749882D01*
X1182637Y748870D01*
X1180539Y747261D01*
X1178930Y745163D01*
X1177919Y742721D01*
X1177573Y740100D01*
X1177919Y737479D01*
X1178930Y735037D01*
X1180539Y732939D01*
X1182637Y731330D01*
X1185079Y730318D01*
X1187700Y729973D01*
X1190321Y730318D01*
X1192764Y731330D01*
X1194861Y732939D01*
X1196470Y735037D01*
X1197482Y737479D01*
X1197827Y740100D01*
X1197482Y742721D01*
X1196470Y745163D01*
X1194861Y747261D01*
X1192764Y748870D01*
X1190321Y749882D01*
X1187700Y750227D01*
D02*
G37*
G36*
X1162300D02*
X1159679Y749882D01*
X1157237Y748870D01*
X1155139Y747261D01*
X1153530Y745163D01*
X1153149Y744244D01*
X1045100D01*
X1043514Y743928D01*
X1042170Y743030D01*
X1008284Y709144D01*
X936716D01*
X930040Y715820D01*
Y730040D01*
X909960D01*
Y709960D01*
X924180D01*
X932070Y702070D01*
X933414Y701172D01*
X935000Y700856D01*
X1010000D01*
X1011586Y701172D01*
X1012930Y702070D01*
X1046816Y735956D01*
X1153149D01*
X1153530Y735037D01*
X1155139Y732939D01*
X1157237Y731330D01*
X1159679Y730318D01*
X1162300Y729973D01*
X1164921Y730318D01*
X1167364Y731330D01*
X1169461Y732939D01*
X1171070Y735037D01*
X1172082Y737479D01*
X1172427Y740100D01*
X1172082Y742721D01*
X1171070Y745163D01*
X1169461Y747261D01*
X1167364Y748870D01*
X1164921Y749882D01*
X1162300Y750227D01*
D02*
G37*
G36*
X1164840Y724492D02*
Y717240D01*
X1172092D01*
X1172082Y717321D01*
X1171070Y719763D01*
X1169461Y721861D01*
X1167364Y723470D01*
X1164921Y724482D01*
X1164840Y724492D01*
D02*
G37*
G36*
X1159760Y724492D02*
X1159679Y724482D01*
X1157237Y723470D01*
X1155139Y721861D01*
X1153530Y719763D01*
X1152519Y717321D01*
X1152508Y717240D01*
X1159760D01*
Y724492D01*
D02*
G37*
G36*
Y712160D02*
X1152508D01*
X1152519Y712079D01*
X1153530Y709637D01*
X1155139Y707539D01*
X1157237Y705930D01*
X1159679Y704918D01*
X1159760Y704908D01*
Y712160D01*
D02*
G37*
G36*
X1172092D02*
X1164840D01*
Y704908D01*
X1164921Y704918D01*
X1167364Y705930D01*
X1169461Y707539D01*
X1171070Y709637D01*
X1172082Y712079D01*
X1172092Y712160D01*
D02*
G37*
G36*
X1187700Y724827D02*
X1185079Y724482D01*
X1182637Y723470D01*
X1180539Y721861D01*
X1178930Y719763D01*
X1177919Y717321D01*
X1177573Y714700D01*
X1177919Y712079D01*
X1178930Y709637D01*
X1180539Y707539D01*
X1182637Y705930D01*
X1185079Y704918D01*
X1187700Y704573D01*
X1190321Y704918D01*
X1192764Y705930D01*
X1194861Y707539D01*
X1196470Y709637D01*
X1197482Y712079D01*
X1197827Y714700D01*
X1197482Y717321D01*
X1196470Y719763D01*
X1194861Y721861D01*
X1192764Y723470D01*
X1190321Y724482D01*
X1187700Y724827D01*
D02*
G37*
G36*
Y699427D02*
X1185079Y699082D01*
X1182637Y698070D01*
X1180539Y696461D01*
X1178930Y694363D01*
X1177919Y691921D01*
X1177573Y689300D01*
X1177919Y686679D01*
X1178930Y684237D01*
X1180539Y682139D01*
X1182637Y680530D01*
X1185079Y679518D01*
X1187700Y679173D01*
X1190321Y679518D01*
X1192764Y680530D01*
X1194861Y682139D01*
X1196470Y684237D01*
X1197482Y686679D01*
X1197827Y689300D01*
X1197482Y691921D01*
X1196470Y694363D01*
X1194861Y696461D01*
X1192764Y698070D01*
X1190321Y699082D01*
X1187700Y699427D01*
D02*
G37*
G36*
X1162300D02*
X1159679Y699082D01*
X1157237Y698070D01*
X1155139Y696461D01*
X1153530Y694363D01*
X1152519Y691921D01*
X1152173Y689300D01*
X1152519Y686679D01*
X1153530Y684237D01*
X1155139Y682139D01*
X1157237Y680530D01*
X1159679Y679518D01*
X1162300Y679173D01*
X1164921Y679518D01*
X1167364Y680530D01*
X1169461Y682139D01*
X1171070Y684237D01*
X1172082Y686679D01*
X1172427Y689300D01*
X1172082Y691921D01*
X1171070Y694363D01*
X1169461Y696461D01*
X1167364Y698070D01*
X1164921Y699082D01*
X1162300Y699427D01*
D02*
G37*
G36*
X1190240Y673692D02*
Y666440D01*
X1197492D01*
X1197482Y666521D01*
X1196470Y668963D01*
X1194861Y671061D01*
X1192764Y672670D01*
X1190321Y673682D01*
X1190240Y673692D01*
D02*
G37*
G36*
X1185160Y673692D02*
X1185079Y673682D01*
X1182637Y672670D01*
X1180539Y671061D01*
X1178930Y668963D01*
X1177919Y666521D01*
X1177908Y666440D01*
X1185160D01*
Y673692D01*
D02*
G37*
G36*
Y661360D02*
X1177908D01*
X1177919Y661279D01*
X1178930Y658837D01*
X1180539Y656739D01*
X1182637Y655130D01*
X1185079Y654118D01*
X1185160Y654108D01*
Y661360D01*
D02*
G37*
G36*
X1197492D02*
X1190240D01*
Y654108D01*
X1190321Y654118D01*
X1192764Y655130D01*
X1194861Y656739D01*
X1196470Y658837D01*
X1197482Y661279D01*
X1197492Y661360D01*
D02*
G37*
G36*
X920238Y648627D02*
X917617Y648282D01*
X915175Y647270D01*
X913078Y645661D01*
X911468Y643563D01*
X910457Y641121D01*
X910112Y638500D01*
X910457Y635879D01*
X911468Y633437D01*
X913078Y631339D01*
X915175Y629730D01*
X917617Y628719D01*
X920238Y628373D01*
X922859Y628719D01*
X925302Y629730D01*
X927399Y631339D01*
X929008Y633437D01*
X930020Y635879D01*
X930365Y638500D01*
X930020Y641121D01*
X929008Y643563D01*
X927399Y645661D01*
X925302Y647270D01*
X922859Y648282D01*
X920238Y648627D01*
D02*
G37*
G36*
X1187700Y648627D02*
X1185079Y648282D01*
X1182637Y647270D01*
X1180539Y645661D01*
X1178930Y643563D01*
X1177919Y641121D01*
X1177573Y638500D01*
X1177919Y635879D01*
X1178930Y633437D01*
X1180539Y631339D01*
X1182637Y629730D01*
X1185079Y628718D01*
X1187700Y628373D01*
X1190321Y628718D01*
X1192764Y629730D01*
X1194861Y631339D01*
X1196470Y633437D01*
X1197482Y635879D01*
X1197827Y638500D01*
X1197482Y641121D01*
X1196470Y643563D01*
X1194861Y645661D01*
X1192764Y647270D01*
X1190321Y648282D01*
X1187700Y648627D01*
D02*
G37*
G36*
X920238Y623227D02*
X917617Y622882D01*
X915175Y621870D01*
X913078Y620261D01*
X911468Y618163D01*
X910457Y615721D01*
X910112Y613100D01*
X910457Y610479D01*
X911468Y608037D01*
X913078Y605939D01*
X915175Y604330D01*
X917617Y603319D01*
X920238Y602974D01*
X922859Y603319D01*
X925302Y604330D01*
X927399Y605939D01*
X929008Y608037D01*
X930020Y610479D01*
X930365Y613100D01*
X930020Y615721D01*
X929008Y618163D01*
X927399Y620261D01*
X925302Y621870D01*
X922859Y622882D01*
X920238Y623227D01*
D02*
G37*
G36*
X1190240Y597492D02*
Y590240D01*
X1197492D01*
X1197482Y590321D01*
X1196470Y592763D01*
X1194861Y594861D01*
X1192764Y596470D01*
X1190321Y597482D01*
X1190240Y597492D01*
D02*
G37*
G36*
X1185160Y597492D02*
X1185079Y597482D01*
X1182637Y596470D01*
X1180539Y594861D01*
X1178930Y592763D01*
X1177919Y590321D01*
X1177908Y590240D01*
X1185160D01*
Y597492D01*
D02*
G37*
G36*
Y585160D02*
X1177908D01*
X1177919Y585079D01*
X1178930Y582637D01*
X1180539Y580539D01*
X1182637Y578930D01*
X1185079Y577918D01*
X1185160Y577908D01*
Y585160D01*
D02*
G37*
G36*
X1197492D02*
X1190240D01*
Y577908D01*
X1190321Y577918D01*
X1192764Y578930D01*
X1194861Y580539D01*
X1196470Y582637D01*
X1197482Y585079D01*
X1197492Y585160D01*
D02*
G37*
G36*
X920238Y597827D02*
X917617Y597482D01*
X915175Y596470D01*
X913078Y594861D01*
X911468Y592763D01*
X910457Y590321D01*
X910112Y587700D01*
X910457Y585079D01*
X911468Y582637D01*
X913078Y580540D01*
X915175Y578930D01*
X917617Y577919D01*
X920238Y577574D01*
X922859Y577919D01*
X925302Y578930D01*
X927399Y580540D01*
X929008Y582637D01*
X930020Y585079D01*
X930365Y587700D01*
X930020Y590321D01*
X929008Y592763D01*
X927399Y594861D01*
X925302Y596470D01*
X922859Y597482D01*
X920238Y597827D01*
D02*
G37*
G36*
X1162300Y597827D02*
X1159679Y597482D01*
X1157237Y596470D01*
X1155139Y594861D01*
X1153530Y592763D01*
X1152519Y590321D01*
X1152173Y587700D01*
X1152519Y585079D01*
X1153530Y582637D01*
X1155139Y580539D01*
X1157237Y578930D01*
X1159679Y577918D01*
X1162300Y577573D01*
X1164921Y577918D01*
X1167364Y578930D01*
X1169461Y580539D01*
X1171070Y582637D01*
X1172082Y585079D01*
X1172427Y587700D01*
X1172082Y590321D01*
X1171070Y592763D01*
X1169461Y594861D01*
X1167364Y596470D01*
X1164921Y597482D01*
X1162300Y597827D01*
D02*
G37*
G36*
X920238Y572427D02*
X917617Y572082D01*
X915175Y571070D01*
X913078Y569461D01*
X911468Y567363D01*
X910457Y564921D01*
X910112Y562300D01*
X910457Y559679D01*
X911468Y557237D01*
X913078Y555140D01*
X915175Y553530D01*
X917617Y552519D01*
X920238Y552174D01*
X922859Y552519D01*
X925302Y553530D01*
X927399Y555140D01*
X929008Y557237D01*
X930020Y559679D01*
X930365Y562300D01*
X930020Y564921D01*
X929008Y567363D01*
X927399Y569461D01*
X925302Y571070D01*
X922859Y572082D01*
X920238Y572427D01*
D02*
G37*
G36*
X1187700Y572427D02*
X1185079Y572082D01*
X1182637Y571070D01*
X1180539Y569461D01*
X1178930Y567363D01*
X1177919Y564921D01*
X1177573Y562300D01*
X1177919Y559679D01*
X1178930Y557237D01*
X1180539Y555139D01*
X1182637Y553530D01*
X1185079Y552518D01*
X1187700Y552173D01*
X1190321Y552518D01*
X1192764Y553530D01*
X1194861Y555139D01*
X1196470Y557237D01*
X1197482Y559679D01*
X1197827Y562300D01*
X1197482Y564921D01*
X1196470Y567363D01*
X1194861Y569461D01*
X1192764Y571070D01*
X1190321Y572082D01*
X1187700Y572427D01*
D02*
G37*
G36*
X1162300D02*
X1159679Y572082D01*
X1157237Y571070D01*
X1155139Y569461D01*
X1153530Y567363D01*
X1152519Y564921D01*
X1152173Y562300D01*
X1152519Y559679D01*
X1153530Y557237D01*
X1155139Y555139D01*
X1157237Y553530D01*
X1159679Y552518D01*
X1162300Y552173D01*
X1164921Y552518D01*
X1167364Y553530D01*
X1169461Y555139D01*
X1171070Y557237D01*
X1172082Y559679D01*
X1172427Y562300D01*
X1172082Y564921D01*
X1171070Y567363D01*
X1169461Y569461D01*
X1167364Y571070D01*
X1164921Y572082D01*
X1162300Y572427D01*
D02*
G37*
G36*
X922778Y546692D02*
Y539440D01*
X930030D01*
X930020Y539521D01*
X929008Y541963D01*
X927399Y544061D01*
X925302Y545670D01*
X922859Y546682D01*
X922778Y546692D01*
D02*
G37*
G36*
X917698Y546692D02*
X917617Y546682D01*
X915175Y545670D01*
X913078Y544061D01*
X911468Y541963D01*
X910457Y539521D01*
X910446Y539440D01*
X917698D01*
Y546692D01*
D02*
G37*
G36*
Y534360D02*
X910446D01*
X910457Y534279D01*
X911468Y531837D01*
X913078Y529739D01*
X915175Y528130D01*
X917617Y527119D01*
X917698Y527108D01*
Y534360D01*
D02*
G37*
G36*
X930030D02*
X922778D01*
Y527108D01*
X922859Y527119D01*
X925302Y528130D01*
X927399Y529739D01*
X929008Y531837D01*
X930020Y534279D01*
X930030Y534360D01*
D02*
G37*
G36*
X1187700Y547027D02*
X1185079Y546682D01*
X1182637Y545670D01*
X1180539Y544061D01*
X1178930Y541963D01*
X1177919Y539521D01*
X1177573Y536900D01*
X1177919Y534279D01*
X1178930Y531837D01*
X1180539Y529739D01*
X1182637Y528130D01*
X1185079Y527118D01*
X1187700Y526773D01*
X1190321Y527118D01*
X1192764Y528130D01*
X1194861Y529739D01*
X1196470Y531837D01*
X1197482Y534279D01*
X1197827Y536900D01*
X1197482Y539521D01*
X1196470Y541963D01*
X1194861Y544061D01*
X1192764Y545670D01*
X1190321Y546682D01*
X1187700Y547027D01*
D02*
G37*
G36*
X1159760Y508960D02*
X1152508D01*
X1152519Y508879D01*
X1153530Y506437D01*
X1155139Y504339D01*
X1157237Y502730D01*
X1159679Y501718D01*
X1159760Y501708D01*
Y508960D01*
D02*
G37*
G36*
X1172092D02*
X1164840D01*
Y501708D01*
X1164921Y501718D01*
X1167364Y502730D01*
X1169461Y504339D01*
X1171070Y506437D01*
X1172082Y508879D01*
X1172092Y508960D01*
D02*
G37*
G36*
X1187700Y496227D02*
X1185079Y495882D01*
X1182637Y494870D01*
X1180539Y493261D01*
X1178930Y491163D01*
X1177919Y488721D01*
X1177573Y486100D01*
X1177919Y483479D01*
X1178930Y481037D01*
X1180539Y478939D01*
X1182637Y477330D01*
X1185079Y476318D01*
X1187700Y475973D01*
X1190321Y476318D01*
X1192764Y477330D01*
X1194861Y478939D01*
X1196470Y481037D01*
X1197482Y483479D01*
X1197827Y486100D01*
X1197482Y488721D01*
X1196470Y491163D01*
X1194861Y493261D01*
X1192764Y494870D01*
X1190321Y495882D01*
X1187700Y496227D01*
D02*
G37*
G36*
X1162300D02*
X1159679Y495882D01*
X1157237Y494870D01*
X1155139Y493261D01*
X1153530Y491163D01*
X1152519Y488721D01*
X1152173Y486100D01*
X1152519Y483479D01*
X1153530Y481037D01*
X1155139Y478939D01*
X1157237Y477330D01*
X1159679Y476318D01*
X1162300Y475973D01*
X1164921Y476318D01*
X1167364Y477330D01*
X1169461Y478939D01*
X1171070Y481037D01*
X1172082Y483479D01*
X1172427Y486100D01*
X1172082Y488721D01*
X1171070Y491163D01*
X1169461Y493261D01*
X1167364Y494870D01*
X1164921Y495882D01*
X1162300Y496227D01*
D02*
G37*
G36*
X1190240Y470492D02*
Y463240D01*
X1197492D01*
X1197482Y463321D01*
X1196470Y465763D01*
X1194861Y467861D01*
X1192764Y469470D01*
X1190321Y470482D01*
X1190240Y470492D01*
D02*
G37*
G36*
X1185160Y470492D02*
X1185079Y470482D01*
X1182637Y469470D01*
X1180539Y467861D01*
X1178930Y465763D01*
X1177919Y463321D01*
X1177908Y463240D01*
X1185160D01*
Y470492D01*
D02*
G37*
G36*
Y458160D02*
X1177908D01*
X1177919Y458079D01*
X1178930Y455637D01*
X1180539Y453539D01*
X1182637Y451930D01*
X1185079Y450918D01*
X1185160Y450908D01*
Y458160D01*
D02*
G37*
G36*
X1197492D02*
X1190240D01*
Y450908D01*
X1190321Y450918D01*
X1192764Y451930D01*
X1194861Y453539D01*
X1196470Y455637D01*
X1197482Y458079D01*
X1197492Y458160D01*
D02*
G37*
G36*
X1162300Y470827D02*
X1159679Y470482D01*
X1157237Y469470D01*
X1155139Y467861D01*
X1153530Y465763D01*
X1152519Y463321D01*
X1152173Y460700D01*
X1152519Y458079D01*
X1153530Y455637D01*
X1155139Y453539D01*
X1157237Y451930D01*
X1159679Y450918D01*
X1162300Y450573D01*
X1164921Y450918D01*
X1167364Y451930D01*
X1169461Y453539D01*
X1171070Y455637D01*
X1172082Y458079D01*
X1172427Y460700D01*
X1172082Y463321D01*
X1171070Y465763D01*
X1169461Y467861D01*
X1167364Y469470D01*
X1164921Y470482D01*
X1162300Y470827D01*
D02*
G37*
G36*
X1187700Y445427D02*
X1185079Y445082D01*
X1182637Y444070D01*
X1180539Y442461D01*
X1178930Y440363D01*
X1177919Y437921D01*
X1177573Y435300D01*
X1177899Y432824D01*
X1172755Y427679D01*
X1170709D01*
X1170082Y428950D01*
X1171070Y430237D01*
X1172082Y432679D01*
X1172427Y435300D01*
X1172082Y437921D01*
X1171070Y440363D01*
X1169461Y442461D01*
X1167364Y444070D01*
X1164921Y445082D01*
X1162300Y445427D01*
X1159679Y445082D01*
X1157237Y444070D01*
X1155139Y442461D01*
X1153530Y440363D01*
X1152519Y437921D01*
X1152173Y435300D01*
X1152519Y432679D01*
X1153530Y430237D01*
X1154518Y428950D01*
X1153892Y427679D01*
X1147500D01*
X1145518Y427285D01*
X1143838Y426162D01*
X1136338Y418662D01*
X1135215Y416982D01*
X1134820Y415000D01*
Y322145D01*
X1126155Y313479D01*
X1120181D01*
X1118661Y315461D01*
X1116563Y317070D01*
X1114121Y318082D01*
X1111500Y318427D01*
X1108879Y318082D01*
X1106437Y317070D01*
X1104339Y315461D01*
X1102730Y313363D01*
X1101718Y310921D01*
X1101373Y308300D01*
X1101718Y305679D01*
X1102730Y303237D01*
X1104339Y301139D01*
X1106437Y299530D01*
X1108879Y298518D01*
X1111500Y298173D01*
X1114121Y298518D01*
X1116563Y299530D01*
X1118661Y301139D01*
X1120181Y303120D01*
X1128300D01*
X1130282Y303515D01*
X1131963Y304638D01*
X1143662Y316338D01*
X1144785Y318018D01*
X1145180Y320000D01*
Y412854D01*
X1149645Y417321D01*
X1153738D01*
X1154364Y416050D01*
X1153530Y414963D01*
X1152519Y412521D01*
X1152173Y409900D01*
X1152519Y407279D01*
X1153530Y404837D01*
X1155139Y402739D01*
X1157237Y401130D01*
X1159679Y400118D01*
X1162300Y399773D01*
X1164921Y400118D01*
X1167364Y401130D01*
X1169461Y402739D01*
X1171070Y404837D01*
X1172082Y407279D01*
X1172427Y409900D01*
X1172082Y412521D01*
X1171070Y414963D01*
X1170236Y416050D01*
X1170862Y417321D01*
X1174900D01*
X1176882Y417715D01*
X1178563Y418838D01*
X1185224Y425499D01*
X1187700Y425173D01*
X1190321Y425518D01*
X1192764Y426530D01*
X1194861Y428139D01*
X1196470Y430237D01*
X1197482Y432679D01*
X1197827Y435300D01*
X1197482Y437921D01*
X1196470Y440363D01*
X1194861Y442461D01*
X1192764Y444070D01*
X1190321Y445082D01*
X1187700Y445427D01*
D02*
G37*
G36*
X1111500D02*
X1108879Y445082D01*
X1106437Y444070D01*
X1104339Y442461D01*
X1102730Y440363D01*
X1101718Y437921D01*
X1101373Y435300D01*
X1101718Y432679D01*
X1102730Y430237D01*
X1104339Y428139D01*
X1106437Y426530D01*
X1108879Y425518D01*
X1111500Y425173D01*
X1114121Y425518D01*
X1116563Y426530D01*
X1118661Y428139D01*
X1120270Y430237D01*
X1121282Y432679D01*
X1121627Y435300D01*
X1121282Y437921D01*
X1120270Y440363D01*
X1118661Y442461D01*
X1116563Y444070D01*
X1114121Y445082D01*
X1111500Y445427D01*
D02*
G37*
G36*
X1190240Y419692D02*
Y412440D01*
X1197492D01*
X1197482Y412521D01*
X1196470Y414963D01*
X1194861Y417061D01*
X1192764Y418670D01*
X1190321Y419682D01*
X1190240Y419692D01*
D02*
G37*
G36*
X1185160D02*
X1185079Y419682D01*
X1182637Y418670D01*
X1180539Y417061D01*
X1178930Y414963D01*
X1177919Y412521D01*
X1177908Y412440D01*
X1185160D01*
Y419692D01*
D02*
G37*
G36*
Y407360D02*
X1177908D01*
X1177919Y407279D01*
X1178930Y404837D01*
X1180539Y402739D01*
X1182637Y401130D01*
X1185079Y400118D01*
X1185160Y400108D01*
Y407360D01*
D02*
G37*
G36*
X1197492D02*
X1190240D01*
Y400108D01*
X1190321Y400118D01*
X1192764Y401130D01*
X1194861Y402739D01*
X1196470Y404837D01*
X1197482Y407279D01*
X1197492Y407360D01*
D02*
G37*
G36*
X1111500Y420027D02*
X1108879Y419682D01*
X1106437Y418670D01*
X1104339Y417061D01*
X1102730Y414963D01*
X1101718Y412521D01*
X1101373Y409900D01*
X1101718Y407279D01*
X1102730Y404837D01*
X1104339Y402739D01*
X1106437Y401130D01*
X1108879Y400118D01*
X1111500Y399773D01*
X1114121Y400118D01*
X1116563Y401130D01*
X1118661Y402739D01*
X1120270Y404837D01*
X1121282Y407279D01*
X1121627Y409900D01*
X1121282Y412521D01*
X1120270Y414963D01*
X1118661Y417061D01*
X1116563Y418670D01*
X1114121Y419682D01*
X1111500Y420027D01*
D02*
G37*
G36*
X1187700Y394627D02*
X1185079Y394282D01*
X1182637Y393270D01*
X1180539Y391661D01*
X1178930Y389563D01*
X1177919Y387121D01*
X1177573Y384500D01*
X1177919Y381879D01*
X1178930Y379437D01*
X1180539Y377339D01*
X1182637Y375730D01*
X1185079Y374718D01*
X1187700Y374373D01*
X1190321Y374718D01*
X1192764Y375730D01*
X1194861Y377339D01*
X1196470Y379437D01*
X1197482Y381879D01*
X1197827Y384500D01*
X1197482Y387121D01*
X1196470Y389563D01*
X1194861Y391661D01*
X1192764Y393270D01*
X1190321Y394282D01*
X1187700Y394627D01*
D02*
G37*
G36*
X1162300D02*
X1159679Y394282D01*
X1157237Y393270D01*
X1155139Y391661D01*
X1153530Y389563D01*
X1152519Y387121D01*
X1152173Y384500D01*
X1152519Y381879D01*
X1153530Y379437D01*
X1155139Y377339D01*
X1157237Y375730D01*
X1159679Y374718D01*
X1162300Y374373D01*
X1164921Y374718D01*
X1167364Y375730D01*
X1169461Y377339D01*
X1171070Y379437D01*
X1172082Y381879D01*
X1172427Y384500D01*
X1172082Y387121D01*
X1171070Y389563D01*
X1169461Y391661D01*
X1167364Y393270D01*
X1164921Y394282D01*
X1162300Y394627D01*
D02*
G37*
G36*
X1111500D02*
X1108879Y394282D01*
X1106437Y393270D01*
X1104339Y391661D01*
X1102730Y389563D01*
X1101718Y387121D01*
X1101373Y384500D01*
X1101718Y381879D01*
X1102730Y379437D01*
X1104339Y377339D01*
X1106437Y375730D01*
X1108879Y374718D01*
X1111500Y374373D01*
X1114121Y374718D01*
X1116563Y375730D01*
X1118661Y377339D01*
X1120270Y379437D01*
X1121282Y381879D01*
X1121627Y384500D01*
X1121282Y387121D01*
X1120270Y389563D01*
X1118661Y391661D01*
X1116563Y393270D01*
X1114121Y394282D01*
X1111500Y394627D01*
D02*
G37*
G36*
X1187700Y369227D02*
X1185079Y368882D01*
X1182637Y367870D01*
X1180539Y366261D01*
X1178930Y364163D01*
X1177919Y361721D01*
X1177573Y359100D01*
X1177919Y356479D01*
X1178930Y354037D01*
X1180539Y351939D01*
X1182637Y350330D01*
X1185079Y349318D01*
X1187700Y348973D01*
X1190321Y349318D01*
X1192764Y350330D01*
X1194861Y351939D01*
X1196470Y354037D01*
X1197482Y356479D01*
X1197827Y359100D01*
X1197482Y361721D01*
X1196470Y364163D01*
X1194861Y366261D01*
X1192764Y367870D01*
X1190321Y368882D01*
X1187700Y369227D01*
D02*
G37*
G36*
X1162300D02*
X1159679Y368882D01*
X1157237Y367870D01*
X1155139Y366261D01*
X1153530Y364163D01*
X1152519Y361721D01*
X1152173Y359100D01*
X1152519Y356479D01*
X1153530Y354037D01*
X1155139Y351939D01*
X1157237Y350330D01*
X1159679Y349318D01*
X1162300Y348973D01*
X1164921Y349318D01*
X1167364Y350330D01*
X1169461Y351939D01*
X1171070Y354037D01*
X1172082Y356479D01*
X1172427Y359100D01*
X1172082Y361721D01*
X1171070Y364163D01*
X1169461Y366261D01*
X1167364Y367870D01*
X1164921Y368882D01*
X1162300Y369227D01*
D02*
G37*
G36*
X1111500D02*
X1108879Y368882D01*
X1106437Y367870D01*
X1104339Y366261D01*
X1102730Y364163D01*
X1101718Y361721D01*
X1101373Y359100D01*
X1101718Y356479D01*
X1102730Y354037D01*
X1104339Y351939D01*
X1106437Y350330D01*
X1108879Y349318D01*
X1111500Y348973D01*
X1114121Y349318D01*
X1116563Y350330D01*
X1118661Y351939D01*
X1120270Y354037D01*
X1121282Y356479D01*
X1121627Y359100D01*
X1121282Y361721D01*
X1120270Y364163D01*
X1118661Y366261D01*
X1116563Y367870D01*
X1114121Y368882D01*
X1111500Y369227D01*
D02*
G37*
G36*
X736940Y352492D02*
Y345240D01*
X744192D01*
X744182Y345321D01*
X743170Y347763D01*
X741561Y349861D01*
X739463Y351470D01*
X737021Y352482D01*
X736940Y352492D01*
D02*
G37*
G36*
X731860D02*
X731779Y352482D01*
X729337Y351470D01*
X727239Y349861D01*
X725630Y347763D01*
X724618Y345321D01*
X724608Y345240D01*
X731860D01*
Y352492D01*
D02*
G37*
G36*
X1164840Y343492D02*
Y336240D01*
X1172092D01*
X1172082Y336321D01*
X1171070Y338763D01*
X1169461Y340861D01*
X1167364Y342470D01*
X1164921Y343482D01*
X1164840Y343492D01*
D02*
G37*
G36*
X1159760D02*
X1159679Y343482D01*
X1157237Y342470D01*
X1155139Y340861D01*
X1153530Y338763D01*
X1152519Y336321D01*
X1152508Y336240D01*
X1159760D01*
Y343492D01*
D02*
G37*
G36*
X744192Y340160D02*
X736940D01*
Y332908D01*
X737021Y332918D01*
X739463Y333930D01*
X741561Y335539D01*
X743170Y337637D01*
X744182Y340079D01*
X744192Y340160D01*
D02*
G37*
G36*
X731860D02*
X724608D01*
X724618Y340079D01*
X725630Y337637D01*
X727239Y335539D01*
X729337Y333930D01*
X731779Y332918D01*
X731860Y332908D01*
Y340160D01*
D02*
G37*
G36*
X836000Y352827D02*
X833379Y352482D01*
X830937Y351470D01*
X828839Y349861D01*
X827230Y347763D01*
X826218Y345321D01*
X825873Y342700D01*
X826218Y340079D01*
X827230Y337637D01*
X828839Y335539D01*
X830937Y333930D01*
X833379Y332918D01*
X836000Y332573D01*
X838621Y332918D01*
X841063Y333930D01*
X843161Y335539D01*
X844770Y337637D01*
X845782Y340079D01*
X846127Y342700D01*
X845782Y345321D01*
X844770Y347763D01*
X843161Y349861D01*
X841063Y351470D01*
X838621Y352482D01*
X836000Y352827D01*
D02*
G37*
G36*
X810600D02*
X807979Y352482D01*
X805537Y351470D01*
X803439Y349861D01*
X801830Y347763D01*
X800818Y345321D01*
X800473Y342700D01*
X800818Y340079D01*
X801830Y337637D01*
X803439Y335539D01*
X805537Y333930D01*
X807979Y332918D01*
X810600Y332573D01*
X813221Y332918D01*
X815663Y333930D01*
X817761Y335539D01*
X819370Y337637D01*
X820382Y340079D01*
X820727Y342700D01*
X820382Y345321D01*
X819370Y347763D01*
X817761Y349861D01*
X815663Y351470D01*
X813221Y352482D01*
X810600Y352827D01*
D02*
G37*
G36*
X759800D02*
X757179Y352482D01*
X754737Y351470D01*
X752639Y349861D01*
X751030Y347763D01*
X750018Y345321D01*
X749673Y342700D01*
X750018Y340079D01*
X751030Y337637D01*
X752639Y335539D01*
X754737Y333930D01*
X757179Y332918D01*
X759800Y332573D01*
X762421Y332918D01*
X764863Y333930D01*
X766961Y335539D01*
X768570Y337637D01*
X769582Y340079D01*
X769927Y342700D01*
X769582Y345321D01*
X768570Y347763D01*
X766961Y349861D01*
X764863Y351470D01*
X762421Y352482D01*
X759800Y352827D01*
D02*
G37*
G36*
X1159760Y331160D02*
X1152508D01*
X1152519Y331079D01*
X1153530Y328637D01*
X1155139Y326539D01*
X1157237Y324930D01*
X1159679Y323918D01*
X1159760Y323908D01*
Y331160D01*
D02*
G37*
G36*
X1172092D02*
X1164840D01*
Y323908D01*
X1164921Y323918D01*
X1167364Y324930D01*
X1169461Y326539D01*
X1171070Y328637D01*
X1172082Y331079D01*
X1172092Y331160D01*
D02*
G37*
G36*
X1187700Y343827D02*
X1185079Y343482D01*
X1182637Y342470D01*
X1180539Y340861D01*
X1178930Y338763D01*
X1177919Y336321D01*
X1177573Y333700D01*
X1177919Y331079D01*
X1178930Y328637D01*
X1180539Y326539D01*
X1182637Y324930D01*
X1185079Y323918D01*
X1187700Y323573D01*
X1190321Y323918D01*
X1192764Y324930D01*
X1194861Y326539D01*
X1196470Y328637D01*
X1197482Y331079D01*
X1197827Y333700D01*
X1197482Y336321D01*
X1196470Y338763D01*
X1194861Y340861D01*
X1192764Y342470D01*
X1190321Y343482D01*
X1187700Y343827D01*
D02*
G37*
G36*
X1111500D02*
X1108879Y343482D01*
X1106437Y342470D01*
X1104339Y340861D01*
X1102730Y338763D01*
X1101718Y336321D01*
X1101373Y333700D01*
X1101718Y331079D01*
X1102730Y328637D01*
X1104339Y326539D01*
X1106437Y324930D01*
X1108879Y323918D01*
X1111500Y323573D01*
X1114121Y323918D01*
X1116563Y324930D01*
X1118661Y326539D01*
X1120270Y328637D01*
X1121282Y331079D01*
X1121627Y333700D01*
X1121282Y336321D01*
X1120270Y338763D01*
X1118661Y340861D01*
X1116563Y342470D01*
X1114121Y343482D01*
X1111500Y343827D01*
D02*
G37*
G36*
X736940Y327092D02*
Y319840D01*
X744192D01*
X744182Y319921D01*
X743170Y322363D01*
X741561Y324461D01*
X739463Y326070D01*
X737021Y327082D01*
X736940Y327092D01*
D02*
G37*
G36*
X731860D02*
X731779Y327082D01*
X729337Y326070D01*
X727239Y324461D01*
X725630Y322363D01*
X724618Y319921D01*
X724608Y319840D01*
X731860D01*
Y327092D01*
D02*
G37*
G36*
X744192Y314760D02*
X736940D01*
Y307508D01*
X737021Y307518D01*
X739463Y308530D01*
X741561Y310139D01*
X743170Y312237D01*
X744182Y314679D01*
X744192Y314760D01*
D02*
G37*
G36*
X731860D02*
X724608D01*
X724618Y314679D01*
X725630Y312237D01*
X727239Y310139D01*
X729337Y308530D01*
X731779Y307518D01*
X731860Y307508D01*
Y314760D01*
D02*
G37*
G36*
X1121540Y292940D02*
X1114040D01*
Y285440D01*
X1121540D01*
Y292940D01*
D02*
G37*
G36*
X1108960D02*
X1101460D01*
Y285440D01*
X1108960D01*
Y292940D01*
D02*
G37*
G36*
X1121540Y280360D02*
X1114040D01*
Y272860D01*
X1121540D01*
Y280360D01*
D02*
G37*
G36*
X1108960D02*
X1101460D01*
Y272860D01*
X1108960D01*
Y280360D01*
D02*
G37*
%LPD*%
D12*
X1187700Y333700D02*
D03*
X1162300D02*
D03*
X1187700Y359100D02*
D03*
X1162300D02*
D03*
X1187700Y384500D02*
D03*
X1162300D02*
D03*
X1187700Y409900D02*
D03*
X1162300D02*
D03*
X1187700Y435300D02*
D03*
X1162300D02*
D03*
X1187700Y460700D02*
D03*
X1162300D02*
D03*
X1187700Y486100D02*
D03*
X1162300D02*
D03*
X1187700Y511500D02*
D03*
X1162300D02*
D03*
X1187700Y536900D02*
D03*
X1162300D02*
D03*
X1187700Y562300D02*
D03*
X1162300D02*
D03*
X1187700Y587700D02*
D03*
X1162300D02*
D03*
X1187700Y613100D02*
D03*
X1162300D02*
D03*
X1187700Y638500D02*
D03*
X1162300D02*
D03*
X1187700Y663900D02*
D03*
X1162300D02*
D03*
X1187700Y689300D02*
D03*
X1162300D02*
D03*
X1187700Y714700D02*
D03*
X1162300D02*
D03*
X1187700Y740100D02*
D03*
X1162300D02*
D03*
X1187700Y765500D02*
D03*
X1162300D02*
D03*
X1187700Y816300D02*
D03*
X1162300Y790900D02*
D03*
X1187700D02*
D03*
X734400Y317300D02*
D03*
Y342700D02*
D03*
X709000Y317300D02*
D03*
X759800Y342700D02*
D03*
Y317300D02*
D03*
X785200Y342700D02*
D03*
Y317300D02*
D03*
X810600Y342700D02*
D03*
Y317300D02*
D03*
X836000Y342700D02*
D03*
Y317300D02*
D03*
X1050000Y842100D02*
D03*
Y816700D02*
D03*
Y791300D02*
D03*
X1111500Y384500D02*
D03*
Y359100D02*
D03*
Y333700D02*
D03*
Y308300D02*
D03*
Y409900D02*
D03*
Y435300D02*
D03*
Y460700D02*
D03*
X920238Y638500D02*
D03*
Y536900D02*
D03*
Y562300D02*
D03*
Y587700D02*
D03*
Y613100D02*
D03*
X920000Y694600D02*
D03*
X1015000Y842100D02*
D03*
X1085000D02*
D03*
Y816700D02*
D03*
Y791300D02*
D03*
X1120000Y867500D02*
D03*
D19*
X1144500Y765500D02*
X1162300D01*
X1118700Y791300D02*
X1144500Y765500D01*
X1085000Y791300D02*
X1118700D01*
X1144100Y790900D02*
X1162300D01*
X1118300Y816700D02*
X1144100Y790900D01*
X1085000Y816700D02*
X1118300D01*
X920000Y720000D02*
X935000Y705000D01*
X1045100Y740100D02*
X1162300D01*
X935000Y705000D02*
X1010000D01*
X1045100Y740100D01*
X920000Y694600D02*
X1122900D01*
X1147500Y670000D01*
Y635000D02*
Y670000D01*
Y635000D02*
X1157500Y625000D01*
X1175800D01*
X1187700Y613100D01*
X1151700Y602500D02*
X1162300Y613100D01*
X1110000Y602500D02*
X1151700D01*
X1092500Y585000D02*
X1110000Y602500D01*
X1092500Y477555D02*
Y585000D01*
X1048720Y401220D02*
Y433775D01*
X1092500Y477555D01*
D20*
X1067500Y780000D02*
Y827500D01*
X1082100Y842100D01*
X1085000D01*
X995000Y812500D02*
Y822100D01*
X975000Y792500D02*
X995000Y812500D01*
X960000Y792500D02*
X975000D01*
X950000Y762500D02*
Y782500D01*
X960000Y792500D01*
X995000Y822100D02*
X1015000Y842100D01*
X1085000D02*
X1120000D01*
X1153878Y831122D02*
X1181378D01*
X1137500Y847500D02*
X1153878Y831122D01*
X1137500Y847500D02*
Y862500D01*
X1132500Y867500D02*
X1137500Y862500D01*
X1120000Y867500D02*
X1132500D01*
X1181378Y831122D02*
X1187700Y824800D01*
Y816300D02*
Y824800D01*
Y790900D02*
Y816300D01*
X972500Y737500D02*
X1000000D01*
X1030000Y767500D01*
Y822100D01*
X1050000Y842100D01*
X1007500Y720000D02*
X1050000Y762500D01*
X950000Y720000D02*
X1007500D01*
X1050000Y762500D02*
X1067500Y780000D01*
X709000Y317300D02*
Y342700D01*
Y369000D01*
Y317300D02*
X757415Y268885D01*
X1016385D01*
X1090000Y342500D01*
Y439200D01*
X1111500Y460700D01*
X920238Y511500D02*
X944000D01*
X709000Y369000D02*
X740000Y400000D01*
X905000D01*
X945000Y440000D01*
Y552500D02*
X997500Y605000D01*
X945000Y440000D02*
Y552500D01*
D21*
X759800Y295200D02*
Y317300D01*
X785200Y297420D02*
Y317300D01*
Y297420D02*
X797860Y284760D01*
X759800Y295200D02*
X777860Y277140D01*
X810600Y299400D02*
Y317300D01*
Y299400D02*
X817620Y292380D01*
X836000Y306500D02*
Y317300D01*
Y306500D02*
X842500Y300000D01*
X1119998Y679999D02*
X1120484D01*
X1128647Y611147D02*
X1140000Y622500D01*
Y660483D01*
X1120484Y679999D02*
X1140000Y660483D01*
X1124734Y619570D02*
X1132380Y627216D01*
Y651620D01*
X1120000Y664000D02*
X1132380Y651620D01*
X1142500Y556700D02*
Y562500D01*
Y556700D02*
X1162300Y536900D01*
X1143180Y524320D02*
X1174880D01*
X1187700Y511500D01*
X785200Y342700D02*
X815000Y372500D01*
X1131467Y573533D02*
X1142500Y562500D01*
X1107500Y560000D02*
X1143180Y524320D01*
X1107500Y560000D02*
Y585000D01*
X1111500Y308300D02*
X1128300D01*
X1140000Y320000D01*
Y415000D01*
X1147500Y422500D01*
X1174900D01*
X1187700Y435300D01*
X1106147Y611147D02*
X1128647D01*
X1102070Y619570D02*
X1124734D01*
X1101000Y631000D02*
X1120000D01*
X1104999Y647499D02*
X1119998D01*
X1062500Y605000D02*
X1104999Y647499D01*
X1070120Y600120D02*
X1101000Y631000D01*
X1077740Y595240D02*
X1102070Y619570D01*
X1085360Y590360D02*
X1106147Y611147D01*
X1085360Y479755D02*
Y590360D01*
X777860Y277140D02*
X882745D01*
X1085360Y479755D01*
X797860Y284760D02*
X877260D01*
X1077740Y485240D01*
Y595240D01*
X817620Y292380D02*
X872380D01*
X1070120Y490120D01*
Y600120D01*
X1062500Y495000D02*
Y605000D01*
X842500Y300000D02*
X867500D01*
X1062500Y495000D01*
X815000Y372500D02*
X927500D01*
X1050000Y495000D01*
Y560000D01*
X1122500Y573533D02*
X1131467D01*
D23*
X1162300Y816300D02*
D03*
D24*
X1175000Y865000D02*
D03*
X685000Y285000D02*
D03*
X1175000D02*
D03*
D25*
X709000Y342700D02*
D03*
X1050000Y867500D02*
D03*
X1111500Y282900D02*
D03*
X920238Y511500D02*
D03*
X920000Y720000D02*
D03*
X1015000Y867500D02*
D03*
X1085000D02*
D03*
X1120000Y842100D02*
D03*
D26*
X950000Y822500D02*
D03*
D27*
X903000Y792500D02*
D03*
D28*
X950000Y762500D02*
D03*
D29*
Y720000D02*
D03*
X972500Y737500D02*
D03*
X1050000Y762500D02*
D03*
X1120000Y664000D02*
D03*
Y631000D02*
D03*
X1119998Y647499D02*
D03*
Y679999D02*
D03*
X1107500Y585000D02*
D03*
X1050000Y560000D02*
D03*
X1048720Y401220D02*
D03*
X997500Y605000D02*
D03*
X1122500Y573533D02*
D03*
M02*
