M48
;Layer_Color=9474304
;FILE_FORMAT=4:4
METRIC,LZ
;TYPE=PLATED
T1F00S00C0.7112
T2F00S00C0.9000
;TYPE=NON_PLATED
T4F00S00C2.7500
%
T01
X0104872Y0040122
X0105Y0056
X011075Y00585
X011225Y00573533
X0112Y00631
X01119998Y00647499
X0112Y00664
X01119998Y00679999
X0105Y007625
X009725Y007375
X0095Y0072
X009975Y00605
T02
X00709Y003173
X007344
Y003427
X00709
X007598
Y003173
X007852
Y003427
X008106
Y003173
X00836
Y003427
X011115Y003337
Y003591
Y003845
X011623
Y003591
Y003337
X011877
Y003591
Y003845
X011115Y003083
Y002829
Y004099
Y004353
Y004607
X011623
Y004353
Y004099
X011877
Y004353
Y004607
Y004861
X011623
Y005115
X011877
Y005369
X011623
Y005623
X011877
Y005877
X011623
Y006131
X011877
Y006385
X011623
Y006639
X011877
Y006893
X011623
Y007147
X011877
Y007401
X011623
Y007655
X011877
Y007909
X011623
X01085Y007913
X0105
X0092Y0072
Y006946
X00920238Y006385
Y006131
Y005877
Y005623
Y005369
Y005115
X01015Y008421
Y008675
X0105
Y008421
Y008167
X01085
Y008421
Y008675
X0112
Y008421
X011623Y008163
X011877
T04
X00685Y00285
X01175
Y00865
M30
