G04 Layer_Color=128*
%FSLAX44Y44*%
%MOMM*%
G71*
G01*
G75*
%ADD55C,0.0508*%
D55*
X1183200Y333700D02*
X1192200D01*
X1187700Y329200D02*
Y338200D01*
X1157800Y333700D02*
X1166800D01*
X1162300Y329200D02*
Y338200D01*
X1183200Y359100D02*
X1192200D01*
X1187700Y354600D02*
Y363600D01*
X1157800Y359100D02*
X1166800D01*
X1162300Y354600D02*
Y363600D01*
X1183200Y384500D02*
X1192200D01*
X1187700Y380000D02*
Y389000D01*
X1157800Y384500D02*
X1166800D01*
X1162300Y380000D02*
Y389000D01*
X1183200Y409900D02*
X1192200D01*
X1187700Y405400D02*
Y414400D01*
X1157800Y409900D02*
X1166800D01*
X1162300Y405400D02*
Y414400D01*
X1183200Y435300D02*
X1192200D01*
X1187700Y430800D02*
Y439800D01*
X1157800Y435300D02*
X1166800D01*
X1162300Y430800D02*
Y439800D01*
X1183200Y460700D02*
X1192200D01*
X1187700Y456200D02*
Y465200D01*
X1157800Y460700D02*
X1166800D01*
X1162300Y456200D02*
Y465200D01*
X1183200Y486100D02*
X1192200D01*
X1187700Y481600D02*
Y490600D01*
X1157800Y486100D02*
X1166800D01*
X1162300Y481600D02*
Y490600D01*
X1183200Y511500D02*
X1192200D01*
X1187700Y507000D02*
Y516000D01*
X1157800Y511500D02*
X1166800D01*
X1162300Y507000D02*
Y516000D01*
X1183200Y536900D02*
X1192200D01*
X1187700Y532400D02*
Y541400D01*
X1157800Y536900D02*
X1166800D01*
X1162300Y532400D02*
Y541400D01*
X1183200Y562300D02*
X1192200D01*
X1187700Y557800D02*
Y566800D01*
X1157800Y562300D02*
X1166800D01*
X1162300Y557800D02*
Y566800D01*
X1183200Y587700D02*
X1192200D01*
X1187700Y583200D02*
Y592200D01*
X1157800Y587700D02*
X1166800D01*
X1162300Y583200D02*
Y592200D01*
X1183200Y613100D02*
X1192200D01*
X1187700Y608600D02*
Y617600D01*
X1157800Y613100D02*
X1166800D01*
X1162300Y608600D02*
Y617600D01*
X1183200Y638500D02*
X1192200D01*
X1187700Y634000D02*
Y643000D01*
X1157800Y638500D02*
X1166800D01*
X1162300Y634000D02*
Y643000D01*
X1183200Y663900D02*
X1192200D01*
X1187700Y659400D02*
Y668400D01*
X1157800Y663900D02*
X1166800D01*
X1162300Y659400D02*
Y668400D01*
X1183200Y689300D02*
X1192200D01*
X1187700Y684800D02*
Y693800D01*
X1157800Y689300D02*
X1166800D01*
X1162300Y684800D02*
Y693800D01*
X1183200Y714700D02*
X1192200D01*
X1187700Y710200D02*
Y719200D01*
X1157800Y714700D02*
X1166800D01*
X1162300Y710200D02*
Y719200D01*
X1183200Y740100D02*
X1192200D01*
X1187700Y735600D02*
Y744600D01*
X1157800Y740100D02*
X1166800D01*
X1162300Y735600D02*
Y744600D01*
X1183200Y765500D02*
X1192200D01*
X1187700Y761000D02*
Y770000D01*
X1157800Y765500D02*
X1166800D01*
X1162300Y761000D02*
Y770000D01*
X1157800Y816300D02*
X1166800D01*
X1162300Y811800D02*
Y820800D01*
X1183200Y816300D02*
X1192200D01*
X1187700Y811800D02*
Y820800D01*
X1157800Y790900D02*
X1166800D01*
X1162300Y786400D02*
Y795400D01*
X1183200Y790900D02*
X1192200D01*
X1187700Y786400D02*
Y795400D01*
X1161250Y865000D02*
X1188750D01*
X1175000Y851250D02*
Y878750D01*
X671250Y285000D02*
X698750D01*
X685000Y271250D02*
Y298750D01*
X1161250Y285000D02*
X1188750D01*
X1175000Y271250D02*
Y298750D01*
X729900Y317300D02*
X738900D01*
X734400Y312800D02*
Y321800D01*
X729900Y342700D02*
X738900D01*
X734400Y338200D02*
Y347200D01*
X704500Y317300D02*
X713500D01*
X709000Y312800D02*
Y321800D01*
X704500Y342700D02*
X713500D01*
X709000Y338200D02*
Y347200D01*
X755300Y342700D02*
X764300D01*
X759800Y338200D02*
Y347200D01*
X755300Y317300D02*
X764300D01*
X759800Y312800D02*
Y321800D01*
X780700Y342700D02*
X789700D01*
X785200Y338200D02*
Y347200D01*
X780700Y317300D02*
X789700D01*
X785200Y312800D02*
Y321800D01*
X806100Y342700D02*
X815100D01*
X810600Y338200D02*
Y347200D01*
X806100Y317300D02*
X815100D01*
X810600Y312800D02*
Y321800D01*
X831500Y342700D02*
X840500D01*
X836000Y338200D02*
Y347200D01*
X831500Y317300D02*
X840500D01*
X836000Y312800D02*
Y321800D01*
X946000Y822500D02*
X954000D01*
X950000Y818500D02*
Y826500D01*
X899000Y792500D02*
X907000D01*
X903000Y788500D02*
Y796500D01*
X946000Y762500D02*
X954000D01*
X950000Y758500D02*
Y766500D01*
X1045500Y867500D02*
X1054500D01*
X1050000Y863000D02*
Y872000D01*
X1045500Y842100D02*
X1054500D01*
X1050000Y837600D02*
Y846600D01*
X1045500Y816700D02*
X1054500D01*
X1050000Y812200D02*
Y821200D01*
X1045500Y791300D02*
X1054500D01*
X1050000Y786800D02*
Y795800D01*
X1107000Y384500D02*
X1116000D01*
X1111500Y380000D02*
Y389000D01*
X1107000Y359100D02*
X1116000D01*
X1111500Y354600D02*
Y363600D01*
X1107000Y333700D02*
X1116000D01*
X1111500Y329200D02*
Y338200D01*
X1107000Y308300D02*
X1116000D01*
X1111500Y303800D02*
Y312800D01*
X1107000Y282900D02*
X1116000D01*
X1111500Y278400D02*
Y287400D01*
X1107000Y409900D02*
X1116000D01*
X1111500Y405400D02*
Y414400D01*
X1107000Y435300D02*
X1116000D01*
X1111500Y430800D02*
Y439800D01*
X1107000Y460700D02*
X1116000D01*
X1111500Y456200D02*
Y465200D01*
X915738Y638500D02*
X924738D01*
X920238Y634000D02*
Y643000D01*
X915738Y511500D02*
X924738D01*
X920238Y507000D02*
Y516000D01*
X915738Y536900D02*
X924738D01*
X920238Y532400D02*
Y541400D01*
X915738Y562300D02*
X924738D01*
X920238Y557800D02*
Y566800D01*
X915738Y587700D02*
X924738D01*
X920238Y583200D02*
Y592200D01*
X915738Y613100D02*
X924738D01*
X920238Y608600D02*
Y617600D01*
X915500Y720000D02*
X924500D01*
X920000Y715500D02*
Y724500D01*
X915500Y694600D02*
X924500D01*
X920000Y690100D02*
Y699100D01*
X1010500Y867500D02*
X1019500D01*
X1015000Y863000D02*
Y872000D01*
X1010500Y842100D02*
X1019500D01*
X1015000Y837600D02*
Y846600D01*
X1080500Y867500D02*
X1089500D01*
X1085000Y863000D02*
Y872000D01*
X1080500Y842100D02*
X1089500D01*
X1085000Y837600D02*
Y846600D01*
X1080500Y816700D02*
X1089500D01*
X1085000Y812200D02*
Y821200D01*
X1080500Y791300D02*
X1089500D01*
X1085000Y786800D02*
Y795800D01*
X1115500Y842100D02*
X1124500D01*
X1120000Y837600D02*
Y846600D01*
X1115500Y867500D02*
X1124500D01*
X1120000Y863000D02*
Y872000D01*
X946444Y720000D02*
X953556D01*
X950000Y716444D02*
Y723556D01*
X968944Y737500D02*
X976056D01*
X972500Y733944D02*
Y741056D01*
X1046444Y762500D02*
X1053556D01*
X1050000Y758944D02*
Y766056D01*
X1116444Y664000D02*
X1123556D01*
X1120000Y660444D02*
Y667556D01*
X1116444Y631000D02*
X1123556D01*
X1120000Y627444D02*
Y634556D01*
X1116442Y647499D02*
X1123554D01*
X1119998Y643943D02*
Y651055D01*
X1116442Y679999D02*
X1123554D01*
X1119998Y676443D02*
Y683555D01*
X1103944Y585000D02*
X1111056D01*
X1107500Y581444D02*
Y588556D01*
X1046444Y560000D02*
X1053556D01*
X1050000Y556444D02*
Y563556D01*
X1045164Y401220D02*
X1052276D01*
X1048720Y397664D02*
Y404776D01*
X993944Y605000D02*
X1001056D01*
X997500Y601444D02*
Y608556D01*
X1118944Y573533D02*
X1126056D01*
X1122500Y569977D02*
Y577089D01*
M02*
