G04 Layer_Color=8388736*
%FSLAX44Y44*%
%MOMM*%
G71*
G01*
G75*
%ADD40R,1.0532X1.0032*%
%ADD41R,1.6032X1.2032*%
%ADD42C,1.7032*%
%ADD43R,1.2032X1.2032*%
%ADD44R,2.7032X1.9032*%
%ADD45R,3.7032X2.3532*%
%ADD46R,1.3032X2.3532*%
%ADD47R,1.3032X2.3532*%
%ADD48R,0.8532X1.9532*%
%ADD49R,1.7032X1.7032*%
%ADD50C,5.5948*%
%ADD51R,1.7032X1.7032*%
%ADD52O,4.7032X2.2032*%
%ADD53O,2.2032X4.7032*%
%ADD54O,5.2032X2.2032*%
D40*
X1032500Y695000D02*
D03*
Y679000D02*
D03*
X1062500Y695000D02*
D03*
Y679000D02*
D03*
X985410Y401220D02*
D03*
Y385220D02*
D03*
X1020410D02*
D03*
Y401220D02*
D03*
X1002910Y401220D02*
D03*
Y385220D02*
D03*
X1115000Y799000D02*
D03*
Y815000D02*
D03*
X1135000Y799000D02*
D03*
Y815000D02*
D03*
D41*
X1032498Y660501D02*
D03*
Y639502D02*
D03*
X1062498Y660501D02*
D03*
Y639502D02*
D03*
D42*
X917500Y305000D02*
D03*
X937500D02*
D03*
X1187700Y333700D02*
D03*
X1162300D02*
D03*
X1187700Y359100D02*
D03*
X1162300D02*
D03*
X1187700Y384500D02*
D03*
X1162300D02*
D03*
X1187700Y409900D02*
D03*
X1162300D02*
D03*
X1187700Y435300D02*
D03*
X1162300D02*
D03*
X1187700Y460700D02*
D03*
X1162300D02*
D03*
X1187700Y486100D02*
D03*
X1162300D02*
D03*
X1187700Y511500D02*
D03*
X1162300D02*
D03*
X1187700Y536900D02*
D03*
X1162300D02*
D03*
X1187700Y562300D02*
D03*
X1162300D02*
D03*
X1187700Y587700D02*
D03*
X1162300D02*
D03*
X1187700Y613100D02*
D03*
X1162300D02*
D03*
X1187700Y638500D02*
D03*
X1162300D02*
D03*
X1187700Y663900D02*
D03*
X1162300D02*
D03*
X1187700Y689300D02*
D03*
X1162300D02*
D03*
X1187700Y714700D02*
D03*
X1162300D02*
D03*
X1187700Y740100D02*
D03*
X1162300D02*
D03*
X1187700Y765500D02*
D03*
X1162300D02*
D03*
X1187700Y816300D02*
D03*
X1162300Y790900D02*
D03*
X1187700D02*
D03*
X734400Y317300D02*
D03*
Y342700D02*
D03*
X709000Y317300D02*
D03*
X759800Y342700D02*
D03*
Y317300D02*
D03*
X785200Y342700D02*
D03*
Y317300D02*
D03*
X810600Y342700D02*
D03*
Y317300D02*
D03*
X836000Y342700D02*
D03*
Y317300D02*
D03*
X1050000Y842100D02*
D03*
Y816700D02*
D03*
Y791300D02*
D03*
X1111500Y384500D02*
D03*
Y359100D02*
D03*
Y333700D02*
D03*
Y308300D02*
D03*
Y409900D02*
D03*
Y435300D02*
D03*
Y460700D02*
D03*
X920238Y638500D02*
D03*
Y536900D02*
D03*
Y562300D02*
D03*
Y587700D02*
D03*
Y613100D02*
D03*
X920000Y694600D02*
D03*
X1015000Y842100D02*
D03*
X1085000D02*
D03*
Y816700D02*
D03*
Y791300D02*
D03*
X1120000Y867500D02*
D03*
D43*
X955500Y362500D02*
D03*
X937500D02*
D03*
D44*
X1015000Y790000D02*
D03*
Y750000D02*
D03*
D45*
X972500Y634000D02*
D03*
D46*
X949500Y696000D02*
D03*
X995500D02*
D03*
D47*
X972500D02*
D03*
D48*
X1002960Y362050D02*
D03*
X990260D02*
D03*
X977560D02*
D03*
X1015660D02*
D03*
X977560Y306050D02*
D03*
X990260D02*
D03*
X1002960D02*
D03*
X1015660D02*
D03*
D49*
X1162300Y816300D02*
D03*
D50*
X1175000Y865000D02*
D03*
X685000Y285000D02*
D03*
X1175000D02*
D03*
D51*
X709000Y342700D02*
D03*
X1050000Y867500D02*
D03*
X1111500Y282900D02*
D03*
X920238Y511500D02*
D03*
X920000Y720000D02*
D03*
X1015000Y867500D02*
D03*
X1085000D02*
D03*
X1120000Y842100D02*
D03*
D52*
X950000Y822500D02*
D03*
D53*
X903000Y792500D02*
D03*
D54*
X950000Y762500D02*
D03*
M02*
