G04 Layer_Physical_Order=1*
G04 Layer_Color=255*
%FSLAX44Y44*%
%MOMM*%
G71*
G01*
G75*
%ADD10R,0.8500X0.8000*%
%ADD11R,1.4000X1.0000*%
%ADD12C,1.5000*%
%ADD13R,1.0000X1.0000*%
%ADD14R,2.5000X1.7000*%
%ADD15R,3.5000X2.1500*%
%ADD16R,1.1000X2.1500*%
%ADD17R,1.1000X2.1500*%
%ADD18R,0.6500X1.7500*%
%ADD19C,0.3048*%
%ADD20C,0.6350*%
%ADD21C,0.5080*%
%ADD22C,0.2032*%
%ADD23R,1.5000X1.5000*%
%ADD24C,2.7500*%
%ADD25R,1.5000X1.5000*%
%ADD26O,4.5000X2.0000*%
%ADD27O,2.0000X4.5000*%
%ADD28O,5.0000X2.0000*%
%ADD29C,1.2700*%
G36*
X1160984Y895000D02*
X1161489Y892460D01*
X1161092Y892296D01*
X1156993Y889784D01*
X1153338Y886662D01*
X1150216Y883007D01*
X1147704Y878908D01*
X1145865Y874467D01*
X1144743Y869792D01*
X1144366Y865000D01*
X1144743Y860208D01*
X1145865Y855533D01*
X1147704Y851092D01*
X1150216Y846993D01*
X1153338Y843338D01*
X1156993Y840216D01*
X1161092Y837704D01*
X1165534Y835865D01*
X1170208Y834743D01*
X1175000Y834366D01*
X1179792Y834743D01*
X1184467Y835865D01*
X1188908Y837704D01*
X1193007Y840216D01*
X1196662Y843338D01*
X1199784Y846993D01*
X1202296Y851092D01*
X1202460Y851489D01*
X1205000Y850984D01*
X1205000Y299016D01*
X1202460Y298511D01*
X1202296Y298908D01*
X1199784Y303006D01*
X1196662Y306662D01*
X1193007Y309784D01*
X1188908Y312295D01*
X1184467Y314135D01*
X1179792Y315257D01*
X1175000Y315634D01*
X1170208Y315257D01*
X1165534Y314135D01*
X1161092Y312295D01*
X1156993Y309784D01*
X1153338Y306662D01*
X1150216Y303006D01*
X1147704Y298908D01*
X1145865Y294466D01*
X1144743Y289792D01*
X1144366Y285000D01*
X1144743Y280208D01*
X1145865Y275533D01*
X1147704Y271092D01*
X1150216Y266994D01*
X1153338Y263338D01*
X1156993Y260216D01*
X1161092Y257705D01*
X1161489Y257540D01*
X1160984Y255000D01*
X699020Y255002D01*
X698514Y257542D01*
X698908Y257705D01*
X703007Y260216D01*
X706662Y263338D01*
X709784Y266994D01*
X712296Y271092D01*
X714135Y275533D01*
X715257Y280208D01*
X715634Y285000D01*
X715257Y289792D01*
X714135Y294466D01*
X712296Y298908D01*
X709784Y303006D01*
X708339Y304699D01*
X708655Y305883D01*
X709508Y307240D01*
X711621Y307518D01*
X714063Y308530D01*
X716161Y310139D01*
X717770Y312237D01*
X718782Y314679D01*
X719127Y317300D01*
X718782Y319921D01*
X717770Y322363D01*
X716161Y324461D01*
X714063Y326070D01*
X711621Y327082D01*
X709000Y327427D01*
X706379Y327082D01*
X703937Y326070D01*
X701839Y324461D01*
X700230Y322363D01*
X699218Y319921D01*
X698873Y317300D01*
X699185Y314930D01*
X698604Y314185D01*
X697156Y313021D01*
X694467Y314135D01*
X689792Y315257D01*
X685000Y315634D01*
X680208Y315257D01*
X675533Y314135D01*
X671092Y312295D01*
X666993Y309784D01*
X663338Y306662D01*
X660216Y303006D01*
X657704Y298908D01*
X657540Y298510D01*
X655000Y299016D01*
X655000Y435000D01*
X885000D01*
X885000Y895000D01*
X1160984Y895000D01*
D02*
G37*
%LPC*%
G36*
X1095040Y877540D02*
X1087540D01*
Y870040D01*
X1095040D01*
Y877540D01*
D02*
G37*
G36*
X1082460D02*
X1074960D01*
Y870040D01*
X1082460D01*
Y877540D01*
D02*
G37*
G36*
X1060040D02*
X1052540D01*
Y870040D01*
X1060040D01*
Y877540D01*
D02*
G37*
G36*
X1047460D02*
X1039960D01*
Y870040D01*
X1047460D01*
Y877540D01*
D02*
G37*
G36*
X1025040D02*
X1017540D01*
Y870040D01*
X1025040D01*
Y877540D01*
D02*
G37*
G36*
X1012460D02*
X1004960D01*
Y870040D01*
X1012460D01*
Y877540D01*
D02*
G37*
G36*
X1095040Y864960D02*
X1087540D01*
Y857460D01*
X1095040D01*
Y864960D01*
D02*
G37*
G36*
X1082460D02*
X1074960D01*
Y857460D01*
X1082460D01*
Y864960D01*
D02*
G37*
G36*
X1060040D02*
X1052540D01*
Y857460D01*
X1060040D01*
Y864960D01*
D02*
G37*
G36*
X1047460D02*
X1039960D01*
Y857460D01*
X1047460D01*
Y864960D01*
D02*
G37*
G36*
X1025040D02*
X1017540D01*
Y857460D01*
X1025040D01*
Y864960D01*
D02*
G37*
G36*
X1012460D02*
X1004960D01*
Y857460D01*
X1012460D01*
Y864960D01*
D02*
G37*
G36*
X1120000Y877627D02*
X1117379Y877282D01*
X1114937Y876270D01*
X1112839Y874661D01*
X1111230Y872563D01*
X1110218Y870121D01*
X1109873Y867500D01*
X1110218Y864879D01*
X1111230Y862437D01*
X1112839Y860339D01*
X1114937Y858730D01*
X1117379Y857718D01*
X1120000Y857373D01*
X1122621Y857718D01*
X1125063Y858730D01*
X1127161Y860339D01*
X1128770Y862437D01*
X1129782Y864879D01*
X1130127Y867500D01*
X1129782Y870121D01*
X1128770Y872563D01*
X1127161Y874661D01*
X1125063Y876270D01*
X1122621Y877282D01*
X1120000Y877627D01*
D02*
G37*
G36*
X1085000Y852227D02*
X1082379Y851882D01*
X1079937Y850870D01*
X1077839Y849261D01*
X1076230Y847163D01*
X1075219Y844721D01*
X1074873Y842100D01*
X1075219Y839479D01*
X1076230Y837037D01*
X1076501Y836684D01*
X1075248Y834144D01*
X1063816D01*
X1059401Y838559D01*
X1059782Y839479D01*
X1060127Y842100D01*
X1059782Y844721D01*
X1058770Y847163D01*
X1057161Y849261D01*
X1055063Y850870D01*
X1052621Y851882D01*
X1050000Y852227D01*
X1047379Y851882D01*
X1044937Y850870D01*
X1042839Y849261D01*
X1041230Y847163D01*
X1040219Y844721D01*
X1039873Y842100D01*
X1040219Y839479D01*
X1041230Y837037D01*
X1042839Y834939D01*
X1044937Y833330D01*
X1047379Y832318D01*
X1050000Y831973D01*
X1052621Y832318D01*
X1053541Y832699D01*
X1059170Y827070D01*
X1060514Y826172D01*
X1062100Y825856D01*
X1076282D01*
X1076829Y825156D01*
X1077422Y823316D01*
X1076230Y821763D01*
X1075219Y819321D01*
X1074873Y816700D01*
X1075219Y814079D01*
X1076230Y811637D01*
X1077839Y809539D01*
X1079937Y807930D01*
X1082379Y806918D01*
X1085000Y806573D01*
X1087621Y806918D01*
X1090063Y807930D01*
X1092161Y809539D01*
X1093770Y811637D01*
X1094782Y814079D01*
X1095127Y816700D01*
X1094941Y818106D01*
X1097347Y819293D01*
X1104570Y812070D01*
X1105914Y811172D01*
X1107500Y810856D01*
X1108210D01*
Y808460D01*
X1121790D01*
Y810856D01*
X1128210D01*
Y808460D01*
X1141790D01*
Y821540D01*
X1128210D01*
Y819144D01*
X1121790D01*
Y821540D01*
X1108210D01*
Y821540D01*
X1107227Y821133D01*
X1095430Y832930D01*
X1094366Y833641D01*
X1094004Y834152D01*
X1093400Y836554D01*
X1093770Y837037D01*
X1094782Y839479D01*
X1095127Y842100D01*
X1094782Y844721D01*
X1093770Y847163D01*
X1092161Y849261D01*
X1090063Y850870D01*
X1087621Y851882D01*
X1085000Y852227D01*
D02*
G37*
G36*
X1130040Y852140D02*
X1109960D01*
Y832060D01*
X1130040D01*
Y852140D01*
D02*
G37*
G36*
X1015000Y852227D02*
X1012379Y851882D01*
X1009937Y850870D01*
X1007840Y849261D01*
X1006230Y847163D01*
X1005219Y844721D01*
X1004874Y842100D01*
X1005219Y839479D01*
X1006230Y837037D01*
X1007840Y834939D01*
X1009937Y833330D01*
X1012379Y832318D01*
X1015000Y831973D01*
X1017621Y832318D01*
X1020063Y833330D01*
X1022161Y834939D01*
X1023770Y837037D01*
X1024782Y839479D01*
X1025127Y842100D01*
X1024782Y844721D01*
X1023770Y847163D01*
X1022161Y849261D01*
X1020063Y850870D01*
X1017621Y851882D01*
X1015000Y852227D01*
D02*
G37*
G36*
X962500Y835148D02*
X952540D01*
Y825040D01*
X974814D01*
X974717Y825774D01*
X973454Y828824D01*
X971444Y831444D01*
X968824Y833454D01*
X965774Y834717D01*
X962500Y835148D01*
D02*
G37*
G36*
X947460D02*
X937500D01*
X934226Y834717D01*
X931176Y833454D01*
X928556Y831444D01*
X926546Y828824D01*
X925283Y825774D01*
X925186Y825040D01*
X947460D01*
Y835148D01*
D02*
G37*
G36*
X974814Y819960D02*
X952540D01*
Y809852D01*
X962500D01*
X965774Y810283D01*
X968824Y811546D01*
X971444Y813556D01*
X973454Y816176D01*
X974717Y819226D01*
X974814Y819960D01*
D02*
G37*
G36*
X947460D02*
X925186D01*
X925283Y819226D01*
X926546Y816176D01*
X928556Y813556D01*
X931176Y811546D01*
X934226Y810283D01*
X937500Y809852D01*
X947460D01*
Y819960D01*
D02*
G37*
G36*
X1172340Y826340D02*
X1152260D01*
Y806260D01*
X1172340D01*
Y826340D01*
D02*
G37*
G36*
X1187700Y826427D02*
X1185079Y826082D01*
X1182637Y825070D01*
X1180539Y823461D01*
X1178930Y821363D01*
X1177919Y818921D01*
X1177573Y816300D01*
X1177919Y813679D01*
X1178930Y811237D01*
X1180539Y809139D01*
X1182637Y807530D01*
X1185079Y806518D01*
X1187700Y806173D01*
X1190321Y806518D01*
X1192764Y807530D01*
X1194861Y809139D01*
X1196470Y811237D01*
X1197482Y813679D01*
X1197827Y816300D01*
X1197482Y818921D01*
X1196470Y821363D01*
X1194861Y823461D01*
X1192764Y825070D01*
X1190321Y826082D01*
X1187700Y826427D01*
D02*
G37*
G36*
X1050000Y826827D02*
X1047379Y826482D01*
X1044937Y825470D01*
X1042839Y823861D01*
X1041230Y821763D01*
X1040219Y819321D01*
X1039873Y816700D01*
X1040219Y814079D01*
X1041230Y811637D01*
X1042839Y809539D01*
X1044937Y807930D01*
X1047379Y806918D01*
X1050000Y806573D01*
X1052621Y806918D01*
X1053541Y807299D01*
X1063356Y797484D01*
Y787122D01*
X1061181Y786221D01*
X1059472Y787931D01*
X1059782Y788679D01*
X1060127Y791300D01*
X1059782Y793921D01*
X1058770Y796363D01*
X1057161Y798461D01*
X1055063Y800070D01*
X1052621Y801082D01*
X1050000Y801427D01*
X1047379Y801082D01*
X1044937Y800070D01*
X1042839Y798461D01*
X1041230Y796363D01*
X1040219Y793921D01*
X1039873Y791300D01*
X1040219Y788679D01*
X1041230Y786237D01*
X1042839Y784139D01*
X1044937Y782530D01*
X1047379Y781518D01*
X1050000Y781173D01*
X1052621Y781518D01*
X1053541Y781899D01*
X1110870Y724570D01*
X1112214Y723672D01*
X1113800Y723356D01*
X1153086D01*
X1154338Y720816D01*
X1153530Y719763D01*
X1152519Y717321D01*
X1152508Y717240D01*
X1162300D01*
X1172092D01*
X1172082Y717321D01*
X1171070Y719763D01*
X1170889Y719999D01*
X1172023Y722509D01*
X1173824Y722716D01*
X1178299Y718241D01*
X1177919Y717321D01*
X1177573Y714700D01*
X1177919Y712079D01*
X1178930Y709637D01*
X1180539Y707539D01*
X1182637Y705930D01*
X1185079Y704918D01*
X1187700Y704573D01*
X1190321Y704918D01*
X1192764Y705930D01*
X1194861Y707539D01*
X1196470Y709637D01*
X1197482Y712079D01*
X1197827Y714700D01*
X1197482Y717321D01*
X1196470Y719763D01*
X1194861Y721861D01*
X1192764Y723470D01*
X1190321Y724482D01*
X1187700Y724827D01*
X1185079Y724482D01*
X1184159Y724101D01*
X1177830Y730430D01*
X1176486Y731328D01*
X1174900Y731644D01*
X1171668D01*
X1170415Y734184D01*
X1171070Y735037D01*
X1172082Y737479D01*
X1172427Y740100D01*
X1172082Y742721D01*
X1171076Y745150D01*
X1171083Y745192D01*
X1172195Y747588D01*
X1174137Y747803D01*
X1178299Y743641D01*
X1177919Y742721D01*
X1177573Y740100D01*
X1177919Y737479D01*
X1178930Y735037D01*
X1180539Y732939D01*
X1182637Y731330D01*
X1185079Y730318D01*
X1187700Y729973D01*
X1190321Y730318D01*
X1192764Y731330D01*
X1194861Y732939D01*
X1196470Y735037D01*
X1197482Y737479D01*
X1197827Y740100D01*
X1197482Y742721D01*
X1196470Y745163D01*
X1194861Y747261D01*
X1192764Y748870D01*
X1190321Y749882D01*
X1187700Y750227D01*
X1185079Y749882D01*
X1184159Y749501D01*
X1178230Y755430D01*
X1176886Y756328D01*
X1175300Y756644D01*
X1171217D01*
X1170109Y759184D01*
X1171070Y760437D01*
X1172082Y762879D01*
X1172427Y765500D01*
X1172082Y768121D01*
X1171070Y770563D01*
X1169461Y772661D01*
X1167364Y774270D01*
X1164921Y775282D01*
X1162300Y775627D01*
X1159679Y775282D01*
X1158760Y774901D01*
X1149250Y784410D01*
X1150222Y786756D01*
X1153149D01*
X1153530Y785837D01*
X1155139Y783739D01*
X1157237Y782130D01*
X1159679Y781118D01*
X1162300Y780773D01*
X1164921Y781118D01*
X1167364Y782130D01*
X1169461Y783739D01*
X1171070Y785837D01*
X1172082Y788279D01*
X1172427Y790900D01*
X1172082Y793521D01*
X1171070Y795963D01*
X1169461Y798061D01*
X1167364Y799670D01*
X1164921Y800682D01*
X1162300Y801027D01*
X1159679Y800682D01*
X1157237Y799670D01*
X1155139Y798061D01*
X1153530Y795963D01*
X1153149Y795044D01*
X1141790D01*
Y805540D01*
X1128210D01*
Y792460D01*
X1128753D01*
X1129193Y791684D01*
X1127713Y789144D01*
X1123359D01*
X1121500Y791594D01*
X1121790Y792460D01*
X1121790D01*
Y805540D01*
X1108210D01*
Y792460D01*
X1110856D01*
Y790000D01*
X1111172Y788414D01*
X1112070Y787070D01*
X1117070Y782070D01*
X1118414Y781172D01*
X1120000Y780856D01*
X1141084D01*
X1152899Y769041D01*
X1152519Y768121D01*
X1152173Y765500D01*
X1152519Y762879D01*
X1153530Y760437D01*
X1154492Y759184D01*
X1153383Y756644D01*
X1099216D01*
X1071644Y784216D01*
Y799200D01*
X1071328Y800786D01*
X1070430Y802130D01*
X1059401Y813159D01*
X1059782Y814079D01*
X1060127Y816700D01*
X1059782Y819321D01*
X1058770Y821763D01*
X1057161Y823861D01*
X1055063Y825470D01*
X1052621Y826482D01*
X1050000Y826827D01*
D02*
G37*
G36*
X1085000Y801427D02*
X1082379Y801082D01*
X1079937Y800070D01*
X1077839Y798461D01*
X1076230Y796363D01*
X1075219Y793921D01*
X1074873Y791300D01*
X1075219Y788679D01*
X1076230Y786237D01*
X1077839Y784139D01*
X1079937Y782530D01*
X1082379Y781518D01*
X1085000Y781173D01*
X1087621Y781518D01*
X1090063Y782530D01*
X1092161Y784139D01*
X1093770Y786237D01*
X1094782Y788679D01*
X1095127Y791300D01*
X1094782Y793921D01*
X1093770Y796363D01*
X1092161Y798461D01*
X1090063Y800070D01*
X1087621Y801082D01*
X1085000Y801427D01*
D02*
G37*
G36*
X1187700Y801027D02*
X1185079Y800682D01*
X1182637Y799670D01*
X1180539Y798061D01*
X1178930Y795963D01*
X1177919Y793521D01*
X1177573Y790900D01*
X1177919Y788279D01*
X1178930Y785837D01*
X1180539Y783739D01*
X1182637Y782130D01*
X1185079Y781118D01*
X1187700Y780773D01*
X1190321Y781118D01*
X1192764Y782130D01*
X1194861Y783739D01*
X1196470Y785837D01*
X1197482Y788279D01*
X1197827Y790900D01*
X1197482Y793521D01*
X1196470Y795963D01*
X1194861Y798061D01*
X1192764Y799670D01*
X1190321Y800682D01*
X1187700Y801027D01*
D02*
G37*
G36*
X1190240Y775292D02*
Y768040D01*
X1197492D01*
X1197482Y768121D01*
X1196470Y770563D01*
X1194861Y772661D01*
X1192764Y774270D01*
X1190321Y775282D01*
X1190240Y775292D01*
D02*
G37*
G36*
X1185160Y775292D02*
X1185079Y775282D01*
X1182637Y774270D01*
X1180539Y772661D01*
X1178930Y770563D01*
X1177919Y768121D01*
X1177908Y768040D01*
X1185160D01*
Y775292D01*
D02*
G37*
G36*
X903000Y817648D02*
X899726Y817217D01*
X896676Y815954D01*
X894056Y813944D01*
X892046Y811324D01*
X890783Y808274D01*
X890352Y805000D01*
Y780000D01*
X890783Y776726D01*
X892046Y773676D01*
X894056Y771056D01*
X896676Y769046D01*
X899726Y767783D01*
X903000Y767352D01*
X906274Y767783D01*
X909324Y769046D01*
X911944Y771056D01*
X913954Y773676D01*
X915217Y776726D01*
X915648Y780000D01*
Y805000D01*
X915217Y808274D01*
X913954Y811324D01*
X911944Y813944D01*
X909324Y815954D01*
X906274Y817217D01*
X903000Y817648D01*
D02*
G37*
G36*
X1185160Y762960D02*
X1177908D01*
X1177919Y762879D01*
X1178930Y760437D01*
X1180539Y758339D01*
X1182637Y756730D01*
X1185079Y755718D01*
X1185160Y755708D01*
Y762960D01*
D02*
G37*
G36*
X1197492D02*
X1190240D01*
Y755708D01*
X1190321Y755718D01*
X1192764Y756730D01*
X1194861Y758339D01*
X1196470Y760437D01*
X1197482Y762879D01*
X1197492Y762960D01*
D02*
G37*
G36*
X965000Y775148D02*
X935000D01*
X931726Y774717D01*
X928676Y773454D01*
X926056Y771444D01*
X924046Y768824D01*
X922783Y765774D01*
X922352Y762500D01*
X922783Y759226D01*
X924046Y756176D01*
X926056Y753556D01*
X928676Y751546D01*
X931726Y750283D01*
X935000Y749852D01*
X965000D01*
X968274Y750283D01*
X971324Y751546D01*
X973944Y753556D01*
X975954Y756176D01*
X976160Y756673D01*
X985086D01*
X995880Y745880D01*
X997770Y744617D01*
X999960Y744181D01*
Y738960D01*
X1030040D01*
Y761040D01*
X999960D01*
Y761040D01*
X998009Y760232D01*
X991620Y766620D01*
X989730Y767883D01*
X987500Y768327D01*
X976160D01*
X975954Y768824D01*
X973944Y771444D01*
X971324Y773454D01*
X968274Y774717D01*
X965000Y775148D01*
D02*
G37*
G36*
X930040Y730040D02*
X909960D01*
Y709960D01*
X930040D01*
Y730040D01*
D02*
G37*
G36*
X1159760Y712160D02*
X1152508D01*
X1152519Y712079D01*
X1153530Y709637D01*
X1155139Y707539D01*
X1157237Y705930D01*
X1159679Y704918D01*
X1159760Y704908D01*
Y712160D01*
D02*
G37*
G36*
X1172092D02*
X1164840D01*
Y704908D01*
X1164921Y704918D01*
X1167364Y705930D01*
X1169461Y707539D01*
X1171070Y709637D01*
X1172082Y712079D01*
X1172092Y712160D01*
D02*
G37*
G36*
X1003540Y709290D02*
X998040D01*
Y698540D01*
X1003540D01*
Y709290D01*
D02*
G37*
G36*
X992960D02*
X987460D01*
Y698540D01*
X992960D01*
Y709290D01*
D02*
G37*
G36*
X1030040Y801040D02*
X999960D01*
Y778960D01*
X1009173D01*
Y775000D01*
X1009617Y772770D01*
X1010880Y770880D01*
X1015880Y765880D01*
X1017770Y764617D01*
X1020000Y764173D01*
X1039004D01*
X1041033Y762500D01*
X1041339Y760179D01*
X1042235Y758017D01*
X1043660Y756160D01*
X1045517Y754735D01*
X1045856Y754594D01*
Y722500D01*
X1046172Y720914D01*
X1047070Y719570D01*
X1058356Y708284D01*
Y701540D01*
X1055710D01*
Y688460D01*
X1069290D01*
Y701540D01*
X1066644D01*
Y710000D01*
X1066328Y711586D01*
X1065430Y712930D01*
X1054144Y724216D01*
Y754594D01*
X1054483Y754735D01*
X1056340Y756160D01*
X1057765Y758017D01*
X1058661Y760179D01*
X1058967Y762500D01*
X1058661Y764821D01*
X1057765Y766983D01*
X1056340Y768840D01*
X1054483Y770265D01*
X1052321Y771161D01*
X1050000Y771467D01*
X1049358Y771382D01*
X1046620Y774120D01*
X1044730Y775383D01*
X1042500Y775827D01*
X1024324D01*
X1023928Y776420D01*
X1025286Y778960D01*
X1030040D01*
Y801040D01*
D02*
G37*
G36*
X972500Y746467D02*
X970179Y746161D01*
X968017Y745265D01*
X966160Y743840D01*
X964735Y741983D01*
X963839Y739821D01*
X963533Y737500D01*
X963839Y735179D01*
X964735Y733017D01*
X966160Y731160D01*
X966673Y730766D01*
Y709290D01*
X964460D01*
Y682710D01*
X966673D01*
Y677500D01*
X967117Y675270D01*
X968380Y673380D01*
X980880Y660880D01*
X982770Y659617D01*
X985000Y659173D01*
X995086D01*
X1001673Y652586D01*
Y617414D01*
X998142Y613882D01*
X997500Y613967D01*
X995179Y613661D01*
X993017Y612765D01*
X991160Y611340D01*
X989735Y609483D01*
X988839Y607321D01*
X988533Y605000D01*
X988839Y602679D01*
X989735Y600517D01*
X991160Y598660D01*
X993017Y597235D01*
X995179Y596339D01*
X997500Y596033D01*
X999821Y596339D01*
X1001983Y597235D01*
X1003840Y598660D01*
X1005265Y600517D01*
X1006161Y602679D01*
X1006467Y605000D01*
X1006382Y605642D01*
X1011620Y610880D01*
X1012883Y612770D01*
X1013327Y615000D01*
Y655000D01*
X1012883Y657230D01*
X1011620Y659120D01*
X1001620Y669120D01*
X999730Y670383D01*
X997500Y670827D01*
X987414D01*
X978327Y679914D01*
Y682710D01*
X980540D01*
Y709290D01*
X978327D01*
Y718356D01*
X1018284D01*
X1028356Y708284D01*
Y701540D01*
X1025710D01*
Y688460D01*
X1039290D01*
Y701540D01*
X1036644D01*
Y710000D01*
X1036328Y711586D01*
X1035430Y712930D01*
X1022930Y725430D01*
X1021586Y726328D01*
X1020000Y726644D01*
X978327D01*
Y730766D01*
X978840Y731160D01*
X980265Y733017D01*
X981161Y735179D01*
X981467Y737500D01*
X981161Y739821D01*
X980265Y741983D01*
X978840Y743840D01*
X976983Y745265D01*
X974821Y746161D01*
X972500Y746467D01*
D02*
G37*
G36*
X1162300Y699427D02*
X1159679Y699082D01*
X1157237Y698070D01*
X1155139Y696461D01*
X1153619Y694480D01*
X1148267D01*
X1146285Y694085D01*
X1144604Y692962D01*
X1136820Y685178D01*
X1127229D01*
X1126338Y686339D01*
X1124481Y687764D01*
X1122318Y688660D01*
X1119998Y688965D01*
X1117677Y688660D01*
X1115514Y687764D01*
X1113657Y686339D01*
X1112232Y684482D01*
X1111337Y682319D01*
X1111031Y679999D01*
X1111337Y677678D01*
X1112232Y675515D01*
X1113657Y673658D01*
X1113734Y673599D01*
Y670398D01*
X1113660Y670340D01*
X1112235Y668483D01*
X1111339Y666321D01*
X1111033Y664000D01*
X1111339Y661679D01*
X1112235Y659517D01*
X1113660Y657660D01*
X1114107Y657316D01*
X1114106Y654183D01*
X1113657Y653839D01*
X1112232Y651982D01*
X1111337Y649819D01*
X1111031Y647499D01*
X1111337Y645178D01*
X1112232Y643015D01*
X1113657Y641158D01*
X1114103Y640816D01*
X1114104Y637682D01*
X1113660Y637340D01*
X1112235Y635483D01*
X1111339Y633321D01*
X1111033Y631000D01*
X1111339Y628679D01*
X1112235Y626517D01*
X1113660Y624660D01*
X1115517Y623235D01*
X1117679Y622339D01*
X1120000Y622033D01*
X1122321Y622339D01*
X1124483Y623235D01*
X1126340Y624660D01*
X1127231Y625821D01*
X1154800D01*
X1156782Y626215D01*
X1158463Y627337D01*
X1159824Y628699D01*
X1162300Y628373D01*
X1164921Y628718D01*
X1167364Y629730D01*
X1169461Y631339D01*
X1171070Y633437D01*
X1172082Y635879D01*
X1172427Y638500D01*
X1172082Y641121D01*
X1171814Y641768D01*
X1173513Y644304D01*
X1174515Y644360D01*
X1177899Y640976D01*
X1177573Y638500D01*
X1177919Y635879D01*
X1178930Y633437D01*
X1180539Y631339D01*
X1182637Y629730D01*
X1185079Y628718D01*
X1187700Y628373D01*
X1190321Y628718D01*
X1192764Y629730D01*
X1194861Y631339D01*
X1196470Y633437D01*
X1197482Y635879D01*
X1197827Y638500D01*
X1197482Y641121D01*
X1196470Y643563D01*
X1194861Y645661D01*
X1192764Y647270D01*
X1190321Y648282D01*
X1187700Y648627D01*
X1185224Y648301D01*
X1178783Y654743D01*
X1177102Y655865D01*
X1175120Y656260D01*
X1172294D01*
X1171042Y658800D01*
X1171070Y658837D01*
X1172082Y661279D01*
X1172427Y663900D01*
X1172082Y666521D01*
X1171070Y668963D01*
X1169461Y671061D01*
X1167364Y672670D01*
X1164921Y673682D01*
X1162300Y674027D01*
X1159679Y673682D01*
X1157237Y672670D01*
X1155139Y671061D01*
X1153619Y669080D01*
X1127308D01*
X1126340Y670340D01*
X1126377Y672798D01*
X1128299Y674819D01*
X1138965D01*
X1140947Y675213D01*
X1142628Y676336D01*
X1150412Y684120D01*
X1153619D01*
X1155139Y682139D01*
X1157237Y680530D01*
X1159679Y679518D01*
X1162300Y679173D01*
X1164921Y679518D01*
X1167364Y680530D01*
X1169461Y682139D01*
X1171070Y684237D01*
X1172082Y686679D01*
X1172427Y689300D01*
X1172082Y691921D01*
X1171070Y694363D01*
X1169461Y696461D01*
X1167364Y698070D01*
X1164921Y699082D01*
X1162300Y699427D01*
D02*
G37*
G36*
X920000Y704727D02*
X917379Y704382D01*
X914937Y703370D01*
X912839Y701761D01*
X911230Y699663D01*
X910218Y697221D01*
X909873Y694600D01*
X910218Y691979D01*
X911230Y689537D01*
X912839Y687439D01*
X914937Y685830D01*
X917379Y684818D01*
X920000Y684473D01*
X922621Y684818D01*
X925063Y685830D01*
X927161Y687439D01*
X928770Y689537D01*
X929782Y691979D01*
X930127Y694600D01*
X929782Y697221D01*
X928770Y699663D01*
X927161Y701761D01*
X925063Y703370D01*
X922621Y704382D01*
X920000Y704727D01*
D02*
G37*
G36*
X1003540Y693460D02*
X998040D01*
Y682710D01*
X1003540D01*
Y693460D01*
D02*
G37*
G36*
X992960D02*
X987460D01*
Y682710D01*
X992960D01*
Y693460D01*
D02*
G37*
G36*
X950000Y728967D02*
X947679Y728661D01*
X945517Y727765D01*
X943660Y726340D01*
X942235Y724483D01*
X941339Y722321D01*
X941033Y720000D01*
X941339Y717679D01*
X942235Y715517D01*
X943660Y713660D01*
X944173Y713266D01*
Y709290D01*
X941460D01*
Y682710D01*
X957540D01*
Y709290D01*
X955827D01*
Y713266D01*
X956340Y713660D01*
X957765Y715517D01*
X958661Y717679D01*
X958967Y720000D01*
X958661Y722321D01*
X957765Y724483D01*
X956340Y726340D01*
X954483Y727765D01*
X952321Y728661D01*
X950000Y728967D01*
D02*
G37*
G36*
X1187700Y699427D02*
X1185079Y699082D01*
X1182637Y698070D01*
X1180539Y696461D01*
X1178930Y694363D01*
X1177919Y691921D01*
X1177573Y689300D01*
X1177919Y686679D01*
X1178930Y684237D01*
X1180539Y682139D01*
X1182637Y680530D01*
X1185079Y679518D01*
X1187700Y679173D01*
X1190321Y679518D01*
X1192764Y680530D01*
X1194861Y682139D01*
X1196470Y684237D01*
X1197482Y686679D01*
X1197827Y689300D01*
X1197482Y691921D01*
X1196470Y694363D01*
X1194861Y696461D01*
X1192764Y698070D01*
X1190321Y699082D01*
X1187700Y699427D01*
D02*
G37*
G36*
X907072Y739037D02*
X889549D01*
Y675428D01*
X907072D01*
Y739037D01*
D02*
G37*
G36*
X1190240Y673692D02*
Y666440D01*
X1197492D01*
X1197482Y666521D01*
X1196470Y668963D01*
X1194861Y671061D01*
X1192764Y672670D01*
X1190321Y673682D01*
X1190240Y673692D01*
D02*
G37*
G36*
X1185160Y673692D02*
X1185079Y673682D01*
X1182637Y672670D01*
X1180539Y671061D01*
X1178930Y668963D01*
X1177919Y666521D01*
X1177908Y666440D01*
X1185160D01*
Y673692D01*
D02*
G37*
G36*
Y661360D02*
X1177908D01*
X1177919Y661279D01*
X1178930Y658837D01*
X1180539Y656739D01*
X1182637Y655130D01*
X1185079Y654118D01*
X1185160Y654108D01*
Y661360D01*
D02*
G37*
G36*
X1197492D02*
X1190240D01*
Y654108D01*
X1190321Y654118D01*
X1192764Y655130D01*
X1194861Y656739D01*
X1196470Y658837D01*
X1197482Y661279D01*
X1197492Y661360D01*
D02*
G37*
G36*
X1069290Y685540D02*
X1055710D01*
Y672460D01*
X1058356D01*
Y668041D01*
X1052959D01*
Y652961D01*
X1072038D01*
Y668041D01*
X1066644D01*
Y672460D01*
X1069290D01*
Y685540D01*
D02*
G37*
G36*
X1039290D02*
X1025710D01*
Y672460D01*
X1028356D01*
Y668041D01*
X1022959D01*
Y652961D01*
X1042038D01*
Y668041D01*
X1036644D01*
Y672460D01*
X1039290D01*
Y685540D01*
D02*
G37*
G36*
X1042038Y647042D02*
X1035038D01*
Y642042D01*
X1042038D01*
Y647042D01*
D02*
G37*
G36*
X1029958D02*
X1022959D01*
Y642042D01*
X1029958D01*
Y647042D01*
D02*
G37*
G36*
X1072038D02*
X1065039D01*
Y642042D01*
X1072038D01*
Y647042D01*
D02*
G37*
G36*
X1059958D02*
X1052959D01*
Y642042D01*
X1059958D01*
Y647042D01*
D02*
G37*
G36*
X1072038Y636962D02*
X1065039D01*
Y631962D01*
X1072038D01*
Y636962D01*
D02*
G37*
G36*
X1059958D02*
X1052959D01*
Y631962D01*
X1059958D01*
Y636962D01*
D02*
G37*
G36*
X1042038Y636962D02*
X1035038D01*
Y631962D01*
X1042038D01*
Y636962D01*
D02*
G37*
G36*
X1029958D02*
X1022959D01*
Y631962D01*
X1029958D01*
Y636962D01*
D02*
G37*
G36*
X992540Y647290D02*
X952460D01*
Y620710D01*
X992540D01*
Y647290D01*
D02*
G37*
G36*
X1187700Y623227D02*
X1185079Y622882D01*
X1182637Y621870D01*
X1180539Y620261D01*
X1178930Y618163D01*
X1177919Y615721D01*
X1177573Y613100D01*
X1177919Y610479D01*
X1178930Y608037D01*
X1180539Y605939D01*
X1182637Y604330D01*
X1185079Y603318D01*
X1187700Y602973D01*
X1190321Y603318D01*
X1192764Y604330D01*
X1194861Y605939D01*
X1196470Y608037D01*
X1197482Y610479D01*
X1197827Y613100D01*
X1197482Y615721D01*
X1196470Y618163D01*
X1194861Y620261D01*
X1192764Y621870D01*
X1190321Y622882D01*
X1187700Y623227D01*
D02*
G37*
G36*
X1162300D02*
X1159679Y622882D01*
X1157237Y621870D01*
X1155139Y620261D01*
X1153530Y618163D01*
X1152519Y615721D01*
X1152173Y613100D01*
X1152519Y610479D01*
X1153530Y608037D01*
X1155139Y605939D01*
X1157237Y604330D01*
X1159679Y603318D01*
X1162300Y602973D01*
X1164921Y603318D01*
X1167364Y604330D01*
X1169461Y605939D01*
X1171070Y608037D01*
X1172082Y610479D01*
X1172427Y613100D01*
X1172082Y615721D01*
X1171070Y618163D01*
X1169461Y620261D01*
X1167364Y621870D01*
X1164921Y622882D01*
X1162300Y623227D01*
D02*
G37*
G36*
X1190240Y597492D02*
Y590240D01*
X1197492D01*
X1197482Y590321D01*
X1196470Y592763D01*
X1194861Y594861D01*
X1192764Y596470D01*
X1190321Y597482D01*
X1190240Y597492D01*
D02*
G37*
G36*
X1185160Y597492D02*
X1185079Y597482D01*
X1182637Y596470D01*
X1180539Y594861D01*
X1178930Y592763D01*
X1177919Y590321D01*
X1177908Y590240D01*
X1185160D01*
Y597492D01*
D02*
G37*
G36*
X920238Y648627D02*
X917617Y648282D01*
X915175Y647270D01*
X913078Y645661D01*
X911468Y643563D01*
X910457Y641121D01*
X910112Y638500D01*
X910457Y635879D01*
X911468Y633437D01*
X913078Y631339D01*
X915175Y629730D01*
X917617Y628719D01*
X920238Y628373D01*
X922714Y628699D01*
X967121Y584293D01*
X966149Y581946D01*
X958717D01*
X930039Y610624D01*
X930365Y613100D01*
X930020Y615721D01*
X929008Y618163D01*
X927399Y620261D01*
X925302Y621870D01*
X922859Y622882D01*
X920238Y623227D01*
X917617Y622882D01*
X915175Y621870D01*
X913078Y620261D01*
X911468Y618163D01*
X910457Y615721D01*
X910112Y613100D01*
X910457Y610479D01*
X911468Y608037D01*
X913078Y605939D01*
X915175Y604330D01*
X917617Y603319D01*
X920238Y602974D01*
X922714Y603299D01*
X950794Y575219D01*
X949742Y572679D01*
X942584D01*
X930039Y585224D01*
X930365Y587700D01*
X930020Y590321D01*
X929008Y592763D01*
X927399Y594861D01*
X925302Y596470D01*
X922859Y597482D01*
X920238Y597827D01*
X917617Y597482D01*
X915175Y596470D01*
X913078Y594861D01*
X911468Y592763D01*
X910457Y590321D01*
X910112Y587700D01*
X910457Y585079D01*
X911468Y582637D01*
X913078Y580540D01*
X915175Y578930D01*
X917617Y577919D01*
X920238Y577574D01*
X922714Y577899D01*
X936776Y563838D01*
X938456Y562715D01*
X938182Y560179D01*
X932012D01*
X930337Y562089D01*
X930365Y562300D01*
X930020Y564921D01*
X929008Y567363D01*
X927399Y569461D01*
X925302Y571070D01*
X922859Y572082D01*
X920238Y572427D01*
X917617Y572082D01*
X915175Y571070D01*
X913078Y569461D01*
X911468Y567363D01*
X910457Y564921D01*
X910112Y562300D01*
X910457Y559679D01*
X911468Y557237D01*
X913078Y555140D01*
X915175Y553530D01*
X917617Y552519D01*
X920238Y552174D01*
X922714Y552499D01*
X923876Y551338D01*
X923876Y551338D01*
X925556Y550215D01*
X927538Y549821D01*
X1032855D01*
X1038838Y543838D01*
X1040518Y542715D01*
X1042500Y542321D01*
X1062320D01*
Y527145D01*
X1025355Y490179D01*
X992500D01*
X990518Y489785D01*
X988838Y488662D01*
X870355Y370179D01*
X782100D01*
X780118Y369785D01*
X778438Y368662D01*
X762276Y352501D01*
X759800Y352827D01*
X757179Y352482D01*
X754737Y351470D01*
X752639Y349861D01*
X751030Y347763D01*
X750018Y345321D01*
X749673Y342700D01*
X750018Y340079D01*
X751030Y337637D01*
X752639Y335539D01*
X754737Y333930D01*
X757179Y332918D01*
X759800Y332573D01*
X762421Y332918D01*
X764863Y333930D01*
X766961Y335539D01*
X768570Y337637D01*
X769582Y340079D01*
X769927Y342700D01*
X769601Y345176D01*
X784245Y359821D01*
X817077D01*
X818049Y357474D01*
X813076Y352501D01*
X810600Y352827D01*
X807979Y352482D01*
X805537Y351470D01*
X803439Y349861D01*
X801830Y347763D01*
X800818Y345321D01*
X800473Y342700D01*
X800818Y340079D01*
X801830Y337637D01*
X803439Y335539D01*
X805537Y333930D01*
X807979Y332918D01*
X810600Y332573D01*
X813221Y332918D01*
X815663Y333930D01*
X817761Y335539D01*
X819370Y337637D01*
X820382Y340079D01*
X820727Y342700D01*
X820401Y345176D01*
X825718Y350493D01*
X826127Y350498D01*
X827231Y348456D01*
X827230Y347763D01*
X826218Y345321D01*
X825873Y342700D01*
X826218Y340079D01*
X827230Y337637D01*
X828839Y335539D01*
X830937Y333930D01*
X833379Y332918D01*
X836000Y332573D01*
X838621Y332918D01*
X841063Y333930D01*
X843161Y335539D01*
X844681Y337520D01*
X875200D01*
X877182Y337915D01*
X878863Y339038D01*
X999645Y459821D01*
X1035000D01*
X1036982Y460215D01*
X1038662Y461338D01*
X1096465Y519141D01*
X1152306D01*
X1153559Y516600D01*
X1153530Y516563D01*
X1152519Y514121D01*
X1152508Y514040D01*
X1162300D01*
X1172092D01*
X1172082Y514121D01*
X1171070Y516563D01*
X1171042Y516600D01*
X1172294Y519141D01*
X1175120D01*
X1177102Y519535D01*
X1178783Y520658D01*
X1185224Y527099D01*
X1187700Y526773D01*
X1190321Y527118D01*
X1192764Y528130D01*
X1194861Y529739D01*
X1196470Y531837D01*
X1197482Y534279D01*
X1197827Y536900D01*
X1197482Y539521D01*
X1196470Y541963D01*
X1194861Y544061D01*
X1192764Y545670D01*
X1190321Y546682D01*
X1187700Y547027D01*
X1185079Y546682D01*
X1182637Y545670D01*
X1180539Y544061D01*
X1178930Y541963D01*
X1177919Y539521D01*
X1177573Y536900D01*
X1177899Y534424D01*
X1174515Y531040D01*
X1173513Y531096D01*
X1171814Y533633D01*
X1172082Y534279D01*
X1172427Y536900D01*
X1172082Y539521D01*
X1171070Y541963D01*
X1169461Y544061D01*
X1167364Y545670D01*
X1164921Y546682D01*
X1162300Y547027D01*
X1159679Y546682D01*
X1157237Y545670D01*
X1155139Y544061D01*
X1155000Y543879D01*
X1154820Y543903D01*
X1153910Y546585D01*
X1159824Y552499D01*
X1162300Y552173D01*
X1164921Y552518D01*
X1167364Y553530D01*
X1169461Y555139D01*
X1171070Y557237D01*
X1172082Y559679D01*
X1172427Y562300D01*
X1172082Y564921D01*
X1171070Y567363D01*
X1169461Y569461D01*
X1167364Y571070D01*
X1164921Y572082D01*
X1162300Y572427D01*
X1159679Y572082D01*
X1157237Y571070D01*
X1155139Y569461D01*
X1153530Y567363D01*
X1152519Y564921D01*
X1152173Y562300D01*
X1152499Y559824D01*
X1145355Y552679D01*
X1136856D01*
X1136582Y555215D01*
X1138262Y556338D01*
X1159824Y577899D01*
X1162300Y577573D01*
X1164921Y577918D01*
X1167364Y578930D01*
X1169461Y580539D01*
X1171070Y582637D01*
X1172082Y585079D01*
X1172427Y587700D01*
X1172082Y590321D01*
X1171070Y592763D01*
X1169461Y594861D01*
X1167364Y596470D01*
X1164921Y597482D01*
X1162300Y597827D01*
X1159679Y597482D01*
X1157237Y596470D01*
X1155139Y594861D01*
X1153530Y592763D01*
X1152519Y590321D01*
X1152173Y587700D01*
X1152499Y585224D01*
X1132741Y565466D01*
X1130221Y565574D01*
X1129301Y567793D01*
X1130265Y569050D01*
X1131161Y571213D01*
X1131467Y573533D01*
X1131161Y575854D01*
X1130265Y578017D01*
X1128840Y579874D01*
X1126983Y581299D01*
X1124821Y582195D01*
X1122500Y582500D01*
X1120179Y582195D01*
X1118405Y581460D01*
X1117226Y582101D01*
X1116219Y583121D01*
X1116467Y585000D01*
X1116161Y587321D01*
X1115265Y589483D01*
X1113840Y591340D01*
X1111983Y592765D01*
X1109821Y593661D01*
X1107500Y593967D01*
X1105179Y593661D01*
X1103017Y592765D01*
X1101160Y591340D01*
X1100269Y590179D01*
X975884D01*
X930039Y636024D01*
X930365Y638500D01*
X930020Y641121D01*
X929008Y643563D01*
X927399Y645661D01*
X925302Y647270D01*
X922859Y648282D01*
X920238Y648627D01*
D02*
G37*
G36*
X1185160Y585160D02*
X1177908D01*
X1177919Y585079D01*
X1178930Y582637D01*
X1180539Y580539D01*
X1182637Y578930D01*
X1185079Y577918D01*
X1185160Y577908D01*
Y585160D01*
D02*
G37*
G36*
X1197492D02*
X1190240D01*
Y577908D01*
X1190321Y577918D01*
X1192764Y578930D01*
X1194861Y580539D01*
X1196470Y582637D01*
X1197482Y585079D01*
X1197492Y585160D01*
D02*
G37*
G36*
X1187700Y572427D02*
X1185079Y572082D01*
X1182637Y571070D01*
X1180539Y569461D01*
X1178930Y567363D01*
X1177919Y564921D01*
X1177573Y562300D01*
X1177919Y559679D01*
X1178930Y557237D01*
X1180539Y555139D01*
X1182637Y553530D01*
X1185079Y552518D01*
X1187700Y552173D01*
X1190321Y552518D01*
X1192764Y553530D01*
X1194861Y555139D01*
X1196470Y557237D01*
X1197482Y559679D01*
X1197827Y562300D01*
X1197482Y564921D01*
X1196470Y567363D01*
X1194861Y569461D01*
X1192764Y571070D01*
X1190321Y572082D01*
X1187700Y572427D01*
D02*
G37*
G36*
X922778Y546692D02*
Y539440D01*
X930030D01*
X930020Y539521D01*
X929008Y541963D01*
X927399Y544061D01*
X925302Y545670D01*
X922859Y546682D01*
X922778Y546692D01*
D02*
G37*
G36*
X917698Y546692D02*
X917617Y546682D01*
X915175Y545670D01*
X913078Y544061D01*
X911468Y541963D01*
X910457Y539521D01*
X910446Y539440D01*
X917698D01*
Y546692D01*
D02*
G37*
G36*
Y534360D02*
X910446D01*
X910457Y534279D01*
X911468Y531837D01*
X913078Y529739D01*
X915175Y528130D01*
X917617Y527119D01*
X917698Y527108D01*
Y534360D01*
D02*
G37*
G36*
X930030D02*
X922778D01*
Y527108D01*
X922859Y527119D01*
X925302Y528130D01*
X927399Y529739D01*
X929008Y531837D01*
X930020Y534279D01*
X930030Y534360D01*
D02*
G37*
G36*
X1159760Y508960D02*
X1152508D01*
X1152519Y508879D01*
X1153530Y506437D01*
X1155139Y504339D01*
X1157237Y502730D01*
X1159679Y501718D01*
X1159760Y501708D01*
Y508960D01*
D02*
G37*
G36*
X1172092D02*
X1164840D01*
Y501708D01*
X1164921Y501718D01*
X1167364Y502730D01*
X1169461Y504339D01*
X1171070Y506437D01*
X1172082Y508879D01*
X1172092Y508960D01*
D02*
G37*
G36*
X930278Y521540D02*
X910198D01*
Y501460D01*
X930278D01*
Y521540D01*
D02*
G37*
G36*
X1187700Y521627D02*
X1185079Y521282D01*
X1182637Y520270D01*
X1180539Y518661D01*
X1178930Y516563D01*
X1177919Y514121D01*
X1177573Y511500D01*
X1177919Y508879D01*
X1178930Y506437D01*
X1180539Y504339D01*
X1182637Y502730D01*
X1185079Y501718D01*
X1187700Y501373D01*
X1190321Y501718D01*
X1192764Y502730D01*
X1194861Y504339D01*
X1196470Y506437D01*
X1197482Y508879D01*
X1197827Y511500D01*
X1197482Y514121D01*
X1196470Y516563D01*
X1194861Y518661D01*
X1192764Y520270D01*
X1190321Y521282D01*
X1187700Y521627D01*
D02*
G37*
G36*
X907072Y652089D02*
X889549D01*
Y487928D01*
X907072D01*
Y652089D01*
D02*
G37*
G36*
X1187700Y496227D02*
X1185079Y495882D01*
X1182637Y494870D01*
X1180539Y493261D01*
X1178930Y491163D01*
X1177919Y488721D01*
X1177573Y486100D01*
X1177884Y483744D01*
X1172576Y478436D01*
X1172251Y478403D01*
X1171385Y479511D01*
X1171100Y480890D01*
X1171160Y481254D01*
X1172082Y483479D01*
X1172427Y486100D01*
X1172082Y488721D01*
X1171070Y491163D01*
X1169461Y493261D01*
X1167364Y494870D01*
X1164921Y495882D01*
X1162300Y496227D01*
X1159679Y495882D01*
X1157237Y494870D01*
X1155139Y493261D01*
X1153530Y491163D01*
X1153149Y490244D01*
X1098600D01*
X1097014Y489928D01*
X1095670Y489030D01*
X1078982Y472342D01*
X1078084Y470998D01*
X1077768Y469412D01*
Y396128D01*
X1071004Y389364D01*
X1027200D01*
Y391760D01*
X1013620D01*
Y379480D01*
X1012730Y378590D01*
X1011832Y377246D01*
X1011516Y375660D01*
Y375198D01*
X1009870Y373340D01*
X1009594D01*
X1007054Y375177D01*
Y378680D01*
X1009700D01*
Y391760D01*
X996120D01*
Y378680D01*
X998766D01*
Y374936D01*
X997170Y373340D01*
X995804D01*
X994404Y374740D01*
X994088Y376326D01*
X993190Y377670D01*
X992301Y378559D01*
X992200Y378680D01*
X992200Y381203D01*
Y391760D01*
X978620D01*
Y378680D01*
X981447D01*
X981582Y378004D01*
X982480Y376660D01*
X983260Y375880D01*
X982208Y373340D01*
X971770D01*
X971644Y375828D01*
Y395784D01*
X972936Y397076D01*
X978620D01*
Y394680D01*
X992200D01*
Y397076D01*
X996120D01*
Y394680D01*
X1009700D01*
Y397076D01*
X1013620D01*
Y394680D01*
X1027200D01*
Y397076D01*
X1040814D01*
X1040955Y396737D01*
X1042380Y394879D01*
X1044237Y393455D01*
X1046399Y392559D01*
X1048720Y392253D01*
X1051041Y392559D01*
X1053203Y393455D01*
X1055060Y394879D01*
X1056485Y396737D01*
X1057381Y398899D01*
X1057687Y401220D01*
X1057381Y403541D01*
X1056485Y405703D01*
X1055060Y407560D01*
X1053203Y408985D01*
X1051041Y409881D01*
X1048720Y410187D01*
X1046399Y409881D01*
X1044237Y408985D01*
X1042380Y407560D01*
X1040955Y405703D01*
X1040814Y405364D01*
X1027200D01*
Y407760D01*
X1013620D01*
Y405364D01*
X1009700D01*
Y407760D01*
X996120D01*
Y405364D01*
X992200D01*
Y407760D01*
X978620D01*
Y405364D01*
X971220D01*
X969634Y405048D01*
X968290Y404150D01*
X964570Y400430D01*
X963672Y399086D01*
X963356Y397500D01*
Y372449D01*
X963040Y370040D01*
X947960D01*
Y354960D01*
X963040D01*
Y357906D01*
X971770D01*
Y350760D01*
X984320Y350760D01*
X985726Y349355D01*
Y346586D01*
X978284Y339144D01*
X967500D01*
X965914Y338828D01*
X964570Y337930D01*
X941041Y314401D01*
X940121Y314782D01*
X937500Y315127D01*
X934879Y314782D01*
X932437Y313770D01*
X930339Y312161D01*
X928918Y310308D01*
X927500Y310152D01*
X926082Y310308D01*
X924661Y312161D01*
X922563Y313770D01*
X920121Y314782D01*
X920040Y314792D01*
Y305000D01*
Y295208D01*
X920121Y295218D01*
X922563Y296230D01*
X924661Y297839D01*
X926082Y299692D01*
X927500Y299848D01*
X928918Y299692D01*
X930339Y297839D01*
X932437Y296230D01*
X934879Y295218D01*
X937500Y294873D01*
X940121Y295218D01*
X942563Y296230D01*
X944661Y297839D01*
X946270Y299937D01*
X947282Y302379D01*
X947627Y305000D01*
X947282Y307621D01*
X946901Y308541D01*
X969216Y330856D01*
X980000D01*
X981586Y331172D01*
X982930Y332070D01*
X993190Y342330D01*
X994088Y343674D01*
X994404Y345260D01*
Y349114D01*
X996050Y350760D01*
X996970D01*
X998766Y348964D01*
Y344590D01*
X999082Y343004D01*
X999980Y341660D01*
X1004570Y337070D01*
X1005914Y336172D01*
X1007500Y335856D01*
X1007500Y335856D01*
X1067500D01*
X1069086Y336172D01*
X1070430Y337070D01*
X1090430Y357070D01*
X1091328Y358414D01*
X1091644Y360000D01*
Y463459D01*
X1104041Y475856D01*
X1133284D01*
X1139570Y469570D01*
X1140914Y468672D01*
X1142500Y468356D01*
X1150132D01*
X1150382Y465816D01*
X1148718Y465485D01*
X1147038Y464362D01*
X1147038Y464362D01*
X1123155Y440480D01*
X1120181D01*
X1118661Y442461D01*
X1116563Y444070D01*
X1114121Y445082D01*
X1111500Y445427D01*
X1108879Y445082D01*
X1106437Y444070D01*
X1104339Y442461D01*
X1102730Y440363D01*
X1101718Y437921D01*
X1101373Y435300D01*
X1101718Y432679D01*
X1102730Y430237D01*
X1104339Y428139D01*
X1106437Y426530D01*
X1108879Y425518D01*
X1111500Y425173D01*
X1114121Y425518D01*
X1116563Y426530D01*
X1118661Y428139D01*
X1120181Y430121D01*
X1125300D01*
X1127282Y430515D01*
X1128962Y431637D01*
X1151540Y454215D01*
X1154766Y454026D01*
X1155139Y453539D01*
X1157237Y451930D01*
X1159679Y450918D01*
X1162300Y450573D01*
X1164921Y450918D01*
X1167364Y451930D01*
X1169461Y453539D01*
X1171070Y455637D01*
X1172082Y458079D01*
X1172427Y460700D01*
X1172082Y463321D01*
X1171070Y465763D01*
X1171029Y465816D01*
X1172282Y468356D01*
X1172500D01*
X1174086Y468672D01*
X1175430Y469570D01*
X1183028Y477168D01*
X1185079Y476318D01*
X1187700Y475973D01*
X1190321Y476318D01*
X1192764Y477330D01*
X1194861Y478939D01*
X1196470Y481037D01*
X1197482Y483479D01*
X1197827Y486100D01*
X1197482Y488721D01*
X1196470Y491163D01*
X1194861Y493261D01*
X1192764Y494870D01*
X1190321Y495882D01*
X1187700Y496227D01*
D02*
G37*
G36*
X1190240Y470492D02*
Y463240D01*
X1197492D01*
X1197482Y463321D01*
X1196470Y465763D01*
X1194861Y467861D01*
X1192764Y469470D01*
X1190321Y470482D01*
X1190240Y470492D01*
D02*
G37*
G36*
X1185160Y470492D02*
X1185079Y470482D01*
X1182637Y469470D01*
X1180539Y467861D01*
X1178930Y465763D01*
X1177919Y463321D01*
X1177908Y463240D01*
X1185160D01*
Y470492D01*
D02*
G37*
G36*
Y458160D02*
X1177908D01*
X1177919Y458079D01*
X1178930Y455637D01*
X1180539Y453539D01*
X1182637Y451930D01*
X1185079Y450918D01*
X1185160Y450908D01*
Y458160D01*
D02*
G37*
G36*
X1197492D02*
X1190240D01*
Y450908D01*
X1190321Y450918D01*
X1192764Y451930D01*
X1194861Y453539D01*
X1196470Y455637D01*
X1197482Y458079D01*
X1197492Y458160D01*
D02*
G37*
G36*
X1111500Y470827D02*
X1108879Y470482D01*
X1106437Y469470D01*
X1104339Y467861D01*
X1102730Y465763D01*
X1101718Y463321D01*
X1101373Y460700D01*
X1101718Y458079D01*
X1102730Y455637D01*
X1104339Y453539D01*
X1106437Y451930D01*
X1108879Y450918D01*
X1111500Y450573D01*
X1114121Y450918D01*
X1116563Y451930D01*
X1118661Y453539D01*
X1120270Y455637D01*
X1121282Y458079D01*
X1121627Y460700D01*
X1121282Y463321D01*
X1120270Y465763D01*
X1118661Y467861D01*
X1116563Y469470D01*
X1114121Y470482D01*
X1111500Y470827D01*
D02*
G37*
G36*
X1162300Y445427D02*
X1159679Y445082D01*
X1157237Y444070D01*
X1155139Y442461D01*
X1153619Y440480D01*
X1150300D01*
X1150300Y440480D01*
X1148318Y440085D01*
X1146637Y438963D01*
X1146637Y438962D01*
X1122755Y415079D01*
X1120181D01*
X1118661Y417061D01*
X1116563Y418670D01*
X1114121Y419682D01*
X1111500Y420027D01*
X1108879Y419682D01*
X1106437Y418670D01*
X1104339Y417061D01*
X1102730Y414963D01*
X1101718Y412521D01*
X1101373Y409900D01*
X1101718Y407279D01*
X1102730Y404837D01*
X1104339Y402739D01*
X1106437Y401130D01*
X1108879Y400118D01*
X1111500Y399773D01*
X1114121Y400118D01*
X1116563Y401130D01*
X1118661Y402739D01*
X1120181Y404720D01*
X1124900D01*
X1126882Y405115D01*
X1128562Y406237D01*
X1151455Y429130D01*
X1154507Y428964D01*
X1155139Y428139D01*
X1157237Y426530D01*
X1159679Y425518D01*
X1162300Y425173D01*
X1164921Y425518D01*
X1167364Y426530D01*
X1169461Y428139D01*
X1171070Y430237D01*
X1172082Y432679D01*
X1172427Y435300D01*
X1172082Y437921D01*
X1171070Y440363D01*
X1169461Y442461D01*
X1167364Y444070D01*
X1164921Y445082D01*
X1162300Y445427D01*
D02*
G37*
G36*
X1187700D02*
X1185079Y445082D01*
X1182637Y444070D01*
X1180539Y442461D01*
X1178930Y440363D01*
X1177919Y437921D01*
X1177573Y435300D01*
X1177919Y432679D01*
X1178930Y430237D01*
X1180539Y428139D01*
X1182637Y426530D01*
X1185079Y425518D01*
X1187700Y425173D01*
X1190321Y425518D01*
X1192764Y426530D01*
X1194861Y428139D01*
X1196470Y430237D01*
X1197482Y432679D01*
X1197827Y435300D01*
X1197482Y437921D01*
X1196470Y440363D01*
X1194861Y442461D01*
X1192764Y444070D01*
X1190321Y445082D01*
X1187700Y445427D01*
D02*
G37*
G36*
X1162300Y420027D02*
X1159679Y419682D01*
X1157237Y418670D01*
X1155139Y417061D01*
X1153619Y415079D01*
X1149900D01*
X1149900Y415079D01*
X1147918Y414685D01*
X1146237Y413563D01*
X1146237Y413562D01*
X1122556Y389881D01*
X1119943Y389990D01*
X1118661Y391661D01*
X1116563Y393270D01*
X1114121Y394282D01*
X1111500Y394627D01*
X1108879Y394282D01*
X1106437Y393270D01*
X1104339Y391661D01*
X1102730Y389563D01*
X1101718Y387121D01*
X1101373Y384500D01*
X1101718Y381879D01*
X1102730Y379437D01*
X1104339Y377339D01*
X1106437Y375730D01*
X1108879Y374718D01*
X1111500Y374373D01*
X1114121Y374718D01*
X1116563Y375730D01*
X1118661Y377339D01*
X1120181Y379320D01*
X1124500D01*
X1126482Y379715D01*
X1128163Y380838D01*
X1151371Y404046D01*
X1154247Y403903D01*
X1155139Y402739D01*
X1157237Y401130D01*
X1159679Y400118D01*
X1162300Y399773D01*
X1164921Y400118D01*
X1167364Y401130D01*
X1169461Y402739D01*
X1171070Y404837D01*
X1172082Y407279D01*
X1172427Y409900D01*
X1172082Y412521D01*
X1171070Y414963D01*
X1169461Y417061D01*
X1167364Y418670D01*
X1164921Y419682D01*
X1162300Y420027D01*
D02*
G37*
G36*
X1190240Y419692D02*
Y412440D01*
X1197492D01*
X1197482Y412521D01*
X1196470Y414963D01*
X1194861Y417061D01*
X1192764Y418670D01*
X1190321Y419682D01*
X1190240Y419692D01*
D02*
G37*
G36*
X1185160D02*
X1185079Y419682D01*
X1182637Y418670D01*
X1180539Y417061D01*
X1178930Y414963D01*
X1177919Y412521D01*
X1177908Y412440D01*
X1185160D01*
Y419692D01*
D02*
G37*
G36*
Y407360D02*
X1177908D01*
X1177919Y407279D01*
X1178930Y404837D01*
X1180539Y402739D01*
X1182637Y401130D01*
X1185079Y400118D01*
X1185160Y400108D01*
Y407360D01*
D02*
G37*
G36*
X1197492D02*
X1190240D01*
Y400108D01*
X1190321Y400118D01*
X1192764Y401130D01*
X1194861Y402739D01*
X1196470Y404837D01*
X1197482Y407279D01*
X1197492Y407360D01*
D02*
G37*
G36*
X1162300Y394627D02*
X1159679Y394282D01*
X1157237Y393270D01*
X1155139Y391661D01*
X1153619Y389679D01*
X1149500D01*
X1149500Y389679D01*
X1147518Y389285D01*
X1145837Y388162D01*
X1145837Y388162D01*
X1122472Y364797D01*
X1119683Y364928D01*
X1118661Y366261D01*
X1116563Y367870D01*
X1114121Y368882D01*
X1111500Y369227D01*
X1108879Y368882D01*
X1106437Y367870D01*
X1104339Y366261D01*
X1102730Y364163D01*
X1101718Y361721D01*
X1101373Y359100D01*
X1101718Y356479D01*
X1102730Y354037D01*
X1104339Y351939D01*
X1106437Y350330D01*
X1108879Y349318D01*
X1111500Y348973D01*
X1114121Y349318D01*
X1116563Y350330D01*
X1118661Y351939D01*
X1120181Y353921D01*
X1124100D01*
X1126082Y354315D01*
X1127763Y355438D01*
X1151286Y378961D01*
X1153987Y378841D01*
X1155139Y377339D01*
X1157237Y375730D01*
X1159679Y374718D01*
X1162300Y374373D01*
X1164921Y374718D01*
X1167364Y375730D01*
X1169461Y377339D01*
X1171070Y379437D01*
X1172082Y381879D01*
X1172427Y384500D01*
X1172082Y387121D01*
X1171070Y389563D01*
X1169461Y391661D01*
X1167364Y393270D01*
X1164921Y394282D01*
X1162300Y394627D01*
D02*
G37*
G36*
X1187700D02*
X1185079Y394282D01*
X1182637Y393270D01*
X1180539Y391661D01*
X1178930Y389563D01*
X1177919Y387121D01*
X1177573Y384500D01*
X1177919Y381879D01*
X1178930Y379437D01*
X1180539Y377339D01*
X1182637Y375730D01*
X1185079Y374718D01*
X1187700Y374373D01*
X1190321Y374718D01*
X1192764Y375730D01*
X1194861Y377339D01*
X1196470Y379437D01*
X1197482Y381879D01*
X1197827Y384500D01*
X1197482Y387121D01*
X1196470Y389563D01*
X1194861Y391661D01*
X1192764Y393270D01*
X1190321Y394282D01*
X1187700Y394627D01*
D02*
G37*
G36*
X945040Y370040D02*
X940040D01*
Y365040D01*
X945040D01*
Y370040D01*
D02*
G37*
G36*
X934960D02*
X929960D01*
Y365040D01*
X934960D01*
Y370040D01*
D02*
G37*
G36*
X1162300Y369227D02*
X1159679Y368882D01*
X1157237Y367870D01*
X1155139Y366261D01*
X1153619Y364280D01*
X1149100D01*
X1149100Y364280D01*
X1147118Y363885D01*
X1145437Y362762D01*
X1145437Y362762D01*
X1122387Y339712D01*
X1119423Y339867D01*
X1118661Y340861D01*
X1116563Y342470D01*
X1114121Y343482D01*
X1111500Y343827D01*
X1108879Y343482D01*
X1106437Y342470D01*
X1104339Y340861D01*
X1102730Y338763D01*
X1101718Y336321D01*
X1101373Y333700D01*
X1101718Y331079D01*
X1102730Y328637D01*
X1104339Y326539D01*
X1106437Y324930D01*
X1108879Y323918D01*
X1111500Y323573D01*
X1114121Y323918D01*
X1116563Y324930D01*
X1118661Y326539D01*
X1120181Y328521D01*
X1123700D01*
X1125682Y328915D01*
X1127363Y330037D01*
X1151202Y353877D01*
X1153727Y353780D01*
X1155139Y351939D01*
X1157237Y350330D01*
X1159679Y349318D01*
X1162300Y348973D01*
X1164921Y349318D01*
X1167364Y350330D01*
X1169461Y351939D01*
X1171070Y354037D01*
X1172082Y356479D01*
X1172427Y359100D01*
X1172082Y361721D01*
X1171070Y364163D01*
X1169461Y366261D01*
X1167364Y367870D01*
X1164921Y368882D01*
X1162300Y369227D01*
D02*
G37*
G36*
X945040Y359960D02*
X940040D01*
Y354960D01*
X945040D01*
Y359960D01*
D02*
G37*
G36*
X934960D02*
X929960D01*
Y354960D01*
X934960D01*
Y359960D01*
D02*
G37*
G36*
X1187700Y369227D02*
X1185079Y368882D01*
X1182637Y367870D01*
X1180539Y366261D01*
X1178930Y364163D01*
X1177919Y361721D01*
X1177573Y359100D01*
X1177919Y356479D01*
X1178930Y354037D01*
X1180539Y351939D01*
X1182637Y350330D01*
X1185079Y349318D01*
X1187700Y348973D01*
X1190321Y349318D01*
X1192764Y350330D01*
X1194861Y351939D01*
X1196470Y354037D01*
X1197482Y356479D01*
X1197827Y359100D01*
X1197482Y361721D01*
X1196470Y364163D01*
X1194861Y366261D01*
X1192764Y367870D01*
X1190321Y368882D01*
X1187700Y369227D01*
D02*
G37*
G36*
X736940Y352492D02*
Y345240D01*
X744192D01*
X744182Y345321D01*
X743170Y347763D01*
X741561Y349861D01*
X739463Y351470D01*
X737021Y352482D01*
X736940Y352492D01*
D02*
G37*
G36*
X731860D02*
X731779Y352482D01*
X729337Y351470D01*
X727239Y349861D01*
X725630Y347763D01*
X724618Y345321D01*
X724608Y345240D01*
X731860D01*
Y352492D01*
D02*
G37*
G36*
X677072Y430572D02*
X659549D01*
Y340428D01*
X677072D01*
Y430572D01*
D02*
G37*
G36*
X1164840Y343492D02*
Y336240D01*
X1172092D01*
X1172082Y336321D01*
X1171070Y338763D01*
X1169461Y340861D01*
X1167364Y342470D01*
X1164921Y343482D01*
X1164840Y343492D01*
D02*
G37*
G36*
X1159760D02*
X1159679Y343482D01*
X1157237Y342470D01*
X1155139Y340861D01*
X1153530Y338763D01*
X1152519Y336321D01*
X1152508Y336240D01*
X1159760D01*
Y343492D01*
D02*
G37*
G36*
X744192Y340160D02*
X736940D01*
Y332908D01*
X737021Y332918D01*
X739463Y333930D01*
X741561Y335539D01*
X743170Y337637D01*
X744182Y340079D01*
X744192Y340160D01*
D02*
G37*
G36*
X731860D02*
X724608D01*
X724618Y340079D01*
X725630Y337637D01*
X727239Y335539D01*
X729337Y333930D01*
X731779Y332918D01*
X731860Y332908D01*
Y340160D01*
D02*
G37*
G36*
X719040Y352740D02*
X698960D01*
Y332660D01*
X719040D01*
Y352740D01*
D02*
G37*
G36*
X785200Y352827D02*
X782579Y352482D01*
X780137Y351470D01*
X778039Y349861D01*
X776430Y347763D01*
X775418Y345321D01*
X775073Y342700D01*
X775418Y340079D01*
X776430Y337637D01*
X778039Y335539D01*
X780137Y333930D01*
X782579Y332918D01*
X785200Y332573D01*
X787821Y332918D01*
X790263Y333930D01*
X792361Y335539D01*
X793970Y337637D01*
X794982Y340079D01*
X795327Y342700D01*
X794982Y345321D01*
X793970Y347763D01*
X792361Y349861D01*
X790263Y351470D01*
X787821Y352482D01*
X785200Y352827D01*
D02*
G37*
G36*
X1159760Y331160D02*
X1152508D01*
X1152519Y331079D01*
X1153530Y328637D01*
X1155139Y326539D01*
X1157237Y324930D01*
X1159679Y323918D01*
X1159760Y323908D01*
Y331160D01*
D02*
G37*
G36*
X1172092D02*
X1164840D01*
Y323908D01*
X1164921Y323918D01*
X1167364Y324930D01*
X1169461Y326539D01*
X1171070Y328637D01*
X1172082Y331079D01*
X1172092Y331160D01*
D02*
G37*
G36*
X1187700Y343827D02*
X1185079Y343482D01*
X1182637Y342470D01*
X1180539Y340861D01*
X1178930Y338763D01*
X1177919Y336321D01*
X1177573Y333700D01*
X1177919Y331079D01*
X1178930Y328637D01*
X1180539Y326539D01*
X1182637Y324930D01*
X1185079Y323918D01*
X1187700Y323573D01*
X1190321Y323918D01*
X1192764Y324930D01*
X1194861Y326539D01*
X1196470Y328637D01*
X1197482Y331079D01*
X1197827Y333700D01*
X1197482Y336321D01*
X1196470Y338763D01*
X1194861Y340861D01*
X1192764Y342470D01*
X1190321Y343482D01*
X1187700Y343827D01*
D02*
G37*
G36*
X736940Y327092D02*
Y319840D01*
X744192D01*
X744182Y319921D01*
X743170Y322363D01*
X741561Y324461D01*
X739463Y326070D01*
X737021Y327082D01*
X736940Y327092D01*
D02*
G37*
G36*
X731860D02*
X731779Y327082D01*
X729337Y326070D01*
X727239Y324461D01*
X725630Y322363D01*
X724618Y319921D01*
X724608Y319840D01*
X731860D01*
Y327092D01*
D02*
G37*
G36*
X1009870Y317340D02*
X1007330Y317340D01*
X1005500D01*
Y306050D01*
Y294760D01*
X1007330D01*
X1008750Y294760D01*
X1011290Y294760D01*
X1013120D01*
Y306050D01*
Y317340D01*
X1011290D01*
X1009870Y317340D01*
D02*
G37*
G36*
X997170D02*
X994630Y317340D01*
X992800D01*
Y306050D01*
Y294760D01*
X994630D01*
X996050Y294760D01*
X998590Y294760D01*
X1000420D01*
Y306050D01*
Y317340D01*
X998590D01*
X997170Y317340D01*
D02*
G37*
G36*
X1018200Y317340D02*
Y308590D01*
X1021450D01*
Y317340D01*
X1018200D01*
D02*
G37*
G36*
X975020D02*
X971770D01*
Y308590D01*
X975020D01*
Y317340D01*
D02*
G37*
G36*
X914960Y314792D02*
X914879Y314782D01*
X912437Y313770D01*
X910339Y312161D01*
X908730Y310063D01*
X907718Y307621D01*
X907708Y307540D01*
X914960D01*
Y314792D01*
D02*
G37*
G36*
X744192Y314760D02*
X736940D01*
Y307508D01*
X737021Y307518D01*
X739463Y308530D01*
X741561Y310139D01*
X743170Y312237D01*
X744182Y314679D01*
X744192Y314760D01*
D02*
G37*
G36*
X731860D02*
X724608D01*
X724618Y314679D01*
X725630Y312237D01*
X727239Y310139D01*
X729337Y308530D01*
X731779Y307518D01*
X731860Y307508D01*
Y314760D01*
D02*
G37*
G36*
X836000Y327427D02*
X833379Y327082D01*
X830937Y326070D01*
X828839Y324461D01*
X827230Y322363D01*
X826218Y319921D01*
X825873Y317300D01*
X826218Y314679D01*
X827230Y312237D01*
X828839Y310139D01*
X830937Y308530D01*
X833379Y307518D01*
X836000Y307173D01*
X838621Y307518D01*
X841063Y308530D01*
X843161Y310139D01*
X844770Y312237D01*
X845782Y314679D01*
X846127Y317300D01*
X845782Y319921D01*
X844770Y322363D01*
X843161Y324461D01*
X841063Y326070D01*
X838621Y327082D01*
X836000Y327427D01*
D02*
G37*
G36*
X810600D02*
X807979Y327082D01*
X805537Y326070D01*
X803439Y324461D01*
X801830Y322363D01*
X800818Y319921D01*
X800473Y317300D01*
X800818Y314679D01*
X801830Y312237D01*
X803439Y310139D01*
X805537Y308530D01*
X807979Y307518D01*
X810600Y307173D01*
X813221Y307518D01*
X815663Y308530D01*
X817761Y310139D01*
X819370Y312237D01*
X820382Y314679D01*
X820727Y317300D01*
X820382Y319921D01*
X819370Y322363D01*
X817761Y324461D01*
X815663Y326070D01*
X813221Y327082D01*
X810600Y327427D01*
D02*
G37*
G36*
X785200D02*
X782579Y327082D01*
X780137Y326070D01*
X778039Y324461D01*
X776430Y322363D01*
X775418Y319921D01*
X775073Y317300D01*
X775418Y314679D01*
X776430Y312237D01*
X778039Y310139D01*
X780137Y308530D01*
X782579Y307518D01*
X785200Y307173D01*
X787821Y307518D01*
X790263Y308530D01*
X792361Y310139D01*
X793970Y312237D01*
X794982Y314679D01*
X795327Y317300D01*
X794982Y319921D01*
X793970Y322363D01*
X792361Y324461D01*
X790263Y326070D01*
X787821Y327082D01*
X785200Y327427D01*
D02*
G37*
G36*
X759800D02*
X757179Y327082D01*
X754737Y326070D01*
X752639Y324461D01*
X751030Y322363D01*
X750018Y319921D01*
X749673Y317300D01*
X750018Y314679D01*
X751030Y312237D01*
X752639Y310139D01*
X754737Y308530D01*
X757179Y307518D01*
X759800Y307173D01*
X762421Y307518D01*
X764863Y308530D01*
X766961Y310139D01*
X768570Y312237D01*
X769582Y314679D01*
X769927Y317300D01*
X769582Y319921D01*
X768570Y322363D01*
X766961Y324461D01*
X764863Y326070D01*
X762421Y327082D01*
X759800Y327427D01*
D02*
G37*
G36*
X1111500Y318427D02*
X1108879Y318082D01*
X1106437Y317070D01*
X1104339Y315461D01*
X1102730Y313363D01*
X1101718Y310921D01*
X1101373Y308300D01*
X1101718Y305679D01*
X1102730Y303237D01*
X1104339Y301139D01*
X1106437Y299530D01*
X1108879Y298518D01*
X1111500Y298173D01*
X1114121Y298518D01*
X1116563Y299530D01*
X1118661Y301139D01*
X1120270Y303237D01*
X1121282Y305679D01*
X1121627Y308300D01*
X1121282Y310921D01*
X1120270Y313363D01*
X1118661Y315461D01*
X1116563Y317070D01*
X1114121Y318082D01*
X1111500Y318427D01*
D02*
G37*
G36*
X914960Y302460D02*
X907708D01*
X907718Y302379D01*
X908730Y299937D01*
X910339Y297839D01*
X912437Y296230D01*
X914879Y295218D01*
X914960Y295208D01*
Y302460D01*
D02*
G37*
G36*
X1021450Y303510D02*
X1018200D01*
Y294760D01*
X1021450D01*
Y303510D01*
D02*
G37*
G36*
X984470Y317340D02*
X981930Y317340D01*
X980100D01*
Y306050D01*
Y294760D01*
X981930D01*
X983350Y294760D01*
X985890Y294760D01*
X987720D01*
Y306050D01*
Y317340D01*
X985890D01*
X984470Y317340D01*
D02*
G37*
G36*
X975020Y303510D02*
X971770D01*
Y294760D01*
X975020D01*
Y303510D01*
D02*
G37*
G36*
X1121540Y292940D02*
X1114040D01*
Y285440D01*
X1121540D01*
Y292940D01*
D02*
G37*
G36*
X1108960D02*
X1101460D01*
Y285440D01*
X1108960D01*
Y292940D01*
D02*
G37*
G36*
X967193Y290451D02*
X885428D01*
Y272928D01*
X967193D01*
Y290451D01*
D02*
G37*
G36*
X1121540Y280360D02*
X1114040D01*
Y272860D01*
X1121540D01*
Y280360D01*
D02*
G37*
G36*
X1108960D02*
X1101460D01*
Y272860D01*
X1108960D01*
Y280360D01*
D02*
G37*
%LPD*%
G36*
X1154031Y745816D02*
X1153530Y745163D01*
X1152519Y742721D01*
X1152173Y740100D01*
X1152519Y737479D01*
X1153530Y735037D01*
X1154185Y734184D01*
X1152932Y731644D01*
X1115516D01*
X1101150Y746010D01*
X1102122Y748356D01*
X1152779D01*
X1154031Y745816D01*
D02*
G37*
G36*
X1083356Y386678D02*
Y361716D01*
X1065784Y344144D01*
X1009216D01*
X1007054Y346306D01*
Y348923D01*
X1008750Y350760D01*
X1009870D01*
Y350760D01*
X1021450D01*
Y373340D01*
X1021450D01*
X1021655Y375795D01*
X1023340Y377480D01*
X1024142Y378680D01*
X1027200D01*
Y381076D01*
X1072720D01*
X1074306Y381392D01*
X1075650Y382290D01*
X1081010Y387650D01*
X1083356Y386678D01*
D02*
G37*
D10*
X1032500Y695000D02*
D03*
Y679000D02*
D03*
X1062500Y695000D02*
D03*
Y679000D02*
D03*
X985410Y401220D02*
D03*
Y385220D02*
D03*
X1020410D02*
D03*
Y401220D02*
D03*
X1002910Y401220D02*
D03*
Y385220D02*
D03*
X1115000Y799000D02*
D03*
Y815000D02*
D03*
X1135000Y799000D02*
D03*
Y815000D02*
D03*
D11*
X1032498Y660501D02*
D03*
Y639502D02*
D03*
X1062498Y660501D02*
D03*
Y639502D02*
D03*
D12*
X917500Y305000D02*
D03*
X937500D02*
D03*
X1187700Y333700D02*
D03*
X1162300D02*
D03*
X1187700Y359100D02*
D03*
X1162300D02*
D03*
X1187700Y384500D02*
D03*
X1162300D02*
D03*
X1187700Y409900D02*
D03*
X1162300D02*
D03*
X1187700Y435300D02*
D03*
X1162300D02*
D03*
X1187700Y460700D02*
D03*
X1162300D02*
D03*
X1187700Y486100D02*
D03*
X1162300D02*
D03*
X1187700Y511500D02*
D03*
X1162300D02*
D03*
X1187700Y536900D02*
D03*
X1162300D02*
D03*
X1187700Y562300D02*
D03*
X1162300D02*
D03*
X1187700Y587700D02*
D03*
X1162300D02*
D03*
X1187700Y613100D02*
D03*
X1162300D02*
D03*
X1187700Y638500D02*
D03*
X1162300D02*
D03*
X1187700Y663900D02*
D03*
X1162300D02*
D03*
X1187700Y689300D02*
D03*
X1162300D02*
D03*
X1187700Y714700D02*
D03*
X1162300D02*
D03*
X1187700Y740100D02*
D03*
X1162300D02*
D03*
X1187700Y765500D02*
D03*
X1162300D02*
D03*
X1187700Y816300D02*
D03*
X1162300Y790900D02*
D03*
X1187700D02*
D03*
X734400Y317300D02*
D03*
Y342700D02*
D03*
X709000Y317300D02*
D03*
X759800Y342700D02*
D03*
Y317300D02*
D03*
X785200Y342700D02*
D03*
Y317300D02*
D03*
X810600Y342700D02*
D03*
Y317300D02*
D03*
X836000Y342700D02*
D03*
Y317300D02*
D03*
X1050000Y842100D02*
D03*
Y816700D02*
D03*
Y791300D02*
D03*
X1111500Y384500D02*
D03*
Y359100D02*
D03*
Y333700D02*
D03*
Y308300D02*
D03*
Y409900D02*
D03*
Y435300D02*
D03*
Y460700D02*
D03*
X920238Y638500D02*
D03*
Y536900D02*
D03*
Y562300D02*
D03*
Y587700D02*
D03*
Y613100D02*
D03*
X920000Y694600D02*
D03*
X1015000Y842100D02*
D03*
X1085000D02*
D03*
Y816700D02*
D03*
Y791300D02*
D03*
X1120000Y867500D02*
D03*
D13*
X955500Y362500D02*
D03*
X937500D02*
D03*
D14*
X1015000Y790000D02*
D03*
Y750000D02*
D03*
D15*
X972500Y634000D02*
D03*
D16*
X949500Y696000D02*
D03*
X995500D02*
D03*
D17*
X972500D02*
D03*
D18*
X1002960Y362050D02*
D03*
X990260D02*
D03*
X977560D02*
D03*
X1015660D02*
D03*
X977560Y306050D02*
D03*
X990260D02*
D03*
X1002960D02*
D03*
X1015660D02*
D03*
D19*
X1050000Y791300D02*
X1113800Y727500D01*
X1174900D01*
X1187700Y714700D01*
X1175300Y752500D02*
X1187700Y740100D01*
X1097500Y752500D02*
X1175300D01*
X1067500Y782500D02*
X1097500Y752500D01*
X1067500Y782500D02*
Y799200D01*
X1050000Y816700D02*
X1067500Y799200D01*
X1107500Y815000D02*
X1115000D01*
X1092500Y830000D02*
X1107500Y815000D01*
X1062100Y830000D02*
X1092500D01*
X1142800Y785000D02*
X1162300Y765500D01*
X1120000Y785000D02*
X1142800D01*
X1115000Y790000D02*
X1120000Y785000D01*
X1137240Y790900D02*
X1162300D01*
X1135000Y793140D02*
X1137240Y790900D01*
X1135000Y793140D02*
Y799000D01*
X1115000Y790000D02*
Y799000D01*
Y815000D02*
X1135000D01*
X1050000Y842100D02*
X1062100Y830000D01*
X971220Y401220D02*
X985410D01*
X967500Y397500D02*
X971220Y401220D01*
X967500Y362500D02*
Y397500D01*
X977110Y362500D02*
X977560Y362050D01*
X955950D02*
X977560D01*
X955500Y362500D02*
X955950Y362050D01*
X985410Y379590D02*
Y385220D01*
Y379590D02*
X990260Y374740D01*
Y362050D02*
Y374740D01*
X1002910Y344590D02*
Y385220D01*
X1020410Y380410D02*
Y385220D01*
X1015660Y375660D02*
X1020410Y380410D01*
X1015660Y362050D02*
Y375660D01*
X990260Y345260D02*
Y362050D01*
X980000Y335000D02*
X990260Y345260D01*
X967500Y335000D02*
X980000D01*
X937500Y305000D02*
X967500Y335000D01*
X1098600Y486100D02*
X1162300D01*
X1186100D02*
X1187700D01*
X1172500Y472500D02*
X1186100Y486100D01*
X1142500Y472500D02*
X1172500D01*
X1135000Y480000D02*
X1142500Y472500D01*
X1102325Y480000D02*
X1135000D01*
X1002910Y344590D02*
X1007500Y340000D01*
X1087500Y465175D02*
X1102325Y480000D01*
X1081912Y469412D02*
X1098600Y486100D01*
X1062500Y660503D02*
Y679000D01*
X1062498Y660501D02*
X1062500Y660503D01*
X1032500D02*
Y679000D01*
X1032498Y660501D02*
X1032500Y660503D01*
X1050000Y722500D02*
Y762500D01*
Y722500D02*
X1062500Y710000D01*
Y695000D02*
Y710000D01*
X1032500Y695000D02*
Y710000D01*
X972500Y722500D02*
X1020000D01*
X1032500Y710000D01*
X1067500Y340000D02*
X1087500Y360000D01*
X1072720Y385220D02*
X1081912Y394412D01*
X1087500Y360000D02*
Y465175D01*
X1081912Y394412D02*
Y469412D01*
X1020410Y385220D02*
X1072720D01*
X1007500Y340000D02*
X1067500D01*
X985410Y401220D02*
X1020410D01*
X1048720D01*
D20*
X1187700Y816300D02*
Y818928D01*
X949500Y696000D02*
X950000Y696500D01*
Y720000D01*
X972500Y737500D02*
X972500Y737500D01*
X950000Y762500D02*
X987500D01*
X1000000Y750000D01*
X1015000D01*
Y775000D02*
Y790000D01*
Y775000D02*
X1020000Y770000D01*
X1042500D01*
X1050000Y762500D01*
X972500Y677500D02*
Y696000D01*
Y737500D01*
Y677500D02*
X985000Y665000D01*
X997500D01*
Y605000D02*
X1007500Y615000D01*
Y655000D01*
X997500Y665000D02*
X1007500Y655000D01*
D21*
X1148267Y689300D02*
X1162300D01*
X1121400Y663900D02*
X1162300D01*
X1175120Y651080D02*
X1187700Y638500D01*
X1119998Y647499D02*
X1137499D01*
X1141080Y651080D01*
X1175120D01*
X1154800Y631000D02*
X1162300Y638500D01*
X1121000Y631000D02*
X1154800D01*
X1121000Y627500D02*
Y631000D01*
X1138965Y679999D02*
X1148267Y689300D01*
X1119998Y679999D02*
X1138965D01*
X1162300Y587700D02*
X1162300Y587700D01*
X1162300Y562300D02*
X1162300Y562300D01*
X1094400Y536900D02*
X1162300D01*
X1175120Y524320D02*
X1187700Y536900D01*
X1147500Y547500D02*
X1162300Y562300D01*
X973738Y585000D02*
X1107500D01*
X920238Y638500D02*
X973738Y585000D01*
X1111500Y435300D02*
X1125300D01*
X1150700Y460700D01*
X1162300D01*
X1111500Y384500D02*
X1124500D01*
X1149900Y409900D01*
X1162300D01*
X1111500Y359100D02*
X1124100D01*
X1149500Y384500D01*
X1162300D01*
X1111500Y333700D02*
X1123700D01*
X1149100Y359100D01*
X1162300D01*
X1111500Y409900D02*
X1124900D01*
X1150300Y435300D01*
X1162300D01*
X759800Y342700D02*
X782100Y365000D01*
X810600Y342700D02*
X825280Y357380D01*
X782100Y365000D02*
X872500D01*
X825280Y357380D02*
X877380D01*
X1094320Y524320D02*
X1175120D01*
X836000Y342700D02*
X875200D01*
X872500Y365000D02*
X992500Y485000D01*
X1027500D01*
X877380Y357380D02*
X995000Y475000D01*
X1032500D01*
X1094400Y536900D01*
X875200Y342700D02*
X997500Y465000D01*
X1035000D01*
X1094320Y524320D01*
X1134600Y560000D02*
X1162300Y587700D01*
X956572Y576767D02*
X1078593D01*
X1027500Y485000D02*
X1067500Y525000D01*
Y547500D01*
X1147500D01*
X1042500D02*
X1067500D01*
X1050000Y560000D02*
X1134600D01*
X1078593Y576767D02*
X1081826Y573533D01*
X1122500D01*
X920238Y613100D02*
X956572Y576767D01*
X1042500Y567500D02*
X1050000Y560000D01*
X920238Y587700D02*
X940438Y567500D01*
X1042500D01*
X920238Y562300D02*
X927538Y555000D01*
X1035000D01*
X1042500Y547500D01*
D22*
X895586Y285879D02*
X890000D01*
Y277500D01*
X895586D01*
X890000Y281690D02*
X892793D01*
X903966Y285879D02*
X898379D01*
Y277500D01*
X903966D01*
X898379Y281690D02*
X901172D01*
X906759Y277500D02*
Y285879D01*
X910948D01*
X912345Y284483D01*
Y281690D01*
X910948Y280293D01*
X906759D01*
X915138Y277500D02*
Y285879D01*
X919327D01*
X920724Y284483D01*
Y281690D01*
X919327Y280293D01*
X915138D01*
X917931D02*
X920724Y277500D01*
X927707Y285879D02*
X924914D01*
X923517Y284483D01*
Y278897D01*
X924914Y277500D01*
X927707D01*
X929103Y278897D01*
Y284483D01*
X927707Y285879D01*
X931896Y277500D02*
Y285879D01*
X934689Y283086D01*
X937483Y285879D01*
Y277500D01*
X948655Y285879D02*
Y277500D01*
X951448Y280293D01*
X954241Y277500D01*
Y285879D01*
X957034Y277500D02*
Y285879D01*
X961224D01*
X962620Y284483D01*
Y281690D01*
X961224Y280293D01*
X957034D01*
X902500Y680000D02*
X894121D01*
Y684190D01*
X895517Y685586D01*
X898310D01*
X899707Y684190D01*
Y680000D01*
Y682793D02*
X902500Y685586D01*
X895517Y693966D02*
X894121Y692569D01*
Y689776D01*
X895517Y688379D01*
X896914D01*
X898310Y689776D01*
Y692569D01*
X899707Y693966D01*
X901104D01*
X902500Y692569D01*
Y689776D01*
X901104Y688379D01*
X902500Y696759D02*
Y699552D01*
Y698155D01*
X894121D01*
X895517Y696759D01*
X902500Y712121D02*
X894121D01*
Y716310D01*
X895517Y717707D01*
X898310D01*
X899707Y716310D01*
Y712121D01*
Y714914D02*
X902500Y717707D01*
X895517Y726086D02*
X894121Y724689D01*
Y721896D01*
X895517Y720500D01*
X896914D01*
X898310Y721896D01*
Y724689D01*
X899707Y726086D01*
X901104D01*
X902500Y724689D01*
Y721896D01*
X901104Y720500D01*
X902500Y734465D02*
Y728879D01*
X896914Y734465D01*
X895517D01*
X894121Y733069D01*
Y730276D01*
X895517Y728879D01*
X668310Y345000D02*
Y350586D01*
X672500Y357569D02*
X668310Y353379D01*
X664121Y357569D01*
X672500Y374328D02*
X668310Y370138D01*
X664121Y374328D01*
X668310Y378517D02*
Y384103D01*
X664121Y395276D02*
X672500D01*
Y400862D01*
Y405051D02*
Y407845D01*
X671104Y409241D01*
X668310D01*
X666914Y407845D01*
Y405051D01*
X668310Y403655D01*
X671104D01*
X672500Y405051D01*
Y412034D02*
X664121D01*
Y416224D01*
X665517Y417621D01*
X668310D01*
X669707Y416224D01*
Y412034D01*
Y414827D02*
X672500Y417621D01*
X666914Y421810D02*
Y424603D01*
X668310Y426000D01*
X672500D01*
Y421810D01*
X671104Y420414D01*
X669707Y421810D01*
Y426000D01*
X895517Y492500D02*
X894121Y493896D01*
Y496690D01*
X895517Y498086D01*
X896914D01*
X898310Y496690D01*
Y495293D01*
Y496690D01*
X899707Y498086D01*
X901104D01*
X902500Y496690D01*
Y493896D01*
X901104Y492500D01*
X894121Y500879D02*
X899707D01*
X902500Y503672D01*
X899707Y506465D01*
X894121D01*
X895517Y509259D02*
X894121Y510655D01*
Y513448D01*
X895517Y514845D01*
X896914D01*
X898310Y513448D01*
Y512052D01*
Y513448D01*
X899707Y514845D01*
X901104D01*
X902500Y513448D01*
Y510655D01*
X901104Y509259D01*
X895517Y531603D02*
X894121Y530207D01*
Y527414D01*
X895517Y526017D01*
X901104D01*
X902500Y527414D01*
Y530207D01*
X901104Y531603D01*
X898310D01*
Y528810D01*
X902500Y534396D02*
X894121D01*
X902500Y539983D01*
X894121D01*
Y542776D02*
X902500D01*
Y546965D01*
X901104Y548362D01*
X895517D01*
X894121Y546965D01*
Y542776D01*
X902500Y559534D02*
X894121D01*
X896914Y562327D01*
X894121Y565121D01*
X902500D01*
X894121Y567914D02*
Y570707D01*
Y569310D01*
X902500D01*
Y567914D01*
Y570707D01*
Y583276D02*
X894121D01*
X896914Y586069D01*
X894121Y588862D01*
X902500D01*
X894121Y595844D02*
Y593051D01*
X895517Y591655D01*
X901104D01*
X902500Y593051D01*
Y595844D01*
X901104Y597241D01*
X895517D01*
X894121Y595844D01*
X895517Y614000D02*
X894121Y612603D01*
Y609810D01*
X895517Y608413D01*
X901104D01*
X902500Y609810D01*
Y612603D01*
X901104Y614000D01*
X894121Y616793D02*
X902500D01*
Y622379D01*
X895517Y639137D02*
X894121Y637741D01*
Y634948D01*
X895517Y633551D01*
X901104D01*
X902500Y634948D01*
Y637741D01*
X901104Y639137D01*
X895517Y647517D02*
X894121Y646120D01*
Y643327D01*
X895517Y641930D01*
X896914D01*
X898310Y643327D01*
Y646120D01*
X899707Y647517D01*
X901104D01*
X902500Y646120D01*
Y643327D01*
X901104Y641930D01*
D23*
X1162300Y816300D02*
D03*
D24*
X1175000Y865000D02*
D03*
X685000Y285000D02*
D03*
X1175000D02*
D03*
D25*
X709000Y342700D02*
D03*
X1050000Y867500D02*
D03*
X1111500Y282900D02*
D03*
X920238Y511500D02*
D03*
X920000Y720000D02*
D03*
X1015000Y867500D02*
D03*
X1085000D02*
D03*
X1120000Y842100D02*
D03*
D26*
X950000Y822500D02*
D03*
D27*
X903000Y792500D02*
D03*
D28*
X950000Y762500D02*
D03*
D29*
Y720000D02*
D03*
X972500Y737500D02*
D03*
X1050000Y762500D02*
D03*
X1120000Y664000D02*
D03*
Y631000D02*
D03*
X1119998Y647499D02*
D03*
Y679999D02*
D03*
X1107500Y585000D02*
D03*
X1050000Y560000D02*
D03*
X1048720Y401220D02*
D03*
X997500Y605000D02*
D03*
X1122500Y573533D02*
D03*
M02*
