G04 Layer_Color=2752767*
%FSLAX44Y44*%
%MOMM*%
G71*
G01*
G75*
%ADD55C,0.0508*%
%ADD56C,0.0677*%
D55*
X1185668Y331668D02*
Y335732D01*
X1189732D01*
Y331668D01*
X1185668D01*
X1160268D02*
Y335732D01*
X1164332D01*
Y331668D01*
X1160268D01*
X1185668Y357068D02*
Y361132D01*
X1189732D01*
Y357068D01*
X1185668D01*
X1160268D02*
Y361132D01*
X1164332D01*
Y357068D01*
X1160268D01*
X1185668Y382468D02*
Y386532D01*
X1189732D01*
Y382468D01*
X1185668D01*
X1160268D02*
Y386532D01*
X1164332D01*
Y382468D01*
X1160268D01*
X1185668Y407868D02*
Y411932D01*
X1189732D01*
Y407868D01*
X1185668D01*
X1160268D02*
Y411932D01*
X1164332D01*
Y407868D01*
X1160268D01*
X1185668Y433268D02*
Y437332D01*
X1189732D01*
Y433268D01*
X1185668D01*
X1160268D02*
Y437332D01*
X1164332D01*
Y433268D01*
X1160268D01*
X1185668Y458668D02*
Y462732D01*
X1189732D01*
Y458668D01*
X1185668D01*
X1160268D02*
Y462732D01*
X1164332D01*
Y458668D01*
X1160268D01*
X1185668Y484068D02*
Y488132D01*
X1189732D01*
Y484068D01*
X1185668D01*
X1160268D02*
Y488132D01*
X1164332D01*
Y484068D01*
X1160268D01*
X1185668Y509468D02*
Y513532D01*
X1189732D01*
Y509468D01*
X1185668D01*
X1160268D02*
Y513532D01*
X1164332D01*
Y509468D01*
X1160268D01*
X1185668Y534868D02*
Y538932D01*
X1189732D01*
Y534868D01*
X1185668D01*
X1160268D02*
Y538932D01*
X1164332D01*
Y534868D01*
X1160268D01*
X1185668Y560268D02*
Y564332D01*
X1189732D01*
Y560268D01*
X1185668D01*
X1160268D02*
Y564332D01*
X1164332D01*
Y560268D01*
X1160268D01*
X1185668Y585668D02*
Y589732D01*
X1189732D01*
Y585668D01*
X1185668D01*
X1160268D02*
Y589732D01*
X1164332D01*
Y585668D01*
X1160268D01*
X1185668Y611068D02*
Y615132D01*
X1189732D01*
Y611068D01*
X1185668D01*
X1160268D02*
Y615132D01*
X1164332D01*
Y611068D01*
X1160268D01*
X1185668Y636468D02*
Y640532D01*
X1189732D01*
Y636468D01*
X1185668D01*
X1160268D02*
Y640532D01*
X1164332D01*
Y636468D01*
X1160268D01*
X1185668Y661868D02*
Y665932D01*
X1189732D01*
Y661868D01*
X1185668D01*
X1160268D02*
Y665932D01*
X1164332D01*
Y661868D01*
X1160268D01*
X1185668Y687268D02*
Y691332D01*
X1189732D01*
Y687268D01*
X1185668D01*
X1160268D02*
Y691332D01*
X1164332D01*
Y687268D01*
X1160268D01*
X1185668Y712668D02*
Y716732D01*
X1189732D01*
Y712668D01*
X1185668D01*
X1160268D02*
Y716732D01*
X1164332D01*
Y712668D01*
X1160268D01*
X1185668Y738068D02*
Y742132D01*
X1189732D01*
Y738068D01*
X1185668D01*
X1160268D02*
Y742132D01*
X1164332D01*
Y738068D01*
X1160268D01*
X1185668Y763468D02*
Y767532D01*
X1189732D01*
Y763468D01*
X1185668D01*
X1160268D02*
Y767532D01*
X1164332D01*
Y763468D01*
X1160268D01*
Y814268D02*
Y818332D01*
X1164332D01*
Y814268D01*
X1160268D01*
X1185668D02*
Y818332D01*
X1189732D01*
Y814268D01*
X1185668D01*
X1160268Y788868D02*
Y792932D01*
X1164332D01*
Y788868D01*
X1160268D01*
X1185668D02*
Y792932D01*
X1189732D01*
Y788868D01*
X1185668D01*
X732368Y315268D02*
Y319332D01*
X736432D01*
Y315268D01*
X732368D01*
Y340668D02*
Y344732D01*
X736432D01*
Y340668D01*
X732368D01*
X706968Y315268D02*
Y319332D01*
X711032D01*
Y315268D01*
X706968D01*
Y340668D02*
Y344732D01*
X711032D01*
Y340668D01*
X706968D01*
X757768D02*
Y344732D01*
X761832D01*
Y340668D01*
X757768D01*
Y315268D02*
Y319332D01*
X761832D01*
Y315268D01*
X757768D01*
X783168Y340668D02*
Y344732D01*
X787232D01*
Y340668D01*
X783168D01*
Y315268D02*
Y319332D01*
X787232D01*
Y315268D01*
X783168D01*
X808568Y340668D02*
Y344732D01*
X812632D01*
Y340668D01*
X808568D01*
Y315268D02*
Y319332D01*
X812632D01*
Y315268D01*
X808568D01*
X833968Y340668D02*
Y344732D01*
X838032D01*
Y340668D01*
X833968D01*
Y315268D02*
Y319332D01*
X838032D01*
Y315268D01*
X833968D01*
X950000Y820468D02*
X947968Y824532D01*
X952032D01*
X950000Y820468D01*
X903000Y790468D02*
X900968Y794532D01*
X905032D01*
X903000Y790468D01*
X950000Y760468D02*
X947968Y764532D01*
X952032D01*
X950000Y760468D01*
X1047968Y865468D02*
Y869532D01*
X1052032D01*
Y865468D01*
X1047968D01*
Y840068D02*
Y844132D01*
X1052032D01*
Y840068D01*
X1047968D01*
Y814668D02*
Y818732D01*
X1052032D01*
Y814668D01*
X1047968D01*
Y789268D02*
Y793332D01*
X1052032D01*
Y789268D01*
X1047968D01*
X1109468Y382468D02*
Y386532D01*
X1113532D01*
Y382468D01*
X1109468D01*
Y357068D02*
Y361132D01*
X1113532D01*
Y357068D01*
X1109468D01*
Y331668D02*
Y335732D01*
X1113532D01*
Y331668D01*
X1109468D01*
Y306268D02*
Y310332D01*
X1113532D01*
Y306268D01*
X1109468D01*
Y280868D02*
Y284932D01*
X1113532D01*
Y280868D01*
X1109468D01*
Y407868D02*
Y411932D01*
X1113532D01*
Y407868D01*
X1109468D01*
Y433268D02*
Y437332D01*
X1113532D01*
Y433268D01*
X1109468D01*
Y458668D02*
Y462732D01*
X1113532D01*
Y458668D01*
X1109468D01*
X918206Y636468D02*
Y640532D01*
X922270D01*
Y636468D01*
X918206D01*
Y509468D02*
Y513532D01*
X922270D01*
Y509468D01*
X918206D01*
Y534868D02*
Y538932D01*
X922270D01*
Y534868D01*
X918206D01*
Y560268D02*
Y564332D01*
X922270D01*
Y560268D01*
X918206D01*
Y585668D02*
Y589732D01*
X922270D01*
Y585668D01*
X918206D01*
Y611068D02*
Y615132D01*
X922270D01*
Y611068D01*
X918206D01*
X917968Y717968D02*
Y722032D01*
X922032D01*
Y717968D01*
X917968D01*
Y692568D02*
Y696632D01*
X922032D01*
Y692568D01*
X917968D01*
X1012968Y865468D02*
Y869532D01*
X1017032D01*
Y865468D01*
X1012968D01*
Y840068D02*
Y844132D01*
X1017032D01*
Y840068D01*
X1012968D01*
X1082968Y865468D02*
Y869532D01*
X1087032D01*
Y865468D01*
X1082968D01*
Y840068D02*
Y844132D01*
X1087032D01*
Y840068D01*
X1082968D01*
Y814668D02*
Y818732D01*
X1087032D01*
Y814668D01*
X1082968D01*
Y789268D02*
Y793332D01*
X1087032D01*
Y789268D01*
X1082968D01*
X1117968Y840068D02*
Y844132D01*
X1122032D01*
Y840068D01*
X1117968D01*
Y865468D02*
Y869532D01*
X1122032D01*
Y865468D01*
X1117968D01*
X950000Y717968D02*
X951016Y718984D01*
X952032D01*
X951016Y720000D01*
X952032Y721016D01*
X951016D01*
X950000Y722032D01*
X948984Y721016D01*
X947968D01*
X948984Y720000D01*
X947968Y718984D01*
X948984D01*
X950000Y717968D01*
X972500Y735468D02*
X973516Y736484D01*
X974532D01*
X973516Y737500D01*
X974532Y738516D01*
X973516D01*
X972500Y739532D01*
X971484Y738516D01*
X970468D01*
X971484Y737500D01*
X970468Y736484D01*
X971484D01*
X972500Y735468D01*
X1050000Y760468D02*
X1051016Y761484D01*
X1052032D01*
X1051016Y762500D01*
X1052032Y763516D01*
X1051016D01*
X1050000Y764532D01*
X1048984Y763516D01*
X1047968D01*
X1048984Y762500D01*
X1047968Y761484D01*
X1048984D01*
X1050000Y760468D01*
X1120000Y661968D02*
X1121016Y662984D01*
X1122032D01*
X1121016Y664000D01*
X1122032Y665016D01*
X1121016D01*
X1120000Y666032D01*
X1118984Y665016D01*
X1117968D01*
X1118984Y664000D01*
X1117968Y662984D01*
X1118984D01*
X1120000Y661968D01*
Y628968D02*
X1121016Y629984D01*
X1122032D01*
X1121016Y631000D01*
X1122032Y632016D01*
X1121016D01*
X1120000Y633032D01*
X1118984Y632016D01*
X1117968D01*
X1118984Y631000D01*
X1117968Y629984D01*
X1118984D01*
X1120000Y628968D01*
X1119998Y645467D02*
X1121014Y646483D01*
X1122030D01*
X1121014Y647499D01*
X1122030Y648515D01*
X1121014D01*
X1119998Y649531D01*
X1118982Y648515D01*
X1117966D01*
X1118982Y647499D01*
X1117966Y646483D01*
X1118982D01*
X1119998Y645467D01*
Y677967D02*
X1121014Y678983D01*
X1122030D01*
X1121014Y679999D01*
X1122030Y681015D01*
X1121014D01*
X1119998Y682031D01*
X1118982Y681015D01*
X1117966D01*
X1118982Y679999D01*
X1117966Y678983D01*
X1118982D01*
X1119998Y677967D01*
X1107500Y582968D02*
X1108516Y583984D01*
X1109532D01*
X1108516Y585000D01*
X1109532Y586016D01*
X1108516D01*
X1107500Y587032D01*
X1106484Y586016D01*
X1105468D01*
X1106484Y585000D01*
X1105468Y583984D01*
X1106484D01*
X1107500Y582968D01*
X1050000Y557968D02*
X1051016Y558984D01*
X1052032D01*
X1051016Y560000D01*
X1052032Y561016D01*
X1051016D01*
X1050000Y562032D01*
X1048984Y561016D01*
X1047968D01*
X1048984Y560000D01*
X1047968Y558984D01*
X1048984D01*
X1050000Y557968D01*
X1048720Y399188D02*
X1049736Y400204D01*
X1050752D01*
X1049736Y401220D01*
X1050752Y402236D01*
X1049736D01*
X1048720Y403252D01*
X1047704Y402236D01*
X1046688D01*
X1047704Y401220D01*
X1046688Y400204D01*
X1047704D01*
X1048720Y399188D01*
X997500Y602968D02*
X998516Y603984D01*
X999532D01*
X998516Y605000D01*
X999532Y606016D01*
X998516D01*
X997500Y607032D01*
X996484Y606016D01*
X995468D01*
X996484Y605000D01*
X995468Y603984D01*
X996484D01*
X997500Y602968D01*
X1122500Y571501D02*
X1123516Y572517D01*
X1124532D01*
X1123516Y573533D01*
X1124532Y574549D01*
X1123516D01*
X1122500Y575565D01*
X1121484Y574549D01*
X1120468D01*
X1121484Y573533D01*
X1120468Y572517D01*
X1121484D01*
X1122500Y571501D01*
D56*
X1177032Y865000D02*
G03*
X1177032Y865000I-2032J0D01*
G01*
X687032Y285000D02*
G03*
X687032Y285000I-2032J0D01*
G01*
X1177032D02*
G03*
X1177032Y285000I-2032J0D01*
G01*
M02*
